{
.appVersion = "1350";
classes = (
{
code = "yoYing-thai thoThan-thai doChada-thai toPatak-thai";
name = ThaiDescenders;
},
{
code = "saraU-thai saraUu-thai phinthu-thai macronbelowcomb macronbelowcomb.alt";
name = ThaiBelowMarks;
},
{
code = "yoYing-thai.less thoThan-thai.less doChada-thai.short toPatak-thai.short";
name = ThaiShortDescenders;
},
{
code = "saraU-thai.small saraUu-thai.small phinthu-thai macronbelowcomb macronbelowcomb.alt";
name = ThaiSmallBelowMarks;
},
{
code = "nikhahit-thai maiChattawa-thai maiHanaKat-thai thanthakhat-thai maiEk-thai maiTho-thai maiTri-thai maitaikhu-thai yamakkan-thai saraI-thai saraIi-thai saraUe-thai saraUee-thai maiHanaKat-thai.narrow maiEk-thai.narrow maiTho-thai.narrow maiTri-thai.narrow maitaikhu-thai.narrow saraI-thai.narrow saraIi-thai.narrow saraUe-thai.narrow saraUee-thai.narrow maiTho-thai.extranarrow maiTri-thai.extranarrow tildecomb fonThong-thai fanNu-thai muusikatoan-khmer bantoc-khmer ";
name = ThaiAboveMarks;
},
{
code = "maiEk-thai maiTho-thai maiTri-thai maiChattawa-thai thanthakhat-thai maitaikhu-thai nikhahit-thai";
name = ThaiToneMarks;
},
{
code = "maiEk-thai.small maiTho-thai.small maiTri-thai.small maiChattawa-thai.small thanthakhat-thai.small maitaikhu-thai.small nikhahit-thai.small";
name = ThaiSmallToneMarks;
},
{
code = "maiHanaKat-thai nikhahit-thai maiEk-thai maiTho-thai maiTri-thai maitaikhu-thai saraI-thai saraIi-thai saraUe-thai saraUee-thai thanthakhat-thai";
name = ThaiNonNarrowMarks;
},
{
code = "poPla-thai foFa-thai foFan-thai";
name = ThaiAscendingConsonants;
},
{
code = "maiHanaKat-thai.narrow nikhahit-thai.narrow maiEk-thai.narrow maiTho-thai.narrow maiTri-thai.narrow maitaikhu-thai.narrow saraI-thai.narrow saraIi-thai.narrow saraUe-thai.narrow saraUee-thai.narrow thanthakhat-thai.narrow";
name = ThaiNarrowMarks;
},
{
code = macronbelowcomb;
name = Macronbelow;
},
{

glyphs = (
{
glyphname = .notdef;
lastChange = "2020-11-13 20:26:58 +0000";
layers = (
{
layerId = "EB3A5D6C-8260-43A6-9EF2-63971FC08D48";
paths = (
{
closed = 1;
nodes = (
"496 0 LINE",
"496 714 LINE",
"85 714 LINE",
"85 0 LINE"
);
},
{
closed = 1;
nodes = (
"136 663 LINE",
"445 663 LINE",
"445 51 LINE",
"136 51 LINE"
);
}
);
width = 582;
},
{
layerId = "C987F20E-C470-4905-85F8-C37EA20127D7";
paths = (
{
closed = 1;
nodes = (
"496 0 LINE",
"496 714 LINE",
"85 714 LINE",
"85 0 LINE"
);
},
{
closed = 1;
nodes = (
"136 663 LINE",
"445 663 LINE",
"445 51 LINE",
"136 51 LINE"
);
}
);
width = 582;
},
{
layerId = "59720D05-F04C-4F19-83A4-486FF5963186";
paths = (
{
closed = 1;
nodes = (
"505 0 LINE",
"505 714 LINE",
"94 714 LINE",
"94 0 LINE"
);
},
{
closed = 1;
nodes = (
"145 663 LINE",
"454 663 LINE",
"454 51 LINE",
"145 51 LINE"
);
}
);
width = 600;
},
{
layerId = "9F3C76A5-8ED6-4D1B-8CC9-A050DF474D58";
paths = (
{
closed = 1;
nodes = (
"496 0 LINE",
"496 714 LINE",
"85 714 LINE",
"85 0 LINE"
);
},
{
closed = 1;
nodes = (
"136 663 LINE",
"445 663 LINE",
"445 51 LINE",
"136 51 LINE"
);
}
);
width = 595;
},
{
layerId = "90A34054-68E4-499D-AE50-276C7B026D8B";
paths = (
{
closed = 1;
nodes = (
"505 0 LINE",
"505 714 LINE",
"94 714 LINE",
"94 0 LINE"
);
},
{
closed = 1;
nodes = (
"145 663 LINE",
"454 663 LINE",
"454 51 LINE",
"145 51 LINE"
);
}
);
width = 600;
},
{
layerId = "31946225-6F4F-4A3A-A9E3-76FE8DE38A50";
paths = (
{
closed = 1;
nodes = (
"496 0 LINE",
"496 714 LINE",
"85 714 LINE",
"85 0 LINE"
);
},
{
closed = 1;
nodes = (
"136 663 LINE",
"445 663 LINE",
"445 51 LINE",
"136 51 LINE"
);
}
);
width = 600;
}
);
script = "";
category = Separator;
subCategory = Other;
},
{
glyphname = "koKai-thai";
lastChange = "2020-11-15 17:57:12 +0000";
layers = (
{
anchors = (
{
name = bottom;
position = "{299, 0}";
},
{
name = bottomright;
position = "{515, 0}";
},
{
name = top;
position = "{289, 553}";
},
{
name = topright;
position = "{510, 553}";
}
);
hints = (
{
horizontal = 1;
origin = "{0, 9}";
target = up;
type = BottomGhost;
},
{
horizontal = 1;
origin = "{0, 29}";
target = "{0, 20}";
type = Stem;
},
{
origin = "{0, 9}";
target = "{0, 10}";
type = Stem;
},
{
origin = "{0, 24}";
target = "{0, 25}";
type = Stem;
}
);
layerId = "59720D05-F04C-4F19-83A4-486FF5963186";
paths = (
{
closed = 1;
nodes = (
"146 563 OFFCURVE",
"62 483 OFFCURVE",
"62 384 CURVE SMOOTH",
"62 351 LINE",
"219 297 LINE",
"208 312 LINE",
"139 312 OFFCURVE",
"82 265 OFFCURVE",
"82 178 CURVE SMOOTH",
"82 0 LINE",
"168 0 LINE",
"168 177 LINE SMOOTH",
"168 248 OFFCURVE",
"204 277 OFFCURVE",
"257 277 CURVE",
"267 336 LINE",
"114 392 LINE",
"148 356 LINE",
"148 441 OFFCURVE",
"193 491 OFFCURVE",
"286 491 CURVE SMOOTH",
"364 491 OFFCURVE",
"429 455 OFFCURVE",
"429 366 CURVE SMOOTH",
"429 0 LINE",
"515 0 LINE",
"515 375 LINE SMOOTH",
"515 508 OFFCURVE",
"409 563 OFFCURVE",
"287 563 CURVE SMOOTH"
);
},
{
closed = 1;
nodes = (
"178 301 LINE",
"185 301 LINE",
"185 319 LINE",
"178 319 LINE"
);
}
);
userData = {
com.schriftgestaltung.Glyphs.glyph.rightMetricsKey = "khoKhwai-thai";
};
width = 601;
},
{
anchors = (
{
name = bottom;
position = "{334, 0}";
},
{
name = bottomright;
position = "{601, 0}";
},
{
name = top;
position = "{318, 563}";
},
{
name = topright;
position = "{596, 563}";
}
);
layerId = "EB3A5D6C-8260-43A6-9EF2-63971FC08D48";
paths = (
{
closed = 1;
nodes = (
"154 578 OFFCURVE",
"45 494 OFFCURVE",
"45 370 CURVE SMOOTH",
"45 324 LINE",
"231 261 LINE",
"223 301 LINE",
"134 301 OFFCURVE",
"67 251 OFFCURVE",
"67 156 CURVE SMOOTH",
"67 0 LINE",
"253 0 LINE",
"253 157 LINE SMOOTH",
"253 213 OFFCURVE",
"275 241 OFFCURVE",
"331 241 CURVE",
"339 334 LINE",
"148 405 LINE",
"221 330 LINE",
"221 385 OFFCURVE",
"236 436 OFFCURVE",
"317 436 CURVE SMOOTH",
"382 436 OFFCURVE",
"415 399 OFFCURVE",
"415 329 CURVE SMOOTH",
"415 0 LINE",
"601 0 LINE",
"601 364 LINE SMOOTH",
"601 497 OFFCURVE",
"496 578 OFFCURVE",
"317 578 CURVE SMOOTH"
);
},
{
closed = 1;
nodes = (
"148 278 LINE",
"155 278 LINE",
"155 296 LINE",
"148 296 LINE"
);
}
);
userData = {
com.schriftgestaltung.Glyphs.glyph.rightMetricsKey = "khoKhwai-thai";
};
width = 667;
},
{
anchors = (
{
name = bottom;
position = "{267, 0}";
},
{
name = bottomright;
position = "{486, 0}";
},
{
name = top;
position = "{252, 561}";
},
{
name = topright;
position = "{481, 561}";
}
);
layerId = "C987F20E-C470-4905-85F8-C37EA20127D7";
paths = (
{
closed = 1;
nodes = (
"123 576 OFFCURVE",
"30 502 OFFCURVE",
"30 379 CURVE SMOOTH",
"30 325 LINE",
"182 256 LINE",
"174 296 LINE",
"103 296 OFFCURVE",
"47 251 OFFCURVE",
"47 159 CURVE SMOOTH",
"47 0 LINE",
"203 0 LINE",
"203 167 LINE SMOOTH",
"203 217 OFFCURVE",
"218 245 OFFCURVE",
"267 245 CURVE",
"274 339 LINE",
"115 418 LINE",
"173 344 LINE",
"173 398 OFFCURVE",
"190 437 OFFCURVE",
"253 437 CURVE SMOOTH",
"306 437 OFFCURVE",
"330 398 OFFCURVE",
"330 338 CURVE SMOOTH",
"330 0 LINE",
"486 0 LINE",
"486 373 LINE SMOOTH",
"486 495 OFFCURVE",
"404 576 OFFCURVE",
"257 576 CURVE SMOOTH"
);
},
{
closed = 1;
nodes = (
"116 275 LINE",
"123 275 LINE",
"123 293 LINE",
"116 293 LINE"
);
}
);
userData = {
com.schriftgestaltung.Glyphs.glyph.rightMetricsKey = "khoKhwai-thai";
};
width = 538;
},
{
anchors = (
{
name = bottom;
position = "{276, 0}";
},
{
name = bottomright;
position = "{466, 0}";
},
{
name = top;
position = "{267, 550}";
},
{
name = topright;
position = "{461, 550}";
}
);
layerId = "90A34054-68E4-499D-AE50-276C7B026D8B";
paths = (
{
closed = 1;
nodes = (
"133 558 OFFCURVE",
"68 487 OFFCURVE",
"68 394 CURVE SMOOTH",
"68 373 LINE",
"188 331 LINE",
"187 336 LINE",
"122 336 OFFCURVE",
"86 286 OFFCURVE",
"86 209 CURVE SMOOTH",
"86 0 LINE",
"111 0 LINE",
"111 205 LINE SMOOTH",
"111 276 OFFCURVE",
"136 321 OFFCURVE",
"215 321 CURVE",
"221 343 LINE",
"82 393 LINE",
"93 384 LINE",
"93 478 OFFCURVE",
"153 535 OFFCURVE",
"269 535 CURVE SMOOTH",
"378 535 OFFCURVE",
"441 482 OFFCURVE",
"441 377 CURVE SMOOTH",
"441 0 LINE",
"466 0 LINE",
"466 382 LINE SMOOTH",
"466 496 OFFCURVE",
"396 558 OFFCURVE",
"269 558 CURVE SMOOTH"
);
},
{
closed = 1;
nodes = (
"173 327 LINE",
"180 327 LINE",
"180 345 LINE",
"173 345 LINE"
);
}
);
width = 556;
},
{
anchors = (
{
name = bottom;
position = "{204, 0}";
},
{
name = bottomright;
position = "{341, 0}";
},
{
name = top;
position = "{198, 548}";
},
{
name = topright;
position = "{336, 548}";
}
);
layerId = "31946225-6F4F-4A3A-A9E3-76FE8DE38A50";
paths = (
{
closed = 1;
nodes = (
"105 556 OFFCURVE",
"54 492 OFFCURVE",
"54 400 CURVE SMOOTH",
"54 377 LINE",
"144 336 LINE",
"146 341 LINE",
"97 341 OFFCURVE",
"66 291 OFFCURVE",
"66 215 CURVE SMOOTH",
"66 0 LINE",
"90 0 LINE",
"90 211 LINE SMOOTH",
"90 281 OFFCURVE",
"112 326 OFFCURVE",
"166 326 CURVE",
"170 348 LINE",
"69 396 LINE",
"78 386 LINE",
"78 479 OFFCURVE",
"115 533 OFFCURVE",
"199 533 CURVE SMOOTH",
"275 533 OFFCURVE",
"317 487 OFFCURVE",
"317 383 CURVE SMOOTH",
"317 0 LINE",
"341 0 LINE",
"341 388 LINE SMOOTH",
"341 501 OFFCURVE",
"289 556 OFFCURVE",
"199 556 CURVE SMOOTH"
);
},
{
closed = 1;
nodes = (
"133 331 LINE",
"140 331 LINE",
"140 349 LINE",
"133 349 LINE"
);
}
);
width = 417;
},
{
anchors = (
{
name = bottom;
position = "{218, 0}";
},
{
name = bottomright;
position = "{384, 0}";
},
{
name = top;
position = "{214, 551}";
},
{
name = topright;
position = "{379, 551}";
}
);
layerId = "9F3C76A5-8ED6-4D1B-8CC9-A050DF474D58";
paths = (
{
closed = 1;
nodes = (
"107 561 OFFCURVE",
"44 484 OFFCURVE",
"44 401 CURVE SMOOTH",
"44 370 LINE",
"159 309 LINE",
"155 328 LINE",
"102 328 OFFCURVE",
"51 290 OFFCURVE",
"51 195 CURVE SMOOTH",
"51 0 LINE",
"127 0 LINE",
"127 195 LINE SMOOTH",
"127 265 OFFCURVE",
"157 294 OFFCURVE",
"196 294 CURVE",
"202 350 LINE",
"91 416 LINE",
"119 378 LINE",
"119 441 OFFCURVE",
"146 490 OFFCURVE",
"212 490 CURVE SMOOTH",
"273 490 OFFCURVE",
"308 454 OFFCURVE",
"308 383 CURVE SMOOTH",
"308 0 LINE",
"384 0 LINE",
"384 392 LINE SMOOTH",
"384 507 OFFCURVE",
"307 561 OFFCURVE",
"213 561 CURVE SMOOTH"
);
},
{
closed = 1;
nodes = (
"128 315 LINE",
"135 315 LINE",
"135 333 LINE",
"128 333 LINE"
);
}
);
userData = {
com.schriftgestaltung.Glyphs.glyph.rightMetricsKey = "khoKhwai-thai";
};
width = 452;
}
);
note = "\012uni0E01\012";
rightKerningGroup = "koKai-thai";
unicode = 0E01;
},
{
glyphname = "khoKhai-thai";
lastChange = "2020-11-13 21:18:14 +0000";
layers = (
{
anchors = (
{
name = bottom;
position = "{310, 0}";
},
{
name = bottomright;
position = "{503, 0}";
},
{
name = top;
position = "{310, 553}";
},
{
name = topright;
position = "{508, 553}";
}
);
hints = (
{
horizontal = 1;
origin = "{0, 35}";
target = "{0, 8}";
type = Stem;
},
{
horizontal = 1;
origin = "{0, 4}";
target = down;
type = TopGhost;
},
{
origin = "{0, 5}";
target = "{0, 2}";
type = Stem;
},
{
horizontal = 1;
origin = "{0, 18}";
target = "{1, 5}";
type = Stem;
}
);
layerId = "59720D05-F04C-4F19-83A4-486FF5963186";
paths = (
{
closed = 1;
nodes = (
"442 -10 OFFCURVE",
"508 57 OFFCURVE",
"508 163 CURVE SMOOTH",
"508 553 LINE",
"422 553 LINE",
"422 170 LINE SMOOTH",
"422 105 OFFCURVE",
"393 62 OFFCURVE",
"310 62 CURVE SMOOTH",
"227 62 OFFCURVE",
"198 105 OFFCURVE",
"198 170 CURVE SMOOTH",
"198 200 LINE SMOOTH",
"198 303 OFFCURVE",
"295 322 OFFCURVE",
"295 449 CURVE SMOOTH",
"295 510 OFFCURVE",
"256 560 OFFCURVE",
"179 560 CURVE SMOOTH",
"111 560 OFFCURVE",
"67 518 OFFCURVE",
"67 459 CURVE SMOOTH",
"67 397 OFFCURVE",
"109 358 OFFCURVE",
"171 358 CURVE SMOOTH",
"226 358 OFFCURVE",
"281 382 OFFCURVE",
"281 459 CURVE",
"212 397 LINE",
"212 346 OFFCURVE",
"112 313 OFFCURVE",
"112 210 CURVE SMOOTH",
"112 162 LINE SMOOTH",
"112 56 OFFCURVE",
"178 -10 OFFCURVE",
"310 -10 CURVE SMOOTH"
);
},
{
closed = 1;
nodes = (
"141 406 OFFCURVE",
"118 425 OFFCURVE",
"118 459 CURVE SMOOTH",
"118 493 OFFCURVE",
"141 512 OFFCURVE",
"173 512 CURVE SMOOTH",
"205 512 OFFCURVE",
"228 493 OFFCURVE",
"228 459 CURVE SMOOTH",
"228 424 OFFCURVE",
"205 406 OFFCURVE",
"173 406 CURVE SMOOTH"
);
}
);
userData = {
com.schriftgestaltung.Glyphs.glyph.rightMetricsKey = "boBaimai-thai";
};
width = 593;
},
{
anchors = (
{
name = bottom;
position = "{332, 0}";
},
{
name = bottomright;
position = "{578, 0}";
},
{
name = top;
position = "{332, 563}";
},
{
name = topright;
position = "{583, 563}";
}
);
layerId = "EB3A5D6C-8260-43A6-9EF2-63971FC08D48";
paths = (
{
closed = 1;
nodes = (
"497 -15 OFFCURVE",
"583 55 OFFCURVE",
"583 185 CURVE SMOOTH",
"583 563 LINE",
"397 563 LINE",
"397 207 LINE SMOOTH",
"397 152 OFFCURVE",
"382 124 OFFCURVE",
"333 124 CURVE SMOOTH",
"288 124 OFFCURVE",
"267 153 OFFCURVE",
"267 191 CURVE SMOOTH",
"267 220 LINE SMOOTH",
"267 303 OFFCURVE",
"324 306 OFFCURVE",
"324 439 CURVE SMOOTH",
"324 527 OFFCURVE",
"259 573 OFFCURVE",
"175 573 CURVE SMOOTH",
"95 573 OFFCURVE",
"49 525 OFFCURVE",
"49 466 CURVE SMOOTH",
"49 408 OFFCURVE",
"87 359 OFFCURVE",
"153 359 CURVE SMOOTH",
"225 359 OFFCURVE",
"288 403 OFFCURVE",
"288 466 CURVE",
"173 403 LINE",
"173 352 OFFCURVE",
"81 333 OFFCURVE",
"81 210 CURVE SMOOTH",
"81 175 LINE SMOOTH",
"81 48 OFFCURVE",
"177 -15 OFFCURVE",
"333 -15 CURVE SMOOTH"
);
},
{
closed = 1;
nodes = (
"141 421 OFFCURVE",
"121 437 OFFCURVE",
"121 466 CURVE SMOOTH",
"121 495 OFFCURVE",
"141 511 OFFCURVE",
"168 511 CURVE SMOOTH",
"195 511 OFFCURVE",
"215 495 OFFCURVE",
"215 466 CURVE SMOOTH",
"215 436 OFFCURVE",
"195 421 OFFCURVE",
"168 421 CURVE SMOOTH"
);
}
);
userData = {
com.schriftgestaltung.Glyphs.glyph.rightMetricsKey = "boBaimai-thai";
};
width = 650;
},
{
anchors = (
{
name = bottom;
position = "{265, 0}";
},
{
name = bottomright;
position = "{466, 0}";
},
{
name = top;
position = "{265, 561}";
},
{
name = topright;
position = "{471, 561}";
}
);
layerId = "C987F20E-C470-4905-85F8-C37EA20127D7";
paths = (
{
closed = 1;
nodes = (
"400 -15 OFFCURVE",
"471 51 OFFCURVE",
"471 181 CURVE SMOOTH",
"471 561 LINE",
"315 561 LINE",
"315 203 LINE SMOOTH",
"315 160 OFFCURVE",
"311 124 OFFCURVE",
"266 124 CURVE SMOOTH",
"229 124 OFFCURVE",
"215 151 OFFCURVE",
"215 186 CURVE SMOOTH",
"215 229 LINE SMOOTH",
"215 312 OFFCURVE",
"261 339 OFFCURVE",
"261 438 CURVE SMOOTH",
"261 526 OFFCURVE",
"211 571 OFFCURVE",
"142 571 CURVE SMOOTH",
"72 571 OFFCURVE",
"33 523 OFFCURVE",
"33 464 CURVE SMOOTH",
"33 400 OFFCURVE",
"72 358 OFFCURVE",
"126 358 CURVE SMOOTH",
"186 358 OFFCURVE",
"233 397 OFFCURVE",
"233 464 CURVE",
"131 401 LINE",
"131 351 OFFCURVE",
"59 332 OFFCURVE",
"59 209 CURVE SMOOTH",
"59 171 LINE SMOOTH",
"59 44 OFFCURVE",
"138 -15 OFFCURVE",
"266 -15 CURVE SMOOTH"
);
},
{
closed = 1;
nodes = (
"112 419 OFFCURVE",
"96 436 OFFCURVE",
"96 464 CURVE SMOOTH",
"96 493 OFFCURVE",
"112 510 OFFCURVE",
"134 510 CURVE SMOOTH",
"157 510 OFFCURVE",
"173 493 OFFCURVE",
"173 464 CURVE SMOOTH",
"173 435 OFFCURVE",
"157 419 OFFCURVE",
"134 419 CURVE SMOOTH"
);
}
);
userData = {
com.schriftgestaltung.Glyphs.glyph.rightMetricsKey = "boBaimai-thai";
};
width = 523;
},
{
anchors = (
{
name = bottom;
position = "{274, 0}";
},
{
name = bottomright;
position = "{436, 0}";
},
{
name = top;
position = "{274, 550}";
},
{
name = topright;
position = "{441, 550}";
}
);
layerId = "90A34054-68E4-499D-AE50-276C7B026D8B";
paths = (
{
closed = 1;
nodes = (
"383 -8 OFFCURVE",
"441 54 OFFCURVE",
"441 155 CURVE SMOOTH",
"441 550 LINE",
"416 550 LINE",
"416 160 LINE SMOOTH",
"416 63 OFFCURVE",
"362 15 OFFCURVE",
"274 15 CURVE SMOOTH",
"168 15 OFFCURVE",
"131 87 OFFCURVE",
"131 160 CURVE SMOOTH",
"131 207 LINE SMOOTH",
"131 324 OFFCURVE",
"236 333 OFFCURVE",
"236 457 CURVE SMOOTH",
"236 518 OFFCURVE",
"209 555 OFFCURVE",
"153 555 CURVE SMOOTH",
"101 555 OFFCURVE",
"72 518 OFFCURVE",
"72 475 CURVE SMOOTH",
"72 433 OFFCURVE",
"101 395 OFFCURVE",
"152 395 CURVE SMOOTH",
"193 395 OFFCURVE",
"230 420 OFFCURVE",
"230 475 CURVE",
"206 427 LINE",
"206 349 OFFCURVE",
"106 329 OFFCURVE",
"106 212 CURVE SMOOTH",
"106 154 LINE SMOOTH",
"106 73 OFFCURVE",
"153 -8 OFFCURVE",
"274 -8 CURVE SMOOTH"
);
},
{
closed = 1;
nodes = (
"118 418 OFFCURVE",
"97 441 OFFCURVE",
"97 475 CURVE SMOOTH",
"97 509 OFFCURVE",
"118 532 OFFCURVE",
"153 532 CURVE SMOOTH",
"189 532 OFFCURVE",
"209 509 OFFCURVE",
"209 475 CURVE SMOOTH",
"209 441 OFFCURVE",
"189 418 OFFCURVE",
"153 418 CURVE SMOOTH"
);
}
);
width = 531;
},
{
anchors = (
{
name = bottom;
position = "{203, 0}";
},
{
name = bottomright;
position = "{319, 0}";
},
{
name = top;
position = "{203, 548}";
},
{
name = topright;
position = "{324, 548}";
}
);
layerId = "31946225-6F4F-4A3A-A9E3-76FE8DE38A50";
paths = (
{
closed = 1;
nodes = (
"282 -8 OFFCURVE",
"324 39 OFFCURVE",
"324 140 CURVE SMOOTH",
"324 548 LINE",
"300 548 LINE",
"300 145 LINE SMOOTH",
"300 60 OFFCURVE",
"272 15 OFFCURVE",
"204 15 CURVE SMOOTH",
"131 15 OFFCURVE",
"106 72 OFFCURVE",
"106 145 CURVE SMOOTH",
"106 218 LINE SMOOTH",
"106 335 OFFCURVE",
"179 333 OFFCURVE",
"179 456 CURVE SMOOTH",
"179 520 OFFCURVE",
"158 553 OFFCURVE",
"117 553 CURVE SMOOTH",
"79 553 OFFCURVE",
"55 519 OFFCURVE",
"55 473 CURVE SMOOTH",
"55 428 OFFCURVE",
"80 394 OFFCURVE",
"117 394 CURVE SMOOTH",
"154 394 OFFCURVE",
"175 431 OFFCURVE",
"175 473 CURVE",
"154 425 LINE",
"154 351 OFFCURVE",
"82 338 OFFCURVE",
"82 221 CURVE SMOOTH",
"82 139 LINE SMOOTH",
"82 58 OFFCURVE",
"116 -8 OFFCURVE",
"204 -8 CURVE SMOOTH"
);
},
{
closed = 1;
nodes = (
"93 414 OFFCURVE",
"77 438 OFFCURVE",
"77 473 CURVE SMOOTH",
"77 509 OFFCURVE",
"93 532 OFFCURVE",
"117 532 CURVE SMOOTH",
"142 532 OFFCURVE",
"155 509 OFFCURVE",
"155 473 CURVE SMOOTH",
"155 438 OFFCURVE",
"142 414 OFFCURVE",
"117 414 CURVE SMOOTH"
);
}
);
width = 400;
},
{
anchors = (
{
name = bottom;
position = "{232, 0}";
},
{
name = bottomright;
position = "{375, 0}";
},
{
name = top;
position = "{232, 551}";
},
{
name = topright;
position = "{380, 551}";
}
);
layerId = "9F3C76A5-8ED6-4D1B-8CC9-A050DF474D58";
paths = (
{
closed = 1;
nodes = (
"330 -10 OFFCURVE",
"380 50 OFFCURVE",
"380 156 CURVE SMOOTH",
"380 551 LINE",
"304 551 LINE",
"304 163 LINE SMOOTH",
"304 110 OFFCURVE",
"295 61 OFFCURVE",
"232 61 CURVE SMOOTH",
"169 61 OFFCURVE",
"160 110 OFFCURVE",
"160 162 CURVE SMOOTH",
"160 206 LINE SMOOTH",
"160 309 OFFCURVE",
"228 314 OFFCURVE",
"228 447 CURVE SMOOTH",
"228 507 OFFCURVE",
"196 558 OFFCURVE",
"132 558 CURVE SMOOTH",
"81 558 OFFCURVE",
"46 516 OFFCURVE",
"46 457 CURVE SMOOTH",
"46 396 OFFCURVE",
"80 357 OFFCURVE",
"131 357 CURVE SMOOTH",
"180 357 OFFCURVE",
"206 392 OFFCURVE",
"206 457 CURVE",
"158 396 LINE",
"158 345 OFFCURVE",
"83 319 OFFCURVE",
"83 216 CURVE SMOOTH",
"83 154 LINE SMOOTH",
"83 49 OFFCURVE",
"134 -10 OFFCURVE",
"232 -10 CURVE SMOOTH"
);
},
{
closed = 1;
nodes = (
"105 401 OFFCURVE",
"92 424 OFFCURVE",
"92 457 CURVE SMOOTH",
"92 491 OFFCURVE",
"105 514 OFFCURVE",
"131 514 CURVE SMOOTH",
"157 514 OFFCURVE",
"170 491 OFFCURVE",
"170 457 CURVE SMOOTH",
"170 423 OFFCURVE",
"157 401 OFFCURVE",
"131 401 CURVE SMOOTH"
);
}
);
userData = {
com.schriftgestaltung.Glyphs.glyph.rightMetricsKey = "boBaimai-thai";
};
width = 443;
}
);
leftKerningGroup = "khoKhai-thai";
note = "\012uni0E02\012";
unicode = 0E02;
},
{
glyphname = "khoKhuat-thai";
lastChange = "2020-11-14 09:21:50 +0000";
layers = (
{
anchors = (
{
name = bottom;
position = "{311, 0}";
},
{
name = bottomright;
position = "{505, 0}";
},
{
name = top;
position = "{311, 553}";
},
{
name = topright;
position = "{510, 553}";
}
);
hints = (
{
horizontal = 1;
origin = "{0, 49}";
target = "{0, 8}";
type = Stem;
},
{
horizontal = 1;
origin = "{0, 19}";
target = down;
type = TopGhost;
},
{
origin = "{0, 5}";
target = "{0, 2}";
type = Stem;
},
{
horizontal = 1;
origin = "{1, 5}";
target = "{0, 29}";
type = Stem;
}
);
layerId = "59720D05-F04C-4F19-83A4-486FF5963186";
paths = (
{
closed = 1;
nodes = (
"443 -10 OFFCURVE",
"510 61 OFFCURVE",
"510 163 CURVE SMOOTH",
"510 553 LINE",
"424 553 LINE",
"424 170 LINE SMOOTH",
"424 115 OFFCURVE",
"394 62 OFFCURVE",
"311 62 CURVE SMOOTH",
"228 62 OFFCURVE",
"198 115 OFFCURVE",
"198 170 CURVE SMOOTH",
"198 193 LINE SMOOTH",
"198 306 OFFCURVE",
"322 330 OFFCURVE",
"322 458 CURVE SMOOTH",
"322 493 OFFCURVE",
"318 520 OFFCURVE",
"311 553 CURVE",
"263 553 LINE",
"263 502 OFFCURVE",
"245 448 OFFCURVE",
"201 448 CURVE",
"225 426 LINE",
"232 438 OFFCURVE",
"235 451 OFFCURVE",
"235 466 CURVE SMOOTH",
"235 515 OFFCURVE",
"204 560 OFFCURVE",
"140 560 CURVE SMOOTH",
"80 560 OFFCURVE",
"42 519 OFFCURVE",
"42 466 CURVE SMOOTH",
"42 408 OFFCURVE",
"83 370 OFFCURVE",
"144 370 CURVE SMOOTH",
"210 370 OFFCURVE",
"282 423 OFFCURVE",
"282 477 CURVE",
"256 477 LINE",
"258 468 OFFCURVE",
"259 461 OFFCURVE",
"259 451 CURVE SMOOTH",
"259 366 OFFCURVE",
"112 334 OFFCURVE",
"112 196 CURVE SMOOTH",
"112 162 LINE SMOOTH",
"112 60 OFFCURVE",
"179 -10 OFFCURVE",
"311 -10 CURVE SMOOTH"
);
},
{
closed = 1;
nodes = (
"111 423 OFFCURVE",
"92 439 OFFCURVE",
"92 468 CURVE SMOOTH",
"92 498 OFFCURVE",
"111 514 OFFCURVE",
"138 514 CURVE SMOOTH",
"165 514 OFFCURVE",
"184 498 OFFCURVE",
"184 468 CURVE SMOOTH",
"184 438 OFFCURVE",
"165 423 OFFCURVE",
"138 423 CURVE SMOOTH"
);
}
);
userData = {
com.schriftgestaltung.Glyphs.glyph.leftMetricsKey = "soSo-thai";
com.schriftgestaltung.Glyphs.glyph.rightMetricsKey = "boBaimai-thai";
};
width = 595;
},
{
anchors = (
{
name = bottom;
position = "{356, 0}";
},
{
name = bottomright;
position = "{605, 0}";
},
{
name = top;
position = "{356, 563}";
},
{
name = topright;
position = "{610, 563}";
}
);
layerId = "EB3A5D6C-8260-43A6-9EF2-63971FC08D48";
paths = (
{
closed = 1;
nodes = (
"520 -15 OFFCURVE",
"610 55 OFFCURVE",
"610 185 CURVE SMOOTH",
"610 563 LINE",
"424 563 LINE",
"424 207 LINE SMOOTH",
"424 152 OFFCURVE",
"407 124 OFFCURVE",
"356 124 CURVE SMOOTH",
"310 124 OFFCURVE",
"288 153 OFFCURVE",
"288 191 CURVE SMOOTH",
"288 218 LINE SMOOTH",
"288 301 OFFCURVE",
"367 336 OFFCURVE",
"367 449 CURVE SMOOTH",
"367 488 OFFCURVE",
"364 525 OFFCURVE",
"357 563 CURVE",
"265 563 LINE",
"265 516 OFFCURVE",
"253 475 OFFCURVE",
"221 475 CURVE",
"239 446 LINE",
"244 454 OFFCURVE",
"247 463 OFFCURVE",
"247 473 CURVE SMOOTH",
"247 526 OFFCURVE",
"207 573 OFFCURVE",
"137 573 CURVE SMOOTH",
"67 573 OFFCURVE",
"24 527 OFFCURVE",
"24 470 CURVE SMOOTH",
"24 397 OFFCURVE",
"78 357 OFFCURVE",
"148 357 CURVE SMOOTH",
"209 357 OFFCURVE",
"245 405 OFFCURVE",
"245 442 CURVE",
"216 442 LINE",
"218 437 OFFCURVE",
"218 429 OFFCURVE",
"218 423 CURVE SMOOTH",
"218 372 OFFCURVE",
"102 341 OFFCURVE",
"102 210 CURVE SMOOTH",
"102 175 LINE SMOOTH",
"102 48 OFFCURVE",
"200 -15 OFFCURVE",
"356 -15 CURVE SMOOTH"
);
},
{
closed = 1;
nodes = (
"112 426 OFFCURVE",
"92 442 OFFCURVE",
"92 470 CURVE SMOOTH",
"92 498 OFFCURVE",
"112 514 OFFCURVE",
"138 514 CURVE SMOOTH",
"164 514 OFFCURVE",
"184 498 OFFCURVE",
"184 470 CURVE SMOOTH",
"184 441 OFFCURVE",
"164 426 OFFCURVE",
"138 426 CURVE SMOOTH"
);
}
);
userData = {
com.schriftgestaltung.Glyphs.glyph.leftMetricsKey = "soSo-thai";
com.schriftgestaltung.Glyphs.glyph.rightMetricsKey = "boBaimai-thai";
};
width = 677;
},
{
anchors = (
{
name = bottom;
position = "{287, 0}";
},
{
name = bottomright;
position = "{490, 0}";
},
{
name = top;
position = "{287, 561}";
},
{
name = topright;
position = "{495, 561}";
}
);
layerId = "C987F20E-C470-4905-85F8-C37EA20127D7";
paths = (
{
closed = 1;
nodes = (
"419 -15 OFFCURVE",
"495 51 OFFCURVE",
"495 181 CURVE SMOOTH",
"495 561 LINE",
"339 561 LINE",
"339 202 LINE SMOOTH",
"339 152 OFFCURVE",
"329 123 OFFCURVE",
"285 123 CURVE SMOOTH",
"247 123 OFFCURVE",
"234 148 OFFCURVE",
"234 185 CURVE SMOOTH",
"234 217 LINE SMOOTH",
"234 300 OFFCURVE",
"304 335 OFFCURVE",
"304 447 CURVE SMOOTH",
"304 486 OFFCURVE",
"301 523 OFFCURVE",
"295 561 CURVE",
"207 561 LINE",
"207 519 OFFCURVE",
"206 477 OFFCURVE",
"173 477 CURVE",
"193 448 LINE",
"196 456 OFFCURVE",
"197 463 OFFCURVE",
"197 471 CURVE SMOOTH",
"197 526 OFFCURVE",
"161 571 OFFCURVE",
"104 571 CURVE SMOOTH",
"47 571 OFFCURVE",
"9 529 OFFCURVE",
"9 467 CURVE SMOOTH",
"9 400 OFFCURVE",
"54 364 OFFCURVE",
"111 364 CURVE SMOOTH",
"156 364 OFFCURVE",
"189 406 OFFCURVE",
"189 440 CURVE",
"171 440 LINE",
"172 435 OFFCURVE",
"173 427 OFFCURVE",
"173 421 CURVE SMOOTH",
"173 371 OFFCURVE",
"78 340 OFFCURVE",
"78 209 CURVE SMOOTH",
"78 171 LINE SMOOTH",
"78 44 OFFCURVE",
"157 -15 OFFCURVE",
"285 -15 CURVE SMOOTH"
);
},
{
closed = 1;
nodes = (
"84 425 OFFCURVE",
"70 440 OFFCURVE",
"70 467 CURVE SMOOTH",
"70 495 OFFCURVE",
"84 510 OFFCURVE",
"105 510 CURVE SMOOTH",
"126 510 OFFCURVE",
"140 495 OFFCURVE",
"140 467 CURVE SMOOTH",
"140 439 OFFCURVE",
"126 425 OFFCURVE",
"105 425 CURVE SMOOTH"
);
}
);
userData = {
com.schriftgestaltung.Glyphs.glyph.leftMetricsKey = "soSo-thai";
com.schriftgestaltung.Glyphs.glyph.rightMetricsKey = "boBaimai-thai";
};
width = 547;
},
{
anchors = (
{
name = bottom;
position = "{291, 0}";
},
{
name = bottomright;
position = "{458, 0}";
},
{
name = top;
position = "{291, 550}";
},
{
name = topright;
position = "{463, 550}";
}
);
layerId = "90A34054-68E4-499D-AE50-276C7B026D8B";
paths = (
{
closed = 1;
nodes = (
"400 -8 OFFCURVE",
"463 49 OFFCURVE",
"463 150 CURVE SMOOTH",
"463 550 LINE",
"438 550 LINE",
"438 155 LINE SMOOTH",
"438 58 OFFCURVE",
"379 15 OFFCURVE",
"292 15 CURVE SMOOTH",
"185 15 OFFCURVE",
"143 82 OFFCURVE",
"143 155 CURVE SMOOTH",
"143 206 LINE SMOOTH",
"143 346 OFFCURVE",
"279 340 OFFCURVE",
"279 464 CURVE SMOOTH",
"279 495 OFFCURVE",
"274 522 OFFCURVE",
"269 550 CURVE",
"252 550 LINE",
"252 493 OFFCURVE",
"215 431 OFFCURVE",
"170 431 CURVE",
"176 413 LINE",
"198 428 OFFCURVE",
"209 446 OFFCURVE",
"209 477 CURVE SMOOTH",
"209 521 OFFCURVE",
"178 555 OFFCURVE",
"130 555 CURVE SMOOTH",
"77 555 OFFCURVE",
"47 522 OFFCURVE",
"47 476 CURVE SMOOTH",
"47 428 OFFCURVE",
"83 397 OFFCURVE",
"135 397 CURVE SMOOTH",
"196 397 OFFCURVE",
"258 449 OFFCURVE",
"258 493 CURVE",
"253 493 LINE",
"255 481 OFFCURVE",
"255 472 OFFCURVE",
"255 461 CURVE SMOOTH",
"255 360 OFFCURVE",
"118 352 OFFCURVE",
"118 212 CURVE SMOOTH",
"118 149 LINE SMOOTH",
"118 68 OFFCURVE",
"170 -8 OFFCURVE",
"292 -8 CURVE SMOOTH"
);
},
{
closed = 1;
nodes = (
"94 421 OFFCURVE",
"72 444 OFFCURVE",
"72 476 CURVE SMOOTH",
"72 509 OFFCURVE",
"94 532 OFFCURVE",
"128 532 CURVE SMOOTH",
"164 532 OFFCURVE",
"184 508 OFFCURVE",
"184 476 CURVE SMOOTH",
"184 442 OFFCURVE",
"160 421 OFFCURVE",
"128 421 CURVE SMOOTH"
);
}
);
width = 553;
},
{
anchors = (
{
name = bottom;
position = "{209, 0}";
},
{
name = bottomright;
position = "{328, 0}";
},
{
name = top;
position = "{209, 548}";
},
{
name = topright;
position = "{333, 548}";
}
);
layerId = "31946225-6F4F-4A3A-A9E3-76FE8DE38A50";
paths = (
{
closed = 1;
nodes = (
"288 -8 OFFCURVE",
"333 39 OFFCURVE",
"333 140 CURVE SMOOTH",
"333 548 LINE",
"309 548 LINE",
"309 145 LINE SMOOTH",
"309 58 OFFCURVE",
"280 15 OFFCURVE",
"209 15 CURVE SMOOTH",
"133 15 OFFCURVE",
"108 72 OFFCURVE",
"108 145 CURVE SMOOTH",
"108 215 LINE SMOOTH",
"108 355 OFFCURVE",
"205 340 OFFCURVE",
"205 462 CURVE SMOOTH",
"205 491 OFFCURVE",
"200 523 OFFCURVE",
"196 548 CURVE",
"180 548 LINE",
"180 491 OFFCURVE",
"159 431 OFFCURVE",
"122 431 CURVE",
"131 418 LINE",
"145 431 OFFCURVE",
"149 452 OFFCURVE",
"149 475 CURVE SMOOTH",
"149 519 OFFCURVE",
"127 553 OFFCURVE",
"92 553 CURVE SMOOTH",
"53 553 OFFCURVE",
"33 520 OFFCURVE",
"33 474 CURVE SMOOTH",
"33 426 OFFCURVE",
"58 397 OFFCURVE",
"95 397 CURVE SMOOTH",
"141 397 OFFCURVE",
"188 442 OFFCURVE",
"188 495 CURVE",
"181 495 LINE",
"183 484 OFFCURVE",
"184 475 OFFCURVE",
"184 462 CURVE SMOOTH",
"184 360 OFFCURVE",
"84 361 OFFCURVE",
"84 221 CURVE SMOOTH",
"84 139 LINE SMOOTH",
"84 58 OFFCURVE",
"121 -8 OFFCURVE",
"209 -8 CURVE SMOOTH"
);
},
{
closed = 1;
nodes = (
"66 417 OFFCURVE",
"55 443 OFFCURVE",
"55 474 CURVE SMOOTH",
"55 507 OFFCURVE",
"66 532 OFFCURVE",
"90 532 CURVE SMOOTH",
"116 532 OFFCURVE",
"127 507 OFFCURVE",
"127 474 CURVE SMOOTH",
"127 441 OFFCURVE",
"114 417 OFFCURVE",
"90 417 CURVE SMOOTH"
);
}
);
width = 409;
},
{
anchors = (
{
name = bottom;
position = "{234, 0}";
},
{
name = bottomright;
position = "{379, 0}";
},
{
name = top;
position = "{234, 551}";
},
{
name = topright;
position = "{384, 551}";
}
);
layerId = "9F3C76A5-8ED6-4D1B-8CC9-A050DF474D58";
paths = (
{
closed = 1;
nodes = (
"334 -10 OFFCURVE",
"384 54 OFFCURVE",
"384 156 CURVE SMOOTH",
"384 551 LINE",
"308 551 LINE",
"308 163 LINE SMOOTH",
"308 115 OFFCURVE",
"298 61 OFFCURVE",
"235 61 CURVE SMOOTH",
"178 61 OFFCURVE",
"159 103 OFFCURVE",
"159 162 CURVE SMOOTH",
"159 199 LINE SMOOTH",
"159 312 OFFCURVE",
"252 329 OFFCURVE",
"252 456 CURVE SMOOTH",
"252 491 OFFCURVE",
"249 518 OFFCURVE",
"244 551 CURVE",
"197 551 LINE",
"197 499 OFFCURVE",
"187 451 OFFCURVE",
"159 451 CURVE",
"172 425 LINE",
"177 437 OFFCURVE",
"179 449 OFFCURVE",
"179 464 CURVE SMOOTH",
"179 513 OFFCURVE",
"156 558 OFFCURVE",
"104 558 CURVE SMOOTH",
"55 558 OFFCURVE",
"26 517 OFFCURVE",
"26 464 CURVE SMOOTH",
"26 407 OFFCURVE",
"58 369 OFFCURVE",
"107 369 CURVE SMOOTH",
"166 369 OFFCURVE",
"211 425 OFFCURVE",
"211 472 CURVE",
"192 472 LINE",
"193 465 OFFCURVE",
"194 457 OFFCURVE",
"194 449 CURVE SMOOTH",
"194 365 OFFCURVE",
"83 340 OFFCURVE",
"83 202 CURVE SMOOTH",
"83 154 LINE SMOOTH",
"83 53 OFFCURVE",
"136 -10 OFFCURVE",
"235 -10 CURVE SMOOTH"
);
},
{
closed = 1;
nodes = (
"80 412 OFFCURVE",
"71 438 OFFCURVE",
"71 466 CURVE SMOOTH",
"71 496 OFFCURVE",
"80 516 OFFCURVE",
"103 516 CURVE SMOOTH",
"126 516 OFFCURVE",
"134 496 OFFCURVE",
"134 466 CURVE SMOOTH",
"134 437 OFFCURVE",
"126 412 OFFCURVE",
"103 412 CURVE SMOOTH"
);
}
);
userData = {
com.schriftgestaltung.Glyphs.glyph.leftMetricsKey = "soSo-thai";
com.schriftgestaltung.Glyphs.glyph.rightMetricsKey = "boBaimai-thai";
};
width = 447;
}
);
leftKerningGroup = "khoKhai-thai";
rightMetricsKey = "khoKhai-thai";
unicode = 0E03;
},
{
glyphname = "khoKhwai-thai";
lastChange = "2020-11-15 17:57:34 +0000";
layers = (
{
anchors = (
{
name = bottom;
position = "{323, 0}";
},
{
name = bottomright;
position = "{553, 0}";
},
{
name = top;
position = "{309, 553}";
},
{
name = topright;
position = "{548, 553}";
}
);
hints = (
{
horizontal = 1;
origin = "{0, 6}";
target = up;
type = BottomGhost;
},
{
horizontal = 1;
origin = "{0, 43}";
target = "{0, 34}";
type = Stem;
},
{
origin = "{0, 38}";
target = "{0, 39}";
type = Stem;
}
);
layerId = "59720D05-F04C-4F19-83A4-486FF5963186";
paths = (
{
closed = 1;
nodes = (
"156 563 OFFCURVE",
"65 486 OFFCURVE",
"65 341 CURVE SMOOTH",
"65 227 OFFCURVE",
"92 179 OFFCURVE",
"92 81 CURVE SMOOTH",
"92 0 LINE",
"178 0 LINE",
"178 65 LINE SMOOTH",
"178 164 OFFCURVE",
"212 234 OFFCURVE",
"244 241 CURVE",
"238 304 LINE",
"224 292 OFFCURVE",
"218 279 OFFCURVE",
"218 260 CURVE SMOOTH",
"218 194 OFFCURVE",
"268 161 OFFCURVE",
"318 161 CURVE SMOOTH",
"380 161 OFFCURVE",
"420 198 OFFCURVE",
"420 259 CURVE SMOOTH",
"420 321 OFFCURVE",
"379 359 OFFCURVE",
"312 359 CURVE SMOOTH",
"223 359 OFFCURVE",
"144 253 OFFCURVE",
"144 148 CURVE",
"166 148 LINE",
"166 220 OFFCURVE",
"151 242 OFFCURVE",
"151 336 CURVE SMOOTH",
"151 437 OFFCURVE",
"212 491 OFFCURVE",
"314 491 CURVE SMOOTH",
"404 491 OFFCURVE",
"467 448 OFFCURVE",
"467 359 CURVE SMOOTH",
"467 0 LINE",
"553 0 LINE",
"553 368 LINE SMOOTH",
"553 501 OFFCURVE",
"447 563 OFFCURVE",
"313 563 CURVE SMOOTH"
);
},
{
closed = 1;
nodes = (
"349 311 OFFCURVE",
"366 289 OFFCURVE",
"366 260 CURVE SMOOTH",
"366 231 OFFCURVE",
"349 209 OFFCURVE",
"317 209 CURVE SMOOTH",
"285 209 OFFCURVE",
"268 230 OFFCURVE",
"268 260 CURVE SMOOTH",
"268 289 OFFCURVE",
"285 311 OFFCURVE",
"317 311 CURVE SMOOTH"
);
},
{
closed = 1;
nodes = (
"151 223 LINE",
"168 223 LINE",
"168 232 LINE",
"151 232 LINE"
);
}
);
width = 639;
},
{
anchors = (
{
name = bottom;
position = "{357, 0}";
},
{
name = bottomright;
position = "{628, 0}";
},
{
name = top;
position = "{338, 563}";
},
{
name = topright;
position = "{623, 563}";
}
);
layerId = "EB3A5D6C-8260-43A6-9EF2-63971FC08D48";
paths = (
{
closed = 1;
nodes = (
"162 578 OFFCURVE",
"47 498 OFFCURVE",
"47 355 CURVE SMOOTH",
"47 231 OFFCURVE",
"84 179 OFFCURVE",
"84 71 CURVE SMOOTH",
"84 0 LINE",
"270 0 LINE",
"270 108 LINE SMOOTH",
"270 148 OFFCURVE",
"274 188 OFFCURVE",
"300 195 CURVE",
"275 314 LINE",
"255 302 OFFCURVE",
"243 276 OFFCURVE",
"243 252 CURVE SMOOTH",
"243 182 OFFCURVE",
"294 149 OFFCURVE",
"346 149 CURVE SMOOTH",
"407 149 OFFCURVE",
"454 187 OFFCURVE",
"454 252 CURVE SMOOTH",
"454 318 OFFCURVE",
"404 355 OFFCURVE",
"346 355 CURVE SMOOTH",
"266 355 OFFCURVE",
"210 284 OFFCURVE",
"210 140 CURVE",
"258 140 LINE",
"258 212 OFFCURVE",
"233 239 OFFCURVE",
"233 333 CURVE SMOOTH",
"233 395 OFFCURVE",
"268 436 OFFCURVE",
"336 436 CURVE SMOOTH",
"409 436 OFFCURVE",
"443 393 OFFCURVE",
"443 334 CURVE SMOOTH",
"443 0 LINE",
"628 0 LINE",
"628 369 LINE SMOOTH",
"628 502 OFFCURVE",
"507 578 OFFCURVE",
"340 578 CURVE SMOOTH"
);
},
{
closed = 1;
nodes = (
"373 296 OFFCURVE",
"389 279 OFFCURVE",
"389 252 CURVE SMOOTH",
"389 225 OFFCURVE",
"373 208 OFFCURVE",
"346 208 CURVE SMOOTH",
"319 208 OFFCURVE",
"303 224 OFFCURVE",
"303 252 CURVE SMOOTH",
"303 279 OFFCURVE",
"319 296 OFFCURVE",
"346 296 CURVE SMOOTH"
);
},
{
closed = 1;
nodes = (
"230 274 LINE",
"243 274 LINE",
"243 282 LINE",
"230 282 LINE"
);
}
);
width = 694;
},
{
anchors = (
{
name = bottom;
position = "{286, 0}";
},
{
name = bottomright;
position = "{509, 0}";
},
{
name = top;
position = "{271, 561}";
},
{
name = topright;
position = "{504, 561}";
}
);
layerId = "C987F20E-C470-4905-85F8-C37EA20127D7";
paths = (
{
closed = 1;
nodes = (
"127 576 OFFCURVE",
"32 504 OFFCURVE",
"32 354 CURVE SMOOTH",
"32 230 OFFCURVE",
"63 178 OFFCURVE",
"63 71 CURVE SMOOTH",
"63 0 LINE",
"219 0 LINE",
"219 108 LINE SMOOTH",
"219 147 OFFCURVE",
"224 167 OFFCURVE",
"244 194 CURVE",
"209 299 LINE",
"199 287 OFFCURVE",
"193 269 OFFCURVE",
"193 251 CURVE SMOOTH",
"193 189 OFFCURVE",
"226 155 OFFCURVE",
"275 155 CURVE SMOOTH",
"327 155 OFFCURVE",
"364 187 OFFCURVE",
"364 251 CURVE SMOOTH",
"364 316 OFFCURVE",
"325 347 OFFCURVE",
"275 347 CURVE SMOOTH",
"208 347 OFFCURVE",
"160 279 OFFCURVE",
"160 139 CURVE",
"205 139 LINE",
"205 211 OFFCURVE",
"188 240 OFFCURVE",
"188 334 CURVE SMOOTH",
"188 403 OFFCURVE",
"213 437 OFFCURVE",
"269 437 CURVE SMOOTH",
"333 437 OFFCURVE",
"353 393 OFFCURVE",
"353 333 CURVE SMOOTH",
"353 0 LINE",
"509 0 LINE",
"509 368 LINE SMOOTH",
"509 508 OFFCURVE",
"409 576 OFFCURVE",
"272 576 CURVE SMOOTH"
);
},
{
closed = 1;
nodes = (
"297 294 OFFCURVE",
"309 277 OFFCURVE",
"309 251 CURVE SMOOTH",
"309 225 OFFCURVE",
"297 208 OFFCURVE",
"275 208 CURVE SMOOTH",
"253 208 OFFCURVE",
"241 224 OFFCURVE",
"241 251 CURVE SMOOTH",
"241 277 OFFCURVE",
"253 294 OFFCURVE",
"275 294 CURVE SMOOTH"
);
},
{
closed = 1;
nodes = (
"185 285 LINE",
"198 285 LINE",
"198 293 LINE",
"185 293 LINE"
);
}
);
width = 561;
},
{
anchors = (
{
name = bottom;
position = "{295, 0}";
},
{
name = bottomright;
position = "{494, 0}";
},
{
name = top;
position = "{282, 550}";
},
{
name = topright;
position = "{489, 550}";
}
);
layerId = "90A34054-68E4-499D-AE50-276C7B026D8B";
paths = (
{
closed = 1;
nodes = (
"133 558 OFFCURVE",
"70 476 OFFCURVE",
"70 348 CURVE SMOOTH",
"70 240 OFFCURVE",
"96 219 OFFCURVE",
"96 121 CURVE SMOOTH",
"96 0 LINE",
"121 0 LINE",
"121 117 LINE SMOOTH",
"121 219 OFFCURVE",
"200 304 OFFCURVE",
"234 311 CURVE",
"234 326 LINE",
"217 312 OFFCURVE",
"211 289 OFFCURVE",
"211 270 CURVE SMOOTH",
"211 218 OFFCURVE",
"246 189 OFFCURVE",
"293 189 CURVE SMOOTH",
"342 189 OFFCURVE",
"372 225 OFFCURVE",
"372 271 CURVE SMOOTH",
"372 322 OFFCURVE",
"337 353 OFFCURVE",
"288 353 CURVE SMOOTH",
"202 353 OFFCURVE",
"108 245 OFFCURVE",
"108 158 CURVE",
"114 158 LINE",
"114 230 OFFCURVE",
"95 255 OFFCURVE",
"95 343 CURVE SMOOTH",
"95 466 OFFCURVE",
"159 535 OFFCURVE",
"287 535 CURVE SMOOTH",
"401 535 OFFCURVE",
"469 475 OFFCURVE",
"469 361 CURVE SMOOTH",
"469 0 LINE",
"494 0 LINE",
"494 366 LINE SMOOTH",
"494 487 OFFCURVE",
"418 558 OFFCURVE",
"287 558 CURVE SMOOTH"
);
},
{
closed = 1;
nodes = (
"323 330 OFFCURVE",
"348 307 OFFCURVE",
"348 271 CURVE SMOOTH",
"348 235 OFFCURVE",
"323 212 OFFCURVE",
"292 212 CURVE SMOOTH",
"260 212 OFFCURVE",
"235 234 OFFCURVE",
"235 271 CURVE SMOOTH",
"235 310 OFFCURVE",
"260 330 OFFCURVE",
"292 330 CURVE SMOOTH"
);
},
{
closed = 1;
nodes = (
"106 188 LINE",
"119 188 LINE",
"119 196 LINE",
"106 196 LINE"
);
}
);
width = 584;
},
{
anchors = (
{
name = bottom;
position = "{219, 0}";
},
{
name = bottomright;
position = "{362, 0}";
},
{
name = top;
position = "{209, 548}";
},
{
name = topright;
position = "{357, 548}";
}
);
layerId = "31946225-6F4F-4A3A-A9E3-76FE8DE38A50";
paths = (
{
closed = 1;
nodes = (
"102 556 OFFCURVE",
"56 484 OFFCURVE",
"56 347 CURVE SMOOTH",
"56 239 OFFCURVE",
"75 218 OFFCURVE",
"75 121 CURVE SMOOTH",
"75 0 LINE",
"99 0 LINE",
"99 117 LINE SMOOTH",
"99 208 OFFCURVE",
"145 289 OFFCURVE",
"170 302 CURVE",
"167 310 LINE",
"161 300 OFFCURVE",
"158 285 OFFCURVE",
"158 269 CURVE SMOOTH",
"158 218 OFFCURVE",
"184 188 OFFCURVE",
"218 188 CURVE SMOOTH",
"254 188 OFFCURVE",
"277 225 OFFCURVE",
"277 270 CURVE SMOOTH",
"277 320 OFFCURVE",
"252 352 OFFCURVE",
"216 352 CURVE SMOOTH",
"155 352 OFFCURVE",
"88 251 OFFCURVE",
"88 157 CURVE",
"94 157 LINE",
"94 229 OFFCURVE",
"80 254 OFFCURVE",
"80 342 CURVE SMOOTH",
"80 474 OFFCURVE",
"121 533 OFFCURVE",
"213 533 CURVE SMOOTH",
"305 533 OFFCURVE",
"338 468 OFFCURVE",
"338 360 CURVE SMOOTH",
"338 0 LINE",
"362 0 LINE",
"362 365 LINE SMOOTH",
"362 495 OFFCURVE",
"308 556 OFFCURVE",
"213 556 CURVE SMOOTH"
);
},
{
closed = 1;
nodes = (
"240 331 OFFCURVE",
"255 305 OFFCURVE",
"255 270 CURVE SMOOTH",
"255 235 OFFCURVE",
"241 209 OFFCURVE",
"218 209 CURVE SMOOTH",
"195 209 OFFCURVE",
"180 234 OFFCURVE",
"180 270 CURVE SMOOTH",
"180 308 OFFCURVE",
"194 331 OFFCURVE",
"217 331 CURVE SMOOTH"
);
},
{
closed = 1;
nodes = (
"85 196 LINE",
"98 196 LINE",
"98 204 LINE",
"85 204 LINE"
);
}
);
width = 438;
},
{
anchors = (
{
name = bottom;
position = "{238, 0}";
},
{
name = bottomright;
position = "{411, 0}";
},
{
name = top;
position = "{227, 551}";
},
{
name = topright;
position = "{406, 551}";
}
);
layerId = "9F3C76A5-8ED6-4D1B-8CC9-A050DF474D58";
paths = (
{
closed = 1;
nodes = (
"115 561 OFFCURVE",
"43 494 OFFCURVE",
"43 350 CURVE SMOOTH",
"43 236 OFFCURVE",
"65 178 OFFCURVE",
"65 81 CURVE SMOOTH",
"65 0 LINE",
"141 0 LINE",
"141 65 LINE SMOOTH",
"141 147 OFFCURVE",
"141 209 OFFCURVE",
"173 229 CURVE",
"169 303 LINE",
"160 290 OFFCURVE",
"156 272 OFFCURVE",
"156 259 CURVE SMOOTH",
"156 194 OFFCURVE",
"195 160 OFFCURVE",
"233 160 CURVE SMOOTH",
"279 160 OFFCURVE",
"311 199 OFFCURVE",
"311 259 CURVE SMOOTH",
"311 320 OFFCURVE",
"279 358 OFFCURVE",
"231 358 CURVE SMOOTH",
"160 358 OFFCURVE",
"102 261 OFFCURVE",
"102 147 CURVE",
"130 147 LINE",
"130 219 OFFCURVE",
"119 251 OFFCURVE",
"119 345 CURVE SMOOTH",
"119 445 OFFCURVE",
"157 490 OFFCURVE",
"233 490 CURVE SMOOTH",
"293 490 OFFCURVE",
"335 455 OFFCURVE",
"335 360 CURVE SMOOTH",
"335 0 LINE",
"411 0 LINE",
"411 369 LINE SMOOTH",
"411 508 OFFCURVE",
"326 561 OFFCURVE",
"233 561 CURVE SMOOTH"
);
},
{
closed = 1;
nodes = (
"255 314 OFFCURVE",
"265 289 OFFCURVE",
"265 259 CURVE SMOOTH",
"265 229 OFFCURVE",
"255 204 OFFCURVE",
"232 204 CURVE SMOOTH",
"209 204 OFFCURVE",
"199 228 OFFCURVE",
"199 259 CURVE SMOOTH",
"199 289 OFFCURVE",
"209 314 OFFCURVE",
"232 314 CURVE SMOOTH"
);
},
{
closed = 1;
nodes = (
"117 255 LINE",
"130 255 LINE",
"130 263 LINE",
"117 263 LINE"
);
}
);
width = 479;
}
);
leftKerningGroup = "khoKhwai-thai";
note = "\012uni0E04\012";
rightKerningGroup = "koKai-thai";
rightMetricsKey = "koKai-thai";
unicode = 0E04;
},
{
glyphname = "khoKhon-thai";
lastChange = "2020-11-15 17:35:31 +0000";
layers = (
{
anchors = (
{
name = bottom;
position = "{323, 0}";
},
{
name = bottomright;
position = "{558, 0}";
},
{
name = top;
position = "{307, 553}";
},
{
name = topright;
position = "{553, 553}";
}
);
hints = (
{
horizontal = 1;
origin = "{0, 48}";
target = up;
type = BottomGhost;
},
{
horizontal = 1;
origin = "{0, 41}";
target = "{0, 27}";
type = Stem;
},
{
origin = "{0, 33}";
target = "{0, 35}";
type = Stem;
}
);
layerId = "59720D05-F04C-4F19-83A4-486FF5963186";
paths = (
{
closed = 1;
nodes = (
"174 0 LINE",
"174 66 LINE SMOOTH",
"174 163 OFFCURVE",
"208 234 OFFCURVE",
"239 241 CURVE",
"230 306 LINE",
"221 291 OFFCURVE",
"218 273 OFFCURVE",
"218 260 CURVE SMOOTH",
"218 194 OFFCURVE",
"268 161 OFFCURVE",
"318 161 CURVE SMOOTH",
"380 161 OFFCURVE",
"420 198 OFFCURVE",
"420 259 CURVE SMOOTH",
"420 321 OFFCURVE",
"379 359 OFFCURVE",
"312 359 CURVE SMOOTH",
"223 359 OFFCURVE",
"145 259 OFFCURVE",
"145 148 CURVE",
"159 148 LINE",
"159 220 OFFCURVE",
"142 250 OFFCURVE",
"142 331 CURVE SMOOTH",
"142 428 OFFCURVE",
"182 486 OFFCURVE",
"223 490 CURVE",
"312 422 LINE",
"318 422 LINE",
"407 490 LINE",
"451 486 OFFCURVE",
"472 449 OFFCURVE",
"472 394 CURVE SMOOTH",
"473 0 LINE",
"558 0 LINE",
"558 386 LINE SMOOTH",
"558 499 OFFCURVE",
"504 560 OFFCURVE",
"393 563 CURVE",
"315 501 LINE",
"237 563 LINE",
"114 560 OFFCURVE",
"56 463 OFFCURVE",
"56 345 CURVE SMOOTH",
"56 244 OFFCURVE",
"88 179 OFFCURVE",
"88 81 CURVE SMOOTH",
"88 0 LINE"
);
},
{
closed = 1;
nodes = (
"285 209 OFFCURVE",
"268 230 OFFCURVE",
"268 260 CURVE SMOOTH",
"268 289 OFFCURVE",
"285 311 OFFCURVE",
"317 311 CURVE SMOOTH",
"349 311 OFFCURVE",
"366 289 OFFCURVE",
"366 260 CURVE SMOOTH",
"366 231 OFFCURVE",
"349 209 OFFCURVE",
"317 209 CURVE SMOOTH"
);
},
{
closed = 1;
nodes = (
"148 210 LINE",
"161 210 LINE",
"161 218 LINE",
"148 218 LINE"
);
}
);
userData = {
com.schriftgestaltung.Glyphs.glyph.leftMetricsKey = "khoKhwai-thai";
com.schriftgestaltung.Glyphs.glyph.rightMetricsKey = "khoKhwai-thai";
};
width = 644;
},
{
anchors = (
{
name = bottom;
position = "{368, 0}";
},
{
name = bottomright;
position = "{647, 0}";
},
{
name = top;
position = "{349, 563}";
},
{
name = topright;
position = "{642, 563}";
}
);
layerId = "EB3A5D6C-8260-43A6-9EF2-63971FC08D48";
paths = (
{
closed = 1;
nodes = (
"274 0 LINE",
"274 92 LINE SMOOTH",
"274 132 OFFCURVE",
"287 165 OFFCURVE",
"316 188 CURVE",
"276 293 LINE",
"265 280 OFFCURVE",
"259 260 OFFCURVE",
"259 245 CURVE SMOOTH",
"259 175 OFFCURVE",
"310 142 OFFCURVE",
"362 142 CURVE SMOOTH",
"423 142 OFFCURVE",
"470 180 OFFCURVE",
"470 245 CURVE SMOOTH",
"470 311 OFFCURVE",
"420 348 OFFCURVE",
"362 348 CURVE SMOOTH",
"282 348 OFFCURVE",
"226 284 OFFCURVE",
"226 140 CURVE",
"262 140 LINE",
"262 212 OFFCURVE",
"237 234 OFFCURVE",
"237 328 CURVE SMOOTH",
"237 390 OFFCURVE",
"253 436 OFFCURVE",
"288 436 CURVE",
"352 391 LINE",
"358 391 LINE",
"420 436 LINE",
"445 436 OFFCURVE",
"461 413 OFFCURVE",
"461 381 CURVE SMOOTH",
"461 0 LINE",
"647 0 LINE",
"647 359 LINE SMOOTH",
"647 502 OFFCURVE",
"552 578 OFFCURVE",
"441 578 CURVE",
"355 516 LINE",
"270 578 LINE",
"143 578 OFFCURVE",
"51 478 OFFCURVE",
"51 355 CURVE SMOOTH",
"51 231 OFFCURVE",
"88 179 OFFCURVE",
"88 71 CURVE SMOOTH",
"88 0 LINE"
);
},
{
closed = 1;
nodes = (
"335 201 OFFCURVE",
"319 217 OFFCURVE",
"319 245 CURVE SMOOTH",
"319 272 OFFCURVE",
"335 289 OFFCURVE",
"362 289 CURVE SMOOTH",
"389 289 OFFCURVE",
"405 272 OFFCURVE",
"405 245 CURVE SMOOTH",
"405 218 OFFCURVE",
"389 201 OFFCURVE",
"362 201 CURVE SMOOTH"
);
},
{
closed = 1;
nodes = (
"238 253 LINE",
"251 253 LINE",
"251 261 LINE",
"238 261 LINE"
);
}
);
userData = {
com.schriftgestaltung.Glyphs.glyph.leftMetricsKey = "khoKhwai-thai";
com.schriftgestaltung.Glyphs.glyph.rightMetricsKey = "khoKhwai-thai";
};
width = 713;
},
{
anchors = (
{
name = bottom;
position = "{300, 0}";
},
{
name = bottomright;
position = "{528, 0}";
},
{
name = top;
position = "{285, 561}";
},
{
name = topright;
position = "{523, 561}";
}
);
layerId = "C987F20E-C470-4905-85F8-C37EA20127D7";
paths = (
{
closed = 1;
nodes = (
"226 0 LINE",
"226 92 LINE SMOOTH",
"226 131 OFFCURVE",
"237 164 OFFCURVE",
"260 187 CURVE",
"232 301 LINE",
"220 288 OFFCURVE",
"211 264 OFFCURVE",
"211 244 CURVE SMOOTH",
"211 175 OFFCURVE",
"251 148 OFFCURVE",
"295 148 CURVE SMOOTH",
"347 148 OFFCURVE",
"384 180 OFFCURVE",
"384 244 CURVE SMOOTH",
"384 309 OFFCURVE",
"345 340 OFFCURVE",
"295 340 CURVE SMOOTH",
"227 340 OFFCURVE",
"182 283 OFFCURVE",
"182 139 CURVE",
"216 139 LINE",
"216 211 OFFCURVE",
"196 233 OFFCURVE",
"196 327 CURVE SMOOTH",
"196 392 OFFCURVE",
"206 436 OFFCURVE",
"235 436 CURVE",
"287 391 LINE",
"292 391 LINE",
"343 436 LINE",
"363 436 OFFCURVE",
"373 417 OFFCURVE",
"373 382 CURVE SMOOTH",
"373 0 LINE",
"529 0 LINE",
"529 357 LINE SMOOTH",
"529 504 OFFCURVE",
"451 576 OFFCURVE",
"360 576 CURVE",
"289 514 LINE",
"220 576 LINE",
"116 576 OFFCURVE",
"40 480 OFFCURVE",
"40 354 CURVE SMOOTH",
"40 230 OFFCURVE",
"71 178 OFFCURVE",
"71 71 CURVE SMOOTH",
"71 0 LINE"
);
},
{
closed = 1;
nodes = (
"273 201 OFFCURVE",
"261 217 OFFCURVE",
"261 244 CURVE SMOOTH",
"261 270 OFFCURVE",
"273 287 OFFCURVE",
"295 287 CURVE SMOOTH",
"317 287 OFFCURVE",
"329 270 OFFCURVE",
"329 244 CURVE SMOOTH",
"329 218 OFFCURVE",
"317 201 OFFCURVE",
"295 201 CURVE SMOOTH"
);
},
{
closed = 1;
nodes = (
"193 261 LINE",
"206 261 LINE",
"206 269 LINE",
"193 269 LINE"
);
}
);
userData = {
com.schriftgestaltung.Glyphs.glyph.leftMetricsKey = "khoKhwai-thai";
com.schriftgestaltung.Glyphs.glyph.rightMetricsKey = "khoKhwai-thai";
};
width = 581;
},
{
anchors = (
{
name = bottom;
position = "{297, 0}";
},
{
name = bottomright;
position = "{501, 0}";
},
{
name = top;
position = "{281, 550}";
},
{
name = topright;
position = "{496, 550}";
}
);
layerId = "90A34054-68E4-499D-AE50-276C7B026D8B";
paths = (
{
closed = 1;
nodes = (
"118 0 LINE",
"118 117 LINE SMOOTH",
"118 211 OFFCURVE",
"181 283 OFFCURVE",
"227 310 CURVE",
"223 313 LINE",
"213 305 OFFCURVE",
"207 290 OFFCURVE",
"207 270 CURVE SMOOTH",
"207 218 OFFCURVE",
"243 189 OFFCURVE",
"289 189 CURVE SMOOTH",
"339 189 OFFCURVE",
"369 226 OFFCURVE",
"369 271 CURVE SMOOTH",
"369 322 OFFCURVE",
"334 353 OFFCURVE",
"284 353 CURVE SMOOTH",
"200 353 OFFCURVE",
"102 242 OFFCURVE",
"102 153 CURVE",
"111 153 LINE",
"111 225 OFFCURVE",
"86 258 OFFCURVE",
"86 349 CURVE SMOOTH",
"86 446 OFFCURVE",
"124 503 OFFCURVE",
"190 532 CURVE",
"285 453 LINE",
"289 453 LINE",
"385 532 LINE",
"439 521 OFFCURVE",
"476 479 OFFCURVE",
"476 389 CURVE SMOOTH",
"476 0 LINE",
"501 0 LINE",
"501 387 LINE SMOOTH",
"501 490 OFFCURVE",
"464 542 OFFCURVE",
"379 558 CURVE",
"287 481 LINE",
"195 558 LINE",
"104 529 OFFCURVE",
"61 460 OFFCURVE",
"61 354 CURVE SMOOTH",
"61 243 OFFCURVE",
"93 219 OFFCURVE",
"93 121 CURVE SMOOTH",
"93 0 LINE"
);
},
{
closed = 1;
nodes = (
"257 212 OFFCURVE",
"232 234 OFFCURVE",
"232 271 CURVE SMOOTH",
"232 310 OFFCURVE",
"256 330 OFFCURVE",
"288 330 CURVE SMOOTH",
"320 330 OFFCURVE",
"344 307 OFFCURVE",
"344 271 CURVE SMOOTH",
"344 235 OFFCURVE",
"320 212 OFFCURVE",
"288 212 CURVE SMOOTH"
);
},
{
closed = 1;
nodes = (
"102 189 LINE",
"115 189 LINE",
"115 197 LINE",
"102 197 LINE"
);
}
);
width = 591;
},
{
anchors = (
{
name = bottom;
position = "{217, 0}";
},
{
name = bottomright;
position = "{364, 0}";
},
{
name = top;
position = "{206, 548}";
},
{
name = topright;
position = "{359, 548}";
}
);
layerId = "31946225-6F4F-4A3A-A9E3-76FE8DE38A50";
paths = (
{
closed = 1;
nodes = (
"92 0 LINE",
"92 118 LINE SMOOTH",
"92 204 OFFCURVE",
"136 285 OFFCURVE",
"163 305 CURVE",
"163 315 LINE",
"156 301 OFFCURVE",
"153 284 OFFCURVE",
"153 269 CURVE SMOOTH",
"153 218 OFFCURVE",
"178 188 OFFCURVE",
"212 188 CURVE SMOOTH",
"248 188 OFFCURVE",
"269 225 OFFCURVE",
"269 270 CURVE SMOOTH",
"269 320 OFFCURVE",
"244 352 OFFCURVE",
"208 352 CURVE SMOOTH",
"149 352 OFFCURVE",
"80 249 OFFCURVE",
"80 157 CURVE",
"86 157 LINE",
"86 229 OFFCURVE",
"71 257 OFFCURVE",
"71 348 CURVE SMOOTH",
"71 449 OFFCURVE",
"94 501 OFFCURVE",
"141 529 CURVE",
"209 450 LINE",
"212 450 LINE",
"281 529 LINE",
"320 519 OFFCURVE",
"340 481 OFFCURVE",
"340 388 CURVE SMOOTH",
"341 0 LINE",
"364 0 LINE",
"364 386 LINE SMOOTH",
"364 492 OFFCURVE",
"338 540 OFFCURVE",
"277 556 CURVE",
"210 479 LINE",
"144 556 LINE",
"79 528 OFFCURVE",
"47 464 OFFCURVE",
"47 353 CURVE SMOOTH",
"47 242 OFFCURVE",
"70 218 OFFCURVE",
"70 121 CURVE SMOOTH",
"70 0 LINE"
);
},
{
closed = 1;
nodes = (
"188 209 OFFCURVE",
"175 234 OFFCURVE",
"175 270 CURVE SMOOTH",
"175 308 OFFCURVE",
"188 331 OFFCURVE",
"211 331 CURVE SMOOTH",
"234 331 OFFCURVE",
"247 305 OFFCURVE",
"247 270 CURVE SMOOTH",
"247 235 OFFCURVE",
"234 209 OFFCURVE",
"211 209 CURVE SMOOTH"
);
},
{
closed = 1;
nodes = (
"78 195 LINE",
"91 195 LINE",
"91 203 LINE",
"78 203 LINE"
);
}
);
width = 440;
},
{
anchors = (
{
name = bottom;
position = "{241, 0}";
},
{
name = bottomright;
position = "{418, 0}";
},
{
name = top;
position = "{230, 551}";
},
{
name = topright;
position = "{413, 551}";
}
);
layerId = "9F3C76A5-8ED6-4D1B-8CC9-A050DF474D58";
paths = (
{
closed = 1;
nodes = (
"139 0 LINE",
"139 65 LINE SMOOTH",
"139 136 OFFCURVE",
"139 206 OFFCURVE",
"176 229 CURVE",
"173 303 LINE",
"163 291 OFFCURVE",
"159 274 OFFCURVE",
"159 259 CURVE SMOOTH",
"159 194 OFFCURVE",
"198 160 OFFCURVE",
"236 160 CURVE SMOOTH",
"282 160 OFFCURVE",
"314 199 OFFCURVE",
"314 259 CURVE SMOOTH",
"314 320 OFFCURVE",
"282 358 OFFCURVE",
"234 358 CURVE SMOOTH",
"163 358 OFFCURVE",
"102 248 OFFCURVE",
"102 147 CURVE",
"128 147 LINE",
"128 219 OFFCURVE",
"117 245 OFFCURVE",
"117 330 CURVE SMOOTH",
"117 433 OFFCURVE",
"135 481 OFFCURVE",
"169 488 CURVE",
"233 420 LINE",
"238 420 LINE",
"303 488 LINE",
"332 484 OFFCURVE",
"342 452 OFFCURVE",
"342 395 CURVE SMOOTH",
"342 0 LINE",
"418 0 LINE",
"418 386 LINE SMOOTH",
"418 505 OFFCURVE",
"378 558 OFFCURVE",
"294 561 CURVE",
"236 497 LINE",
"177 561 LINE",
"85 558 OFFCURVE",
"41 469 OFFCURVE",
"41 344 CURVE SMOOTH",
"41 235 OFFCURVE",
"63 178 OFFCURVE",
"63 81 CURVE SMOOTH",
"63 0 LINE"
);
},
{
closed = 1;
nodes = (
"212 204 OFFCURVE",
"202 230 OFFCURVE",
"202 259 CURVE SMOOTH",
"202 287 OFFCURVE",
"212 314 OFFCURVE",
"235 314 CURVE SMOOTH",
"258 314 OFFCURVE",
"268 287 OFFCURVE",
"268 259 CURVE SMOOTH",
"268 231 OFFCURVE",
"258 204 OFFCURVE",
"235 204 CURVE SMOOTH"
);
},
{
closed = 1;
nodes = (
"115 244 LINE",
"128 244 LINE",
"128 252 LINE",
"115 252 LINE"
);
}
);
userData = {
com.schriftgestaltung.Glyphs.glyph.leftMetricsKey = "khoKhwai-thai";
com.schriftgestaltung.Glyphs.glyph.rightMetricsKey = "khoKhwai-thai";
};
width = 486;
}
);
leftKerningGroup = "khoKhwai-thai";
rightMetricsKey = "koKai-thai";
unicode = 0E05;
},
{
glyphname = "khoRakhang-thai";
lastChange = "2020-11-13 21:20:47 +0000";
layers = (
{
anchors = (
{
name = bottom;
position = "{349, 0}";
},
{
name = bottomright;
position = "{568, 0}";
},
{
name = top;
position = "{376, 553}";
},
{
name = topright;
position = "{568, 553}";
}
);
hints = (
{
horizontal = 1;
origin = "{0, 28}";
target = down;
type = TopGhost;
},
{
horizontal = 1;
origin = "{0, 9}";
target = up;
type = BottomGhost;
},
{
origin = "{0, 13}";
target = "{0, 10}";
type = Stem;
},
{
horizontal = 1;
origin = "{0, 67}";
target = "{1, 14}";
type = Stem;
},
{
horizontal = 1;
origin = "{2, 5}";
target = "{0, 38}";
type = Stem;
}
);
layerId = "59720D05-F04C-4F19-83A4-486FF5963186";
paths = (
{
closed = 1;
nodes = (
"250 -7 OFFCURVE",
"291 42 OFFCURVE",
"291 102 CURVE SMOOTH",
"291 121 OFFCURVE",
"287 138 OFFCURVE",
"285 159 CURVE",
"265 134 LINE",
"341 110 OFFCURVE",
"417 67 OFFCURVE",
"472 0 CURVE",
"568 0 LINE",
"568 553 LINE",
"482 553 LINE",
"482 51 LINE",
"499 73 LINE",
"438 138 OFFCURVE",
"334 189 OFFCURVE",
"248 209 CURVE",
"276 181 LINE",
"272 201 OFFCURVE",
"270 214 OFFCURVE",
"270 233 CURVE SMOOTH",
"270 316 OFFCURVE",
"342 330 OFFCURVE",
"342 458 CURVE SMOOTH",
"342 493 OFFCURVE",
"338 520 OFFCURVE",
"331 553 CURVE",
"283 553 LINE",
"283 502 OFFCURVE",
"265 448 OFFCURVE",
"221 448 CURVE",
"245 426 LINE",
"252 438 OFFCURVE",
"255 451 OFFCURVE",
"255 466 CURVE SMOOTH",
"255 515 OFFCURVE",
"224 560 OFFCURVE",
"160 560 CURVE SMOOTH",
"100 560 OFFCURVE",
"62 519 OFFCURVE",
"62 466 CURVE SMOOTH",
"62 408 OFFCURVE",
"103 370 OFFCURVE",
"164 370 CURVE SMOOTH",
"230 370 OFFCURVE",
"302 423 OFFCURVE",
"302 477 CURVE",
"276 477 LINE",
"278 468 OFFCURVE",
"279 461 OFFCURVE",
"279 451 CURVE SMOOTH",
"279 378 OFFCURVE",
"184 352 OFFCURVE",
"184 247 CURVE SMOOTH",
"184 229 OFFCURVE",
"186 210 OFFCURVE",
"190 194 CURVE",
"225 206 LINE",
"211 211 OFFCURVE",
"196 215 OFFCURVE",
"176 215 CURVE SMOOTH",
"108 215 OFFCURVE",
"60 173 OFFCURVE",
"60 105 CURVE SMOOTH",
"60 32 OFFCURVE",
"107 -7 OFFCURVE",
"173 -7 CURVE SMOOTH"
);
},
{
closed = 1;
nodes = (
"136 49 OFFCURVE",
"118 69 OFFCURVE",
"118 102 CURVE SMOOTH",
"118 136 OFFCURVE",
"138 159 OFFCURVE",
"173 159 CURVE SMOOTH",
"184 159 OFFCURVE",
"192 158 OFFCURVE",
"200 156 CURVE",
"203 139 OFFCURVE",
"205 124 OFFCURVE",
"205 105 CURVE SMOOTH",
"205 70 OFFCURVE",
"192 49 OFFCURVE",
"163 49 CURVE SMOOTH"
);
},
{
closed = 1;
nodes = (
"131 423 OFFCURVE",
"112 439 OFFCURVE",
"112 468 CURVE SMOOTH",
"112 498 OFFCURVE",
"131 514 OFFCURVE",
"158 514 CURVE SMOOTH",
"185 514 OFFCURVE",
"204 498 OFFCURVE",
"204 468 CURVE SMOOTH",
"204 438 OFFCURVE",
"185 423 OFFCURVE",
"158 423 CURVE SMOOTH"
);
}
);
userData = {
com.schriftgestaltung.Glyphs.glyph.rightMetricsKey = "boBaimai-thai";
};
width = 655;
},
{
anchors = (
{
name = bottom;
position = "{363, 0}";
},
{
name = bottomright;
position = "{647, 0}";
},
{
name = top;
position = "{394, 563}";
},
{
name = topright;
position = "{647, 563}";
}
);
layerId = "EB3A5D6C-8260-43A6-9EF2-63971FC08D48";
paths = (
{
closed = 1;
nodes = (
"295 -10 OFFCURVE",
"340 53 OFFCURVE",
"340 121 CURVE SMOOTH",
"340 133 OFFCURVE",
"337 148 OFFCURVE",
"336 160 CURVE",
"285 123 LINE",
"363 103 OFFCURVE",
"415 75 OFFCURVE",
"466 0 CURVE",
"647 0 LINE",
"647 563 LINE",
"461 563 LINE",
"461 100 LINE",
"501 144 LINE",
"442 213 OFFCURVE",
"367 254 OFFCURVE",
"273 263 CURVE",
"337 201 LINE",
"337 217 OFFCURVE",
"331 237 OFFCURVE",
"331 253 CURVE SMOOTH",
"331 310 OFFCURVE",
"395 360 OFFCURVE",
"395 449 CURVE SMOOTH",
"395 488 OFFCURVE",
"392 525 OFFCURVE",
"385 563 CURVE",
"293 563 LINE",
"293 516 OFFCURVE",
"281 475 OFFCURVE",
"249 475 CURVE",
"267 446 LINE",
"272 454 OFFCURVE",
"275 463 OFFCURVE",
"275 473 CURVE SMOOTH",
"275 526 OFFCURVE",
"235 573 OFFCURVE",
"165 573 CURVE SMOOTH",
"95 573 OFFCURVE",
"52 527 OFFCURVE",
"52 470 CURVE SMOOTH",
"52 397 OFFCURVE",
"106 357 OFFCURVE",
"176 357 CURVE SMOOTH",
"237 357 OFFCURVE",
"273 405 OFFCURVE",
"273 442 CURVE",
"244 442 LINE",
"246 438 OFFCURVE",
"246 429 OFFCURVE",
"246 423 CURVE SMOOTH",
"246 372 OFFCURVE",
"141 346 OFFCURVE",
"141 246 CURVE SMOOTH",
"141 232 OFFCURVE",
"142 218 OFFCURVE",
"144 204 CURVE",
"212 243 LINE",
"200 245 OFFCURVE",
"189 246 OFFCURVE",
"178 246 CURVE SMOOTH",
"92 246 OFFCURVE",
"44 187 OFFCURVE",
"44 118 CURVE SMOOTH",
"44 41 OFFCURVE",
"90 -10 OFFCURVE",
"187 -10 CURVE SMOOTH"
);
},
{
closed = 1;
nodes = (
"145 66 OFFCURVE",
"130 85 OFFCURVE",
"130 118 CURVE SMOOTH",
"130 152 OFFCURVE",
"147 169 OFFCURVE",
"175 169 CURVE SMOOTH",
"185 169 OFFCURVE",
"195 167 OFFCURVE",
"203 164 CURVE",
"206 147 OFFCURVE",
"207 135 OFFCURVE",
"207 118 CURVE SMOOTH",
"207 84 OFFCURVE",
"194 66 OFFCURVE",
"170 66 CURVE SMOOTH"
);
},
{
closed = 1;
nodes = (
"140 426 OFFCURVE",
"120 442 OFFCURVE",
"120 470 CURVE SMOOTH",
"120 498 OFFCURVE",
"140 514 OFFCURVE",
"166 514 CURVE SMOOTH",
"192 514 OFFCURVE",
"212 498 OFFCURVE",
"212 470 CURVE SMOOTH",
"212 441 OFFCURVE",
"192 426 OFFCURVE",
"166 426 CURVE SMOOTH"
);
}
);
userData = {
com.schriftgestaltung.Glyphs.glyph.rightMetricsKey = "boBaimai-thai";
};
width = 716;
},
{
anchors = (
{
name = bottom;
position = "{286, 0}";
},
{
name = bottomright;
position = "{524, 0}";
},
{
name = top;
position = "{317, 561}";
},
{
name = topright;
position = "{524, 561}";
}
);
layerId = "C987F20E-C470-4905-85F8-C37EA20127D7";
paths = (
{
closed = 1;
nodes = (
"238 -10 OFFCURVE",
"279 54 OFFCURVE",
"279 123 CURVE SMOOTH",
"279 130 OFFCURVE",
"278 139 OFFCURVE",
"277 146 CURVE",
"235 116 LINE",
"297 96 OFFCURVE",
"333 71 OFFCURVE",
"372 0 CURVE",
"524 0 LINE",
"524 561 LINE",
"368 561 LINE",
"368 108 LINE",
"403 139 LINE",
"347 206 OFFCURVE",
"298 243 OFFCURVE",
"216 251 CURVE",
"272 172 LINE",
"272 203 OFFCURVE",
"265 229 OFFCURVE",
"265 256 CURVE SMOOTH",
"265 313 OFFCURVE",
"321 359 OFFCURVE",
"321 447 CURVE SMOOTH",
"321 486 OFFCURVE",
"318 523 OFFCURVE",
"312 561 CURVE",
"222 561 LINE",
"222 519 OFFCURVE",
"221 477 OFFCURVE",
"188 477 CURVE",
"208 448 LINE",
"211 456 OFFCURVE",
"212 463 OFFCURVE",
"212 471 CURVE SMOOTH",
"212 526 OFFCURVE",
"176 571 OFFCURVE",
"119 571 CURVE SMOOTH",
"62 571 OFFCURVE",
"24 529 OFFCURVE",
"24 467 CURVE SMOOTH",
"24 400 OFFCURVE",
"69 364 OFFCURVE",
"126 364 CURVE SMOOTH",
"171 364 OFFCURVE",
"204 406 OFFCURVE",
"204 440 CURVE",
"186 440 LINE",
"187 437 OFFCURVE",
"188 427 OFFCURVE",
"188 421 CURVE SMOOTH",
"188 380 OFFCURVE",
"109 343 OFFCURVE",
"109 258 CURVE SMOOTH",
"109 242 OFFCURVE",
"115 218 OFFCURVE",
"127 203 CURVE",
"161 243 LINE",
"155 244 OFFCURVE",
"150 244 OFFCURVE",
"144 244 CURVE SMOOTH",
"74 244 OFFCURVE",
"34 185 OFFCURVE",
"34 118 CURVE SMOOTH",
"34 41 OFFCURVE",
"75 -10 OFFCURVE",
"151 -10 CURVE SMOOTH"
);
},
{
closed = 1;
nodes = (
"115 64 OFFCURVE",
"104 85 OFFCURVE",
"104 118 CURVE SMOOTH",
"104 151 OFFCURVE",
"116 170 OFFCURVE",
"143 170 CURVE SMOOTH",
"148 170 OFFCURVE",
"156 170 OFFCURVE",
"167 168 CURVE",
"171 151 OFFCURVE",
"171 134 OFFCURVE",
"171 118 CURVE SMOOTH",
"171 84 OFFCURVE",
"162 64 OFFCURVE",
"139 64 CURVE SMOOTH"
);
},
{
closed = 1;
nodes = (
"99 425 OFFCURVE",
"85 440 OFFCURVE",
"85 467 CURVE SMOOTH",
"85 495 OFFCURVE",
"99 510 OFFCURVE",
"120 510 CURVE SMOOTH",
"141 510 OFFCURVE",
"155 495 OFFCURVE",
"155 467 CURVE SMOOTH",
"155 439 OFFCURVE",
"141 425 OFFCURVE",
"120 425 CURVE SMOOTH"
);
}
);
userData = {
com.schriftgestaltung.Glyphs.glyph.rightMetricsKey = "boBaimai-thai";
};
width = 576;
},
{
anchors = (
{
name = bottom;
position = "{319, 0}";
},
{
name = bottomright;
position = "{513, 0}";
},
{
name = top;
position = "{354, 550}";
},
{
name = topright;
position = "{513, 550}";
}
);
layerId = "90A34054-68E4-499D-AE50-276C7B026D8B";
paths = (
{
closed = 1;
nodes = (
"197 -5 OFFCURVE",
"230 25 OFFCURVE",
"230 81 CURVE SMOOTH",
"230 107 OFFCURVE",
"227 128 OFFCURVE",
"224 144 CURVE",
"219 139 LINE",
"308 113 OFFCURVE",
"404 61 OFFCURVE",
"488 0 CURVE",
"513 0 LINE",
"513 550 LINE",
"488 550 LINE",
"488 17 LINE",
"494 25 LINE",
"414 82 OFFCURVE",
"312 136 OFFCURVE",
"216 164 CURVE",
"223 156 LINE",
"220 172 OFFCURVE",
"219 192 OFFCURVE",
"219 211 CURVE SMOOTH",
"219 352 OFFCURVE",
"293 341 OFFCURVE",
"293 464 CURVE SMOOTH",
"293 495 OFFCURVE",
"288 527 OFFCURVE",
"283 550 CURVE",
"266 550 LINE",
"266 493 OFFCURVE",
"229 431 OFFCURVE",
"184 431 CURVE",
"190 413 LINE",
"212 428 OFFCURVE",
"223 446 OFFCURVE",
"223 477 CURVE SMOOTH",
"223 521 OFFCURVE",
"192 555 OFFCURVE",
"144 555 CURVE SMOOTH",
"91 555 OFFCURVE",
"61 522 OFFCURVE",
"61 476 CURVE SMOOTH",
"61 428 OFFCURVE",
"97 397 OFFCURVE",
"149 397 CURVE SMOOTH",
"210 397 OFFCURVE",
"272 449 OFFCURVE",
"272 493 CURVE",
"267 493 LINE",
"268 485 OFFCURVE",
"269 472 OFFCURVE",
"269 461 CURVE SMOOTH",
"269 359 OFFCURVE",
"194 357 OFFCURVE",
"194 216 CURVE SMOOTH",
"194 200 OFFCURVE",
"195 180 OFFCURVE",
"198 163 CURVE",
"205 166 LINE",
"185 174 OFFCURVE",
"170 176 OFFCURVE",
"153 176 CURVE SMOOTH",
"102 176 OFFCURVE",
"63 148 OFFCURVE",
"63 85 CURVE SMOOTH",
"63 29 OFFCURVE",
"97 -5 OFFCURVE",
"149 -5 CURVE SMOOTH"
);
},
{
closed = 1;
nodes = (
"113 18 OFFCURVE",
"89 42 OFFCURVE",
"89 85 CURVE SMOOTH",
"89 134 OFFCURVE",
"116 154 OFFCURVE",
"153 154 CURVE SMOOTH",
"171 154 OFFCURVE",
"183 151 OFFCURVE",
"199 145 CURVE",
"202 128 OFFCURVE",
"206 105 OFFCURVE",
"206 82 CURVE SMOOTH",
"206 42 OFFCURVE",
"186 18 OFFCURVE",
"149 18 CURVE SMOOTH"
);
},
{
closed = 1;
nodes = (
"108 421 OFFCURVE",
"86 444 OFFCURVE",
"86 476 CURVE SMOOTH",
"86 509 OFFCURVE",
"108 532 OFFCURVE",
"142 532 CURVE SMOOTH",
"178 532 OFFCURVE",
"198 508 OFFCURVE",
"198 476 CURVE SMOOTH",
"198 442 OFFCURVE",
"174 421 OFFCURVE",
"142 421 CURVE SMOOTH"
);
}
);
width = 603;
},
{
anchors = (
{
name = bottom;
position = "{236, 0}";
},
{
name = bottomright;
position = "{378, 0}";
},
{
name = top;
position = "{263, 548}";
},
{
name = topright;
position = "{378, 548}";
}
);
layerId = "31946225-6F4F-4A3A-A9E3-76FE8DE38A50";
paths = (
{
closed = 1;
nodes = (
"158 -5 OFFCURVE",
"180 25 OFFCURVE",
"180 81 CURVE SMOOTH",
"180 103 OFFCURVE",
"179 125 OFFCURVE",
"177 144 CURVE",
"167 140 LINE",
"233 112 OFFCURVE",
"299 57 OFFCURVE",
"357 0 CURVE",
"378 0 LINE",
"378 548 LINE",
"354 548 LINE",
"354 18 LINE",
"364 27 LINE",
"306 84 OFFCURVE",
"232 136 OFFCURVE",
"165 166 CURVE",
"176 154 LINE",
"174 173 OFFCURVE",
"172 208 OFFCURVE",
"172 231 CURVE SMOOTH",
"172 366 OFFCURVE",
"217 340 OFFCURVE",
"217 462 CURVE SMOOTH",
"217 491 OFFCURVE",
"212 524 OFFCURVE",
"208 548 CURVE",
"192 548 LINE",
"192 491 OFFCURVE",
"171 431 OFFCURVE",
"134 431 CURVE",
"143 418 LINE",
"157 431 OFFCURVE",
"161 452 OFFCURVE",
"161 475 CURVE SMOOTH",
"161 519 OFFCURVE",
"139 553 OFFCURVE",
"104 553 CURVE SMOOTH",
"65 553 OFFCURVE",
"45 520 OFFCURVE",
"45 474 CURVE SMOOTH",
"45 426 OFFCURVE",
"70 397 OFFCURVE",
"107 397 CURVE SMOOTH",
"153 397 OFFCURVE",
"200 442 OFFCURVE",
"200 495 CURVE",
"193 495 LINE",
"195 484 OFFCURVE",
"196 475 OFFCURVE",
"196 462 CURVE SMOOTH",
"196 360 OFFCURVE",
"148 367 OFFCURVE",
"148 241 CURVE SMOOTH",
"148 210 OFFCURVE",
"149 179 OFFCURVE",
"152 164 CURVE",
"157 167 LINE",
"142 175 OFFCURVE",
"131 176 OFFCURVE",
"119 176 CURVE SMOOTH",
"81 176 OFFCURVE",
"54 148 OFFCURVE",
"54 85 CURVE SMOOTH",
"54 29 OFFCURVE",
"78 -5 OFFCURVE",
"117 -5 CURVE SMOOTH"
);
},
{
closed = 1;
nodes = (
"93 17 OFFCURVE",
"77 42 OFFCURVE",
"77 85 CURVE SMOOTH",
"77 133 OFFCURVE",
"95 154 OFFCURVE",
"119 154 CURVE SMOOTH",
"132 154 OFFCURVE",
"140 152 OFFCURVE",
"152 145 CURVE",
"154 128 OFFCURVE",
"156 104 OFFCURVE",
"156 82 CURVE SMOOTH",
"156 42 OFFCURVE",
"147 17 OFFCURVE",
"117 17 CURVE SMOOTH"
);
},
{
closed = 1;
nodes = (
"78 417 OFFCURVE",
"67 443 OFFCURVE",
"67 474 CURVE SMOOTH",
"67 507 OFFCURVE",
"78 532 OFFCURVE",
"102 532 CURVE SMOOTH",
"128 532 OFFCURVE",
"139 507 OFFCURVE",
"139 474 CURVE SMOOTH",
"139 441 OFFCURVE",
"126 417 OFFCURVE",
"102 417 CURVE SMOOTH"
);
}
);
width = 448;
},
{
anchors = (
{
name = bottom;
position = "{269, 0}";
},
{
name = bottomright;
position = "{425, 0}";
},
{
name = top;
position = "{283, 551}";
},
{
name = topright;
position = "{425, 551}";
}
);
layerId = "9F3C76A5-8ED6-4D1B-8CC9-A050DF474D58";
paths = (
{
closed = 1;
nodes = (
"198 -7 OFFCURVE",
"226 42 OFFCURVE",
"226 102 CURVE SMOOTH",
"226 121 OFFCURVE",
"223 131 OFFCURVE",
"223 158 CURVE",
"201 133 LINE",
"255 111 OFFCURVE",
"311 69 OFFCURVE",
"353 0 CURVE",
"425 0 LINE",
"425 551 LINE",
"349 551 LINE",
"349 51 LINE",
"374 73 LINE",
"328 138 OFFCURVE",
"252 188 OFFCURVE",
"188 208 CURVE",
"225 180 LINE",
"218 201 OFFCURVE",
"217 225 OFFCURVE",
"217 239 CURVE SMOOTH",
"217 322 OFFCURVE",
"265 329 OFFCURVE",
"265 456 CURVE SMOOTH",
"265 491 OFFCURVE",
"262 518 OFFCURVE",
"257 551 CURVE",
"210 551 LINE",
"210 499 OFFCURVE",
"200 451 OFFCURVE",
"172 451 CURVE",
"185 425 LINE",
"190 437 OFFCURVE",
"192 449 OFFCURVE",
"192 464 CURVE SMOOTH",
"192 513 OFFCURVE",
"169 558 OFFCURVE",
"117 558 CURVE SMOOTH",
"68 558 OFFCURVE",
"39 517 OFFCURVE",
"39 464 CURVE SMOOTH",
"39 407 OFFCURVE",
"71 369 OFFCURVE",
"120 369 CURVE SMOOTH",
"179 369 OFFCURVE",
"224 425 OFFCURVE",
"224 472 CURVE",
"205 472 LINE",
"206 465 OFFCURVE",
"207 457 OFFCURVE",
"207 449 CURVE SMOOTH",
"207 365 OFFCURVE",
"140 349 OFFCURVE",
"140 253 CURVE SMOOTH",
"140 230 OFFCURVE",
"142 208 OFFCURVE",
"147 188 CURVE",
"170 210 LINE",
"158 213 OFFCURVE",
"146 214 OFFCURVE",
"134 214 CURVE SMOOTH",
"83 214 OFFCURVE",
"45 172 OFFCURVE",
"45 105 CURVE SMOOTH",
"45 32 OFFCURVE",
"83 -7 OFFCURVE",
"135 -7 CURVE SMOOTH"
);
},
{
closed = 1;
nodes = (
"108 42 OFFCURVE",
"96 67 OFFCURVE",
"96 104 CURVE SMOOTH",
"96 137 OFFCURVE",
"106 165 OFFCURVE",
"132 165 CURVE SMOOTH",
"141 165 OFFCURVE",
"147 163 OFFCURVE",
"154 160 CURVE",
"156 146 OFFCURVE",
"158 125 OFFCURVE",
"158 105 CURVE SMOOTH",
"158 70 OFFCURVE",
"152 42 OFFCURVE",
"129 42 CURVE SMOOTH"
);
},
{
closed = 1;
nodes = (
"93 412 OFFCURVE",
"84 438 OFFCURVE",
"84 466 CURVE SMOOTH",
"84 496 OFFCURVE",
"93 516 OFFCURVE",
"116 516 CURVE SMOOTH",
"139 516 OFFCURVE",
"147 496 OFFCURVE",
"147 466 CURVE SMOOTH",
"147 437 OFFCURVE",
"139 412 OFFCURVE",
"116 412 CURVE SMOOTH"
);
}
);
userData = {
com.schriftgestaltung.Glyphs.glyph.rightMetricsKey = "boBaimai-thai";
};
width = 495;
}
);
leftKerningGroup = "khoRakhang-thai";
rightMetricsKey = "moMa-thai";
unicode = 0E06;
},
{
glyphname = "khoRakhang-thai_macronbelowcomb";
lastChange = "2020-11-15 17:46:12 +0000";
layers = (
{
anchors = (
{
name = bottom;
position = "{293, -100}";
},
{
name = bottomright;
position = "{513, -100}";
}
);
components = (
{
name = "khoRakhang-thai";
}
);
layerId = "90A34054-68E4-499D-AE50-276C7B026D8B";
paths = (
{
closed = 1;
nodes = (
"73 -77 LINE",
"73 -100 LINE",
"513 -100 LINE",
"513 -77 LINE"
);
}
);
width = 603;
},
{
anchors = (
{
name = bottom;
position = "{322, -149}";
},
{
name = bottomright;
position = "{568, -149}";
}
);
components = (
{
name = "khoRakhang-thai";
}
);
hints = (
{
horizontal = 1;
origin = "{0, 1}";
target = "{0, 0}";
type = Stem;
}
);
layerId = "59720D05-F04C-4F19-83A4-486FF5963186";
paths = (
{
closed = 1;
nodes = (
"75 -77 LINE",
"75 -149 LINE",
"568 -149 LINE",
"568 -77 LINE"
);
}
);
width = 655;
},
{
anchors = (
{
name = bottom;
position = "{357, -219}";
},
{
name = bottomright;
position = "{644, -219}";
}
);
components = (
{
name = "khoRakhang-thai";
}
);
layerId = "EB3A5D6C-8260-43A6-9EF2-63971FC08D48";
paths = (
{
closed = 1;
nodes = (
"70 -77 LINE",
"70 -219 LINE",
"644 -219 LINE",
"644 -77 LINE"
);
}
);
width = 716;
},
{
anchors = (
{
name = bottom;
position = "{227, -97}";
},
{
name = bottomright;
position = "{378, -97}";
}
);
components = (
{
name = "khoRakhang-thai";
}
);
layerId = "31946225-6F4F-4A3A-A9E3-76FE8DE38A50";
paths = (
{
closed = 1;
nodes = (
"75 -77 LINE",
"75 -97 LINE",
"378 -97 LINE",
"378 -77 LINE"
);
}
);
width = 448;
},
{
anchors = (
{
name = bottom;
position = "{252, -148}";
},
{
name = bottomright;
position = "{425, -148}";
}
);
components = (
{
name = "khoRakhang-thai";
}
);
layerId = "9F3C76A5-8ED6-4D1B-8CC9-A050DF474D58";
paths = (
{
closed = 1;
nodes = (
"78 -77 LINE",
"78 -148 LINE",
"425 -148 LINE",
"425 -77 LINE"
);
}
);
width = 495;
},
{
anchors = (
{
name = bottom;
position = "{292, -215}";
},
{
name = bottomright;
position = "{524, -215}";
}
);
components = (
{
name = "khoRakhang-thai";
}
);
layerId = "C987F20E-C470-4905-85F8-C37EA20127D7";
paths = (
{
closed = 1;
nodes = (
"60 -76 LINE",
"60 -215 LINE",
"524 -215 LINE",
"524 -76 LINE"
);
}
);
width = 576;
}
);
leftKerningGroup = "khoRakhang-thai";
},
{
glyphname = "ngoNgu-thai";
lastChange = "2020-11-15 17:46:47 +0000";
layers = (
{
anchors = (
{
name = bottom;
position = "{226, 0}";
},
{
name = bottomright;
position = "{432, 0}";
},
{
name = top;
position = "{255, 553}";
},
{
name = topright;
position = "{434, 553}";
}
);
hints = (
{
horizontal = 1;
origin = "{0, 29}";
target = "{0, 21}";
type = Stem;
},
{
origin = "{0, 17}";
target = "{0, 33}";
type = Stem;
},
{
horizontal = 1;
origin = "{0, 3}";
target = "{1, 5}";
type = Stem;
}
);
layerId = "59720D05-F04C-4F19-83A4-486FF5963186";
paths = (
{
closed = 1;
nodes = (
"437 450 LINE SMOOTH",
"437 520 OFFCURVE",
"397 560 OFFCURVE",
"332 560 CURVE SMOOTH",
"268 560 OFFCURVE",
"228 522 OFFCURVE",
"228 460 CURVE SMOOTH",
"228 399 OFFCURVE",
"270 362 OFFCURVE",
"332 362 CURVE SMOOTH",
"397 362 OFFCURVE",
"430 404 OFFCURVE",
"430 461 CURVE",
"417 461 LINE",
"417 429 OFFCURVE",
"381 389 OFFCURVE",
"351 389 CURVE",
"351 140 LINE SMOOTH",
"351 93 OFFCURVE",
"337 72 OFFCURVE",
"290 72 CURVE SMOOTH",
"208 72 LINE",
"252 46 LINE",
"228 173 OFFCURVE",
"179 302 OFFCURVE",
"116 419 CURVE",
"40 387 LINE",
"106 255 OFFCURVE",
"151 132 OFFCURVE",
"185 0 CURVE",
"292 0 LINE SMOOTH",
"382 0 OFFCURVE",
"437 38 OFFCURVE",
"437 134 CURVE SMOOTH"
);
},
{
closed = 1;
nodes = (
"300 410 OFFCURVE",
"282 429 OFFCURVE",
"282 461 CURVE SMOOTH",
"282 493 OFFCURVE",
"300 512 OFFCURVE",
"332 512 CURVE SMOOTH",
"364 512 OFFCURVE",
"382 493 OFFCURVE",
"382 461 CURVE SMOOTH",
"382 428 OFFCURVE",
"364 410 OFFCURVE",
"332 410 CURVE SMOOTH"
);
}
);
width = 523;
},
{
anchors = (
{
name = bottom;
position = "{288, 0}";
},
{
name = bottomright;
position = "{538, 0}";
},
{
name = top;
position = "{304, 563}";
},
{
name = topright;
position = "{540, 563}";
}
);
layerId = "EB3A5D6C-8260-43A6-9EF2-63971FC08D48";
paths = (
{
closed = 1;
nodes = (
"543 419 LINE SMOOTH",
"543 527 OFFCURVE",
"478 573 OFFCURVE",
"394 573 CURVE SMOOTH",
"314 573 OFFCURVE",
"268 525 OFFCURVE",
"268 466 CURVE SMOOTH",
"268 408 OFFCURVE",
"301 359 OFFCURVE",
"367 359 CURVE SMOOTH",
"452 359 OFFCURVE",
"482 393 OFFCURVE",
"482 466 CURVE",
"468 466 LINE",
"468 410 OFFCURVE",
"430 371 OFFCURVE",
"357 371 CURVE",
"357 185 LINE SMOOTH",
"357 155 OFFCURVE",
"349 142 OFFCURVE",
"321 142 CURVE SMOOTH",
"231 142 LINE",
"322 101 LINE",
"292 229 OFFCURVE",
"245 335 OFFCURVE",
"184 439 CURVE",
"22 371 LINE",
"86 258 OFFCURVE",
"142 132 OFFCURVE",
"177 0 CURVE",
"390 0 LINE SMOOTH",
"480 0 OFFCURVE",
"543 68 OFFCURVE",
"543 164 CURVE SMOOTH"
);
},
{
closed = 1;
nodes = (
"360 421 OFFCURVE",
"340 437 OFFCURVE",
"340 466 CURVE SMOOTH",
"340 495 OFFCURVE",
"360 511 OFFCURVE",
"387 511 CURVE SMOOTH",
"414 511 OFFCURVE",
"434 495 OFFCURVE",
"434 466 CURVE SMOOTH",
"434 436 OFFCURVE",
"414 421 OFFCURVE",
"387 421 CURVE SMOOTH"
);
}
);
width = 608;
},
{
anchors = (
{
name = bottom;
position = "{215, 0}";
},
{
name = bottomright;
position = "{431, 0}";
},
{
name = top;
position = "{237, 561}";
},
{
name = topright;
position = "{431, 561}";
}
);
layerId = "C987F20E-C470-4905-85F8-C37EA20127D7";
paths = (
{
closed = 1;
nodes = (
"434 417 LINE SMOOTH",
"434 525 OFFCURVE",
"384 571 OFFCURVE",
"315 571 CURVE SMOOTH",
"245 571 OFFCURVE",
"205 523 OFFCURVE",
"205 464 CURVE SMOOTH",
"205 406 OFFCURVE",
"240 357 OFFCURVE",
"294 357 CURVE SMOOTH",
"361 357 OFFCURVE",
"403 388 OFFCURVE",
"403 464 CURVE",
"382 464 LINE",
"382 408 OFFCURVE",
"340 374 OFFCURVE",
"278 374 CURVE",
"278 177 LINE SMOOTH",
"278 143 OFFCURVE",
"272 138 OFFCURVE",
"252 138 CURVE SMOOTH",
"168 138 LINE",
"246 101 LINE",
"225 232 OFFCURVE",
"193 333 OFFCURVE",
"143 438 CURVE",
"7 370 LINE",
"59 257 OFFCURVE",
"99 131 OFFCURVE",
"124 0 CURVE",
"308 0 LINE SMOOTH",
"382 0 OFFCURVE",
"434 64 OFFCURVE",
"434 160 CURVE SMOOTH"
);
},
{
closed = 1;
nodes = (
"282 418 OFFCURVE",
"268 435 OFFCURVE",
"268 464 CURVE SMOOTH",
"268 493 OFFCURVE",
"282 510 OFFCURVE",
"307 510 CURVE SMOOTH",
"332 510 OFFCURVE",
"346 493 OFFCURVE",
"346 464 CURVE SMOOTH",
"346 434 OFFCURVE",
"332 418 OFFCURVE",
"307 418 CURVE SMOOTH"
);
}
);
width = 487;
},
{
anchors = (
{
name = bottom;
position = "{219, 0}";
},
{
name = bottomright;
position = "{384, 0}";
},
{
name = top;
position = "{237, 550}";
},
{
name = topright;
position = "{386, 550}";
}
);
layerId = "90A34054-68E4-499D-AE50-276C7B026D8B";
paths = (
{
closed = 1;
nodes = (
"389 456 LINE SMOOTH",
"389 517 OFFCURVE",
"362 555 OFFCURVE",
"305 555 CURVE SMOOTH",
"253 555 OFFCURVE",
"224 518 OFFCURVE",
"224 475 CURVE SMOOTH",
"224 432 OFFCURVE",
"253 395 OFFCURVE",
"304 395 CURVE SMOOTH",
"358 395 OFFCURVE",
"382 433 OFFCURVE",
"382 475 CURVE",
"378 475 LINE",
"378 456 OFFCURVE",
"369 435 OFFCURVE",
"364 435 CURVE",
"364 116 LINE SMOOTH",
"364 48 OFFCURVE",
"333 23 OFFCURVE",
"278 23 CURVE SMOOTH",
"200 23 LINE",
"215 16 LINE",
"186 141 OFFCURVE",
"132 281 OFFCURVE",
"69 399 CURVE",
"45 389 LINE",
"114 260 OFFCURVE",
"163 126 OFFCURVE",
"193 0 CURVE",
"275 0 LINE SMOOTH",
"361 0 OFFCURVE",
"389 43 OFFCURVE",
"389 114 CURVE SMOOTH"
);
},
{
closed = 1;
nodes = (
"270 418 OFFCURVE",
"249 441 OFFCURVE",
"249 475 CURVE SMOOTH",
"249 509 OFFCURVE",
"270 532 OFFCURVE",
"305 532 CURVE SMOOTH",
"342 532 OFFCURVE",
"361 509 OFFCURVE",
"361 475 CURVE SMOOTH",
"361 441 OFFCURVE",
"342 418 OFFCURVE",
"305 418 CURVE SMOOTH"
);
}
);
width = 481;
},
{
anchors = (
{
name = bottom;
position = "{157, 0}";
},
{
name = bottomright;
position = "{275, 0}";
},
{
name = top;
position = "{166, 548}";
},
{
name = topright;
position = "{275, 548}";
}
);
layerId = "31946225-6F4F-4A3A-A9E3-76FE8DE38A50";
paths = (
{
closed = 1;
nodes = (
"278 471 LINE SMOOTH",
"278 521 OFFCURVE",
"254 553 OFFCURVE",
"217 553 CURVE SMOOTH",
"179 553 OFFCURVE",
"155 522 OFFCURVE",
"155 474 CURVE SMOOTH",
"155 426 OFFCURVE",
"179 395 OFFCURVE",
"213 395 CURVE SMOOTH",
"249 395 OFFCURVE",
"271 426 OFFCURVE",
"271 474 CURVE",
"266 474 LINE",
"266 455 OFFCURVE",
"259 434 OFFCURVE",
"254 434 CURVE",
"254 109 LINE SMOOTH",
"254 42 OFFCURVE",
"238 23 OFFCURVE",
"198 23 CURVE SMOOTH",
"142 23 LINE",
"159 17 LINE",
"139 143 OFFCURVE",
"95 291 OFFCURVE",
"54 398 CURVE",
"31 388 LINE",
"80 262 OFFCURVE",
"114 130 OFFCURVE",
"137 0 CURVE",
"196 0 LINE SMOOTH",
"262 0 OFFCURVE",
"278 39 OFFCURVE",
"278 104 CURVE SMOOTH"
);
},
{
closed = 1;
nodes = (
"192 416 OFFCURVE",
"177 436 OFFCURVE",
"177 474 CURVE SMOOTH",
"177 512 OFFCURVE",
"192 532 OFFCURVE",
"216 532 CURVE SMOOTH",
"239 532 OFFCURVE",
"254 512 OFFCURVE",
"254 474 CURVE SMOOTH",
"254 436 OFFCURVE",
"239 416 OFFCURVE",
"215 416 CURVE SMOOTH"
);
}
);
width = 355;
},
{
anchors = (
{
name = bottom;
position = "{159, 0}";
},
{
name = bottomright;
position = "{321, 0}";
},
{
name = top;
position = "{184, 551}";
},
{
name = topright;
position = "{321, 551}";
}
);
layerId = "9F3C76A5-8ED6-4D1B-8CC9-A050DF474D58";
paths = (
{
closed = 1;
nodes = (
"324 448 LINE SMOOTH",
"324 518 OFFCURVE",
"293 558 OFFCURVE",
"241 558 CURVE SMOOTH",
"190 558 OFFCURVE",
"161 520 OFFCURVE",
"161 458 CURVE SMOOTH",
"161 397 OFFCURVE",
"192 360 OFFCURVE",
"241 360 CURVE SMOOTH",
"293 360 OFFCURVE",
"310 407 OFFCURVE",
"310 458 CURVE",
"296 458 LINE",
"296 417 OFFCURVE",
"286 377 OFFCURVE",
"248 377 CURVE",
"248 132 LINE SMOOTH",
"248 79 OFFCURVE",
"232 71 OFFCURVE",
"202 71 CURVE SMOOTH",
"142 71 LINE",
"184 46 LINE",
"168 173 OFFCURVE",
"138 301 OFFCURVE",
"91 418 CURVE",
"22 386 LINE",
"74 255 OFFCURVE",
"101 131 OFFCURVE",
"123 0 CURVE",
"215 0 LINE SMOOTH",
"292 0 OFFCURVE",
"324 42 OFFCURVE",
"324 127 CURVE SMOOTH"
);
},
{
closed = 1;
nodes = (
"217 404 OFFCURVE",
"207 427 OFFCURVE",
"207 459 CURVE SMOOTH",
"207 491 OFFCURVE",
"217 514 OFFCURVE",
"241 514 CURVE SMOOTH",
"265 514 OFFCURVE",
"276 491 OFFCURVE",
"276 459 CURVE SMOOTH",
"276 426 OFFCURVE",
"265 404 OFFCURVE",
"241 404 CURVE SMOOTH"
);
}
);
width = 392;
}
);
leftKerningGroup = "ngoNgu-thai";
note = "\012uni0E07\012";
rightKerningGroup = "ngoNgu-thai";
unicode = 0E07;
},
{
glyphname = "ngoNgu-thai_macronbelowcomb";
lastChange = "2020-11-15 17:46:38 +0000";
layers = (
{
anchors = (
{
name = bottom;
position = "{240, -100}";
},
{
name = bottomright;
position = "{387, -100}";
}
);
components = (
{
name = "ngoNgu-thai";
}
);
layerId = "90A34054-68E4-499D-AE50-276C7B026D8B";
paths = (
{
closed = 1;
nodes = (
"92 -77 LINE",
"92 -100 LINE",
"387 -100 LINE",
"387 -77 LINE"
);
}
);
width = 481;
},
{
anchors = (
{
name = bottom;
position = "{257, -149}";
},
{
name = bottomright;
position = "{432, -149}";
}
);
components = (
{
name = "ngoNgu-thai";
}
);
hints = (
{
horizontal = 1;
origin = "{0, 1}";
target = "{0, 0}";
type = Stem;
}
);
layerId = "59720D05-F04C-4F19-83A4-486FF5963186";
paths = (
{
closed = 1;
nodes = (
"77 -77 LINE",
"77 -149 LINE",
"436 -149 LINE",
"436 -77 LINE"
);
}
);
width = 523;
},
{
anchors = (
{
name = bottom;
position = "{314, -219}";
},
{
name = bottomright;
position = "{538, -219}";
}
);
components = (
{
name = "ngoNgu-thai";
}
);
layerId = "EB3A5D6C-8260-43A6-9EF2-63971FC08D48";
paths = (
{
closed = 1;
nodes = (
"84 -77 LINE",
"84 -219 LINE",
"543 -219 LINE",
"543 -77 LINE"
);
}
);
width = 608;
},
{
anchors = (
{
name = bottom;
position = "{170, -97}";
},
{
name = bottomright;
position = "{275, -97}";
}
);
components = (
{
name = "ngoNgu-thai";
}
);
layerId = "31946225-6F4F-4A3A-A9E3-76FE8DE38A50";
paths = (
{
closed = 1;
nodes = (
"61 -77 LINE",
"61 -97 LINE",
"278 -97 LINE",
"278 -77 LINE"
);
}
);
width = 355;
},
{
anchors = (
{
name = bottom;
position = "{191, -148}";
},
{
name = bottomright;
position = "{321, -148}";
}
);
components = (
{
name = "ngoNgu-thai";
}
);
layerId = "9F3C76A5-8ED6-4D1B-8CC9-A050DF474D58";
paths = (
{
closed = 1;
nodes = (
"58 -77 LINE",
"58 -148 LINE",
"324 -148 LINE",
"324 -77 LINE"
);
}
);
width = 392;
},
{
anchors = (
{
name = bottom;
position = "{245, -215}";
},
{
name = bottomright;
position = "{431, -215}";
}
);
components = (
{
name = "ngoNgu-thai";
}
);
layerId = "C987F20E-C470-4905-85F8-C37EA20127D7";
paths = (
{
closed = 1;
nodes = (
"55 -76 LINE",
"55 -215 LINE",
"434 -215 LINE",
"434 -76 LINE"
);
}
);
width = 487;
}
);
leftKerningGroup = "ngoNgu-thai";
rightKerningGroup = "ngoNgu-thai";
},
{
glyphname = "choChan-thai";
lastChange = "2020-11-16 14:05:57 +0000";
layers = (
{
anchors = (
{
name = bottom;
position = "{260, 0}";
},
{
name = bottomright;
position = "{469, 0}";
},
{
name = top;
position = "{260, 553}";
},
{
name = topright;
position = "{479, 553}";
}
);
hints = (
{
horizontal = 1;
origin = "{0, 39}";
target = "{0, 20}";
type = Stem;
},
{
horizontal = 1;
origin = "{0, 6}";
target = "{0, 13}";
type = Stem;
},
{
origin = "{0, 16}";
target = "{0, 3}";
type = Stem;
}
);
layerId = "59720D05-F04C-4F19-83A4-486FF5963186";
paths = (
{
closed = 1;
nodes = (
"286 0 LINE SMOOTH",
"448 0 OFFCURVE",
"499 130 OFFCURVE",
"499 283 CURVE SMOOTH",
"499 454 OFFCURVE",
"416 563 OFFCURVE",
"246 563 CURVE SMOOTH",
"168 563 OFFCURVE",
"107 550 OFFCURVE",
"52 530 CURVE",
"76 460 LINE",
"123 479 OFFCURVE",
"175 491 OFFCURVE",
"238 491 CURVE SMOOTH",
"352 491 OFFCURVE",
"413 423 OFFCURVE",
"413 283 CURVE SMOOTH",
"413 157 OFFCURVE",
"374 72 OFFCURVE",
"275 72 CURVE SMOOTH",
"253 72 LINE",
"268 60 LINE",
"268 261 LINE SMOOTH",
"268 331 OFFCURVE",
"228 371 OFFCURVE",
"163 371 CURVE SMOOTH",
"99 371 OFFCURVE",
"59 333 OFFCURVE",
"59 271 CURVE SMOOTH",
"59 210 OFFCURVE",
"101 173 OFFCURVE",
"163 173 CURVE SMOOTH",
"228 173 OFFCURVE",
"261 215 OFFCURVE",
"261 272 CURVE",
"248 272 LINE",
"248 240 OFFCURVE",
"212 200 OFFCURVE",
"182 200 CURVE",
"182 0 LINE"
);
},
{
closed = 1;
nodes = (
"131 221 OFFCURVE",
"113 240 OFFCURVE",
"113 272 CURVE SMOOTH",
"113 304 OFFCURVE",
"131 323 OFFCURVE",
"163 323 CURVE SMOOTH",
"195 323 OFFCURVE",
"213 304 OFFCURVE",
"213 272 CURVE SMOOTH",
"213 239 OFFCURVE",
"195 221 OFFCURVE",
"163 221 CURVE SMOOTH"
);
}
);
width = 557;
},
{
anchors = (
{
name = bottom;
position = "{289, 0}";
},
{
name = bottomright;
position = "{541, 0}";
},
{
name = top;
position = "{289, 563}";
},
{
name = topright;
position = "{551, 563}";
}
);
layerId = "EB3A5D6C-8260-43A6-9EF2-63971FC08D48";
paths = (
{
closed = 1;
nodes = (
"345 0 LINE SMOOTH",
"511 0 OFFCURVE",
"571 127 OFFCURVE",
"571 283 CURVE SMOOTH",
"571 458 OFFCURVE",
"484 578 OFFCURVE",
"275 578 CURVE SMOOTH",
"178 578 OFFCURVE",
"105 563 OFFCURVE",
"35 537 CURVE",
"80 404 LINE",
"134 425 OFFCURVE",
"181 439 OFFCURVE",
"242 439 CURVE SMOOTH",
"330 439 OFFCURVE",
"385 391 OFFCURVE",
"385 283 CURVE SMOOTH",
"385 182 OFFCURVE",
"365 137 OFFCURVE",
"330 137 CURVE SMOOTH",
"290 137 LINE",
"314 98 LINE",
"314 219 LINE SMOOTH",
"314 327 OFFCURVE",
"253 373 OFFCURVE",
"169 373 CURVE SMOOTH",
"89 373 OFFCURVE",
"43 325 OFFCURVE",
"43 266 CURVE SMOOTH",
"43 208 OFFCURVE",
"76 159 OFFCURVE",
"142 159 CURVE SMOOTH",
"227 159 OFFCURVE",
"257 193 OFFCURVE",
"257 266 CURVE",
"243 266 LINE",
"243 210 OFFCURVE",
"205 171 OFFCURVE",
"132 171 CURVE",
"132 0 LINE"
);
},
{
closed = 1;
nodes = (
"134 221 OFFCURVE",
"114 237 OFFCURVE",
"114 266 CURVE SMOOTH",
"114 295 OFFCURVE",
"134 311 OFFCURVE",
"161 311 CURVE SMOOTH",
"188 311 OFFCURVE",
"208 295 OFFCURVE",
"208 266 CURVE SMOOTH",
"208 236 OFFCURVE",
"188 221 OFFCURVE",
"161 221 CURVE SMOOTH"
);
}
);
width = 611;
},
{
anchors = (
{
name = bottom;
position = "{220, 0}";
},
{
name = bottomright;
position = "{436, 0}";
},
{
name = top;
position = "{220, 561}";
},
{
name = topright;
position = "{446, 561}";
}
);
layerId = "C987F20E-C470-4905-85F8-C37EA20127D7";
paths = (
{
closed = 1;
nodes = (
"269 0 LINE SMOOTH",
"407 0 OFFCURVE",
"456 127 OFFCURVE",
"456 282 CURVE SMOOTH",
"456 456 OFFCURVE",
"389 576 OFFCURVE",
"213 576 CURVE SMOOTH",
"137 576 OFFCURVE",
"74 560 OFFCURVE",
"14 534 CURVE",
"59 404 LINE",
"102 425 OFFCURVE",
"140 438 OFFCURVE",
"186 438 CURVE SMOOTH",
"263 438 OFFCURVE",
"300 389 OFFCURVE",
"300 282 CURVE SMOOTH",
"300 173 OFFCURVE",
"284 138 OFFCURVE",
"257 138 CURVE SMOOTH",
"226 138 LINE",
"250 98 LINE",
"250 218 LINE SMOOTH",
"250 325 OFFCURVE",
"202 372 OFFCURVE",
"133 372 CURVE SMOOTH",
"63 372 OFFCURVE",
"23 323 OFFCURVE",
"23 265 CURVE SMOOTH",
"23 208 OFFCURVE",
"58 158 OFFCURVE",
"112 158 CURVE SMOOTH",
"179 158 OFFCURVE",
"221 189 OFFCURVE",
"221 265 CURVE",
"200 265 LINE",
"200 209 OFFCURVE",
"157 175 OFFCURVE",
"95 175 CURVE",
"95 0 LINE"
);
},
{
closed = 1;
nodes = (
"100 219 OFFCURVE",
"86 237 OFFCURVE",
"86 265 CURVE SMOOTH",
"86 293 OFFCURVE",
"100 311 OFFCURVE",
"125 311 CURVE SMOOTH",
"150 311 OFFCURVE",
"164 293 OFFCURVE",
"164 265 CURVE SMOOTH",
"164 236 OFFCURVE",
"150 219 OFFCURVE",
"125 219 CURVE SMOOTH"
);
}
);
width = 484;
},
{
anchors = (
{
name = bottom;
position = "{264, 0}";
},
{
name = bottomright;
position = "{445, 0}";
},
{
name = top;
position = "{264, 550}";
},
{
name = topright;
position = "{455, 550}";
}
);
layerId = "90A34054-68E4-499D-AE50-276C7B026D8B";
paths = (
{
closed = 1;
nodes = (
"287 0 LINE SMOOTH",
"411 0 OFFCURVE",
"475 87 OFFCURVE",
"475 285 CURVE SMOOTH",
"475 453 OFFCURVE",
"406 558 OFFCURVE",
"248 558 CURVE SMOOTH",
"174 558 OFFCURVE",
"115 544 OFFCURVE",
"65 524 CURVE",
"75 501 LINE",
"122 521 OFFCURVE",
"181 535 OFFCURVE",
"244 535 CURVE SMOOTH",
"384 535 OFFCURVE",
"450 440 OFFCURVE",
"450 285 CURVE SMOOTH",
"450 128 OFFCURVE",
"407 23 OFFCURVE",
"280 23 CURVE SMOOTH",
"243 23 LINE",
"247 9 LINE",
"247 257 LINE SMOOTH",
"247 318 OFFCURVE",
"220 356 OFFCURVE",
"163 356 CURVE SMOOTH",
"111 356 OFFCURVE",
"82 319 OFFCURVE",
"82 276 CURVE SMOOTH",
"82 233 OFFCURVE",
"111 196 OFFCURVE",
"162 196 CURVE SMOOTH",
"216 196 OFFCURVE",
"240 234 OFFCURVE",
"240 276 CURVE",
"236 276 LINE",
"236 257 OFFCURVE",
"227 236 OFFCURVE",
"222 236 CURVE",
"222 0 LINE"
);
},
{
closed = 1;
nodes = (
"128 219 OFFCURVE",
"107 242 OFFCURVE",
"107 276 CURVE SMOOTH",
"107 310 OFFCURVE",
"128 333 OFFCURVE",
"163 333 CURVE SMOOTH",
"200 333 OFFCURVE",
"219 310 OFFCURVE",
"219 276 CURVE SMOOTH",
"219 242 OFFCURVE",
"200 219 OFFCURVE",
"163 219 CURVE SMOOTH"
);
}
);
width = 528;
},
{
anchors = (
{
name = bottom;
position = "{191, 0}";
},
{
name = bottomright;
position = "{327, 0}";
},
{
name = top;
position = "{191, 548}";
},
{
name = topright;
position = "{337, 548}";
}
);
layerId = "31946225-6F4F-4A3A-A9E3-76FE8DE38A50";
paths = (
{
closed = 1;
nodes = (
"221 0 LINE SMOOTH",
"312 0 OFFCURVE",
"347 87 OFFCURVE",
"347 284 CURVE SMOOTH",
"347 451 OFFCURVE",
"307 556 OFFCURVE",
"183 556 CURVE SMOOTH",
"129 556 OFFCURVE",
"87 542 OFFCURVE",
"51 522 CURVE",
"58 499 LINE",
"92 519 OFFCURVE",
"133 533 OFFCURVE",
"180 533 CURVE SMOOTH",
"290 533 OFFCURVE",
"323 438 OFFCURVE",
"323 284 CURVE SMOOTH",
"323 108 OFFCURVE",
"300 23 OFFCURVE",
"216 23 CURVE SMOOTH",
"179 23 LINE",
"188 10 LINE",
"188 270 LINE SMOOTH",
"188 319 OFFCURVE",
"164 352 OFFCURVE",
"127 352 CURVE SMOOTH",
"89 352 OFFCURVE",
"65 320 OFFCURVE",
"65 273 CURVE SMOOTH",
"65 226 OFFCURVE",
"89 194 OFFCURVE",
"123 194 CURVE SMOOTH",
"158 194 OFFCURVE",
"181 225 OFFCURVE",
"181 273 CURVE",
"176 273 LINE",
"176 254 OFFCURVE",
"169 233 OFFCURVE",
"164 233 CURVE",
"164 0 LINE"
);
},
{
closed = 1;
nodes = (
"102 215 OFFCURVE",
"87 236 OFFCURVE",
"87 273 CURVE SMOOTH",
"87 310 OFFCURVE",
"102 331 OFFCURVE",
"126 331 CURVE SMOOTH",
"149 331 OFFCURVE",
"164 310 OFFCURVE",
"164 273 CURVE SMOOTH",
"164 236 OFFCURVE",
"149 215 OFFCURVE",
"125 215 CURVE SMOOTH"
);
}
);
width = 385;
},
{
anchors = (
{
name = bottom;
position = "{192, 0}";
},
{
name = bottomright;
position = "{356, 0}";
},
{
name = top;
position = "{192, 551}";
},
{
name = topright;
position = "{366, 551}";
}
);
layerId = "9F3C76A5-8ED6-4D1B-8CC9-A050DF474D58";
paths = (
{
closed = 1;
nodes = (
"221 0 LINE SMOOTH",
"342 0 OFFCURVE",
"376 130 OFFCURVE",
"376 282 CURVE SMOOTH",
"376 452 OFFCURVE",
"326 561 OFFCURVE",
"186 561 CURVE SMOOTH",
"127 561 OFFCURVE",
"80 548 OFFCURVE",
"38 528 CURVE",
"56 459 LINE",
"92 478 OFFCURVE",
"131 490 OFFCURVE",
"178 490 CURVE SMOOTH",
"270 490 OFFCURVE",
"300 421 OFFCURVE",
"300 282 CURVE SMOOTH",
"300 138 OFFCURVE",
"279 71 OFFCURVE",
"213 71 CURVE SMOOTH",
"200 71 LINE",
"211 59 LINE",
"211 260 LINE SMOOTH",
"211 329 OFFCURVE",
"180 370 OFFCURVE",
"128 370 CURVE SMOOTH",
"77 370 OFFCURVE",
"48 331 OFFCURVE",
"48 270 CURVE SMOOTH",
"48 210 OFFCURVE",
"79 172 OFFCURVE",
"128 172 CURVE SMOOTH",
"180 172 OFFCURVE",
"197 219 OFFCURVE",
"197 270 CURVE",
"183 270 LINE",
"183 229 OFFCURVE",
"173 189 OFFCURVE",
"135 189 CURVE",
"135 0 LINE"
);
},
{
closed = 1;
nodes = (
"104 216 OFFCURVE",
"94 240 OFFCURVE",
"94 271 CURVE SMOOTH",
"94 302 OFFCURVE",
"104 326 OFFCURVE",
"128 326 CURVE SMOOTH",
"152 326 OFFCURVE",
"163 302 OFFCURVE",
"163 271 CURVE SMOOTH",
"163 239 OFFCURVE",
"152 216 OFFCURVE",
"128 216 CURVE SMOOTH"
);
}
);
width = 419;
}
);
leftKerningGroup = "choChan-thai";
rightKerningGroup = "choChan-thai";
unicode = 0E08;
},
{
glyphname = "choChan-thai_macronbelowcomb";
lastChange = "2020-11-15 17:47:07 +0000";
layers = (
{
anchors = (
{
name = bottom;
position = "{281, -100}";
},
{
name = bottomright;
position = "{454, -100}";
}
);
components = (
{
name = "choChan-thai";
}
);
layerId = "90A34054-68E4-499D-AE50-276C7B026D8B";
paths = (
{
closed = 1;
nodes = (
"107 -77 LINE",
"107 -100 LINE",
"454 -100 LINE",
"454 -77 LINE"
);
}
);
width = 527;
},
{
anchors = (
{
name = bottom;
position = "{291, -149}";
},
{
name = bottomright;
position = "{499, -149}";
}
);
components = (
{
name = "choChan-thai";
}
);
hints = (
{
horizontal = 1;
origin = "{0, 1}";
target = "{0, 0}";
type = Stem;
}
);
layerId = "59720D05-F04C-4F19-83A4-486FF5963186";
paths = (
{
closed = 1;
nodes = (
"83 -77 LINE",
"83 -149 LINE",
"499 -149 LINE",
"499 -77 LINE"
);
}
);
width = 557;
},
{
anchors = (
{
name = bottom;
position = "{321, -219}";
},
{
name = bottomright;
position = "{563, -219}";
}
);
components = (
{
name = "choChan-thai";
}
);
layerId = "EB3A5D6C-8260-43A6-9EF2-63971FC08D48";
paths = (
{
closed = 1;
nodes = (
"79 -77 LINE",
"79 -219 LINE",
"563 -219 LINE",
"563 -77 LINE"
);
}
);
width = 611;
},
{
anchors = (
{
name = bottom;
position = "{225, -97}";
},
{
name = bottomright;
position = "{347, -97}";
}
);
components = (
{
name = "choChan-thai";
}
);
layerId = "31946225-6F4F-4A3A-A9E3-76FE8DE38A50";
paths = (
{
closed = 1;
nodes = (
"102 -77 LINE",
"102 -97 LINE",
"347 -97 LINE",
"347 -77 LINE"
);
}
);
width = 385;
},
{
anchors = (
{
name = bottom;
position = "{227, -148}";
},
{
name = bottomright;
position = "{376, -148}";
}
);
components = (
{
name = "choChan-thai";
}
);
layerId = "9F3C76A5-8ED6-4D1B-8CC9-A050DF474D58";
paths = (
{
closed = 1;
nodes = (
"78 -77 LINE",
"78 -148 LINE",
"376 -148 LINE",
"376 -77 LINE"
);
}
);
width = 419;
},
{
anchors = (
{
name = bottom;
position = "{253, -215}";
},
{
name = bottomright;
position = "{456, -215}";
}
);
components = (
{
name = "choChan-thai";
}
);
layerId = "C987F20E-C470-4905-85F8-C37EA20127D7";
paths = (
{
closed = 1;
nodes = (
"50 -76 LINE",
"50 -215 LINE",
"456 -215 LINE",
"456 -76 LINE"
);
}
);
width = 484;
}
);
leftKerningGroup = "choChan-thai";
rightKerningGroup = "choChan-thai";
},
{
glyphname = "choChing-thai";
lastChange = "2020-11-13 21:25:18 +0000";
layers = (
{
anchors = (
{
name = bottom;
position = "{345, 0}";
},
{
name = bottomright;
position = "{547, 0}";
},
{
name = top;
position = "{303, 553}";
},
{
name = topright;
position = "{515, 553}";
}
);
hints = (
{
horizontal = 1;
origin = "{1, 42}";
target = "{1, 49}";
type = Stem;
},
{
horizontal = 1;
origin = "{1, 17}";
target = up;
type = BottomGhost;
},
{
origin = "{1, 53}";
target = "{1, 38}";
type = Stem;
},
{
horizontal = 1;
origin = "{1, 28}";
target = "{3, 14}";
type = Stem;
}
);
layerId = "59720D05-F04C-4F19-83A4-486FF5963186";
paths = (
{
closed = 1;
nodes = (
"248 117 LINE",
"264 117 LINE",
"264 124 LINE",
"248 124 LINE"
);
},
{
closed = 1;
nodes = (
"255 257 LINE SMOOTH",
"255 327 OFFCURVE",
"215 367 OFFCURVE",
"150 367 CURVE SMOOTH",
"86 367 OFFCURVE",
"46 329 OFFCURVE",
"46 267 CURVE SMOOTH",
"46 206 OFFCURVE",
"88 169 OFFCURVE",
"150 169 CURVE SMOOTH",
"215 169 OFFCURVE",
"248 211 OFFCURVE",
"248 268 CURVE",
"235 268 LINE",
"235 236 OFFCURVE",
"199 196 OFFCURVE",
"169 196 CURVE",
"169 0 LINE",
"255 0 LINE",
"286 79 OFFCURVE",
"338 126 OFFCURVE",
"397 144 CURVE",
"387 156 LINE",
"376 141 OFFCURVE",
"368 117 OFFCURVE",
"368 93 CURVE SMOOTH",
"368 32 OFFCURVE",
"409 -7 OFFCURVE",
"473 -7 CURVE SMOOTH",
"536 -7 OFFCURVE",
"577 32 OFFCURVE",
"577 93 CURVE SMOOTH",
"577 152 OFFCURVE",
"543 195 OFFCURVE",
"477 195 CURVE",
"482 180 LINE",
"510 186 OFFCURVE",
"520 218 OFFCURVE",
"520 246 CURVE SMOOTH",
"520 372 LINE SMOOTH",
"520 498 OFFCURVE",
"444 563 OFFCURVE",
"291 563 CURVE SMOOTH",
"215 563 OFFCURVE",
"142 545 OFFCURVE",
"85 516 CURVE",
"109 446 LINE",
"159 472 OFFCURVE",
"223 491 OFFCURVE",
"285 491 CURVE SMOOTH",
"393 491 OFFCURVE",
"434 444 OFFCURVE",
"434 363 CURVE SMOOTH",
"434 271 LINE SMOOTH",
"434 239 OFFCURVE",
"432 225 OFFCURVE",
"401 216 CURVE SMOOTH",
"336 197 OFFCURVE",
"278 160 OFFCURVE",
"239 99 CURVE",
"255 82 LINE"
);
},
{
closed = 1;
nodes = (
"118 217 OFFCURVE",
"100 236 OFFCURVE",
"100 268 CURVE SMOOTH",
"100 300 OFFCURVE",
"118 319 OFFCURVE",
"150 319 CURVE SMOOTH",
"182 319 OFFCURVE",
"200 300 OFFCURVE",
"200 268 CURVE SMOOTH",
"200 235 OFFCURVE",
"182 217 OFFCURVE",
"150 217 CURVE SMOOTH"
);
},
{
closed = 1;
nodes = (
"443 43 OFFCURVE",
"424 66 OFFCURVE",
"424 95 CURVE SMOOTH",
"424 113 OFFCURVE",
"430 132 OFFCURVE",
"443 147 CURVE",
"448 149 OFFCURVE",
"459 150 OFFCURVE",
"466 150 CURVE SMOOTH",
"506 150 OFFCURVE",
"521 126 OFFCURVE",
"521 94 CURVE SMOOTH",
"521 64 OFFCURVE",
"503 43 OFFCURVE",
"473 43 CURVE SMOOTH"
);
}
);
userData = {
com.schriftgestaltung.Glyphs.glyph.rightMetricsKey = "khoKhwai-thai";
};
width = 614;
},
{
anchors = (
{
name = bottom;
position = "{351, 0}";
},
{
name = bottomright;
position = "{602, 0}";
},
{
name = top;
position = "{319, 563}";
},
{
name = topright;
position = "{574, 563}";
}
);
layerId = "EB3A5D6C-8260-43A6-9EF2-63971FC08D48";
paths = (
{
closed = 1;
nodes = (
"302 175 LINE",
"318 175 LINE",
"318 182 LINE",
"302 182 LINE"
);
},
{
closed = 1;
nodes = (
"309 217 LINE SMOOTH",
"309 325 OFFCURVE",
"244 371 OFFCURVE",
"160 371 CURVE SMOOTH",
"80 371 OFFCURVE",
"34 323 OFFCURVE",
"34 264 CURVE SMOOTH",
"34 206 OFFCURVE",
"67 157 OFFCURVE",
"133 157 CURVE SMOOTH",
"218 157 OFFCURVE",
"248 191 OFFCURVE",
"248 264 CURVE",
"234 264 LINE",
"234 208 OFFCURVE",
"196 169 OFFCURVE",
"123 169 CURVE",
"123 0 LINE",
"301 0 LINE",
"318 44 OFFCURVE",
"349 79 OFFCURVE",
"393 88 CURVE",
"381 149 LINE",
"376 133 OFFCURVE",
"374 119 OFFCURVE",
"374 105 CURVE SMOOTH",
"374 33 OFFCURVE",
"433 -10 OFFCURVE",
"503 -10 CURVE SMOOTH",
"579 -10 OFFCURVE",
"632 40 OFFCURVE",
"632 111 CURVE SMOOTH",
"632 178 OFFCURVE",
"593 235 OFFCURVE",
"496 235 CURVE",
"505 198 LINE",
"568 204 OFFCURVE",
"579 245 OFFCURVE",
"579 290 CURVE SMOOTH",
"579 373 LINE SMOOTH",
"579 499 OFFCURVE",
"481 578 OFFCURVE",
"299 578 CURVE SMOOTH",
"199 578 OFFCURVE",
"122 559 OFFCURVE",
"59 533 CURVE",
"104 405 LINE",
"155 426 OFFCURVE",
"205 440 OFFCURVE",
"270 440 CURVE SMOOTH",
"345 440 OFFCURVE",
"393 409 OFFCURVE",
"393 338 CURVE SMOOTH",
"393 259 LINE SMOOTH",
"393 239 OFFCURVE",
"385 231 OFFCURVE",
"369 223 CURVE SMOOTH",
"336 207 OFFCURVE",
"296 173 OFFCURVE",
"266 136 CURVE",
"309 97 LINE"
);
},
{
closed = 1;
nodes = (
"126 219 OFFCURVE",
"106 235 OFFCURVE",
"106 264 CURVE SMOOTH",
"106 293 OFFCURVE",
"126 309 OFFCURVE",
"153 309 CURVE SMOOTH",
"180 309 OFFCURVE",
"200 293 OFFCURVE",
"200 264 CURVE SMOOTH",
"200 234 OFFCURVE",
"180 219 OFFCURVE",
"153 219 CURVE SMOOTH"
);
},
{
closed = 1;
nodes = (
"474 58 OFFCURVE",
"456 76 OFFCURVE",
"456 105 CURVE SMOOTH",
"456 119 OFFCURVE",
"459 134 OFFCURVE",
"466 147 CURVE",
"476 151 OFFCURVE",
"489 154 OFFCURVE",
"502 154 CURVE SMOOTH",
"531 154 OFFCURVE",
"550 135 OFFCURVE",
"550 105 CURVE SMOOTH",
"550 75 OFFCURVE",
"532 58 OFFCURVE",
"503 58 CURVE SMOOTH"
);
}
);
userData = {
com.schriftgestaltung.Glyphs.glyph.rightMetricsKey = "khoKhwai-thai";
};
width = 664;
},
{
anchors = (
{
name = bottom;
position = "{279, 0}";
},
{
name = bottomright;
position = "{490, 0}";
},
{
name = top;
position = "{252, 561}";
},
{
name = topright;
position = "{461, 561}";
}
);
layerId = "C987F20E-C470-4905-85F8-C37EA20127D7";
paths = (
{
closed = 1;
nodes = (
"240 178 LINE",
"256 178 LINE",
"256 185 LINE",
"240 185 LINE"
);
},
{
closed = 1;
nodes = (
"248 216 LINE SMOOTH",
"248 324 OFFCURVE",
"198 370 OFFCURVE",
"129 370 CURVE SMOOTH",
"59 370 OFFCURVE",
"19 322 OFFCURVE",
"19 263 CURVE SMOOTH",
"19 205 OFFCURVE",
"54 156 OFFCURVE",
"108 156 CURVE SMOOTH",
"175 156 OFFCURVE",
"217 187 OFFCURVE",
"217 263 CURVE",
"196 263 LINE",
"196 207 OFFCURVE",
"154 173 OFFCURVE",
"92 173 CURVE",
"92 0 LINE",
"238 0 LINE",
"254 53 OFFCURVE",
"292 90 OFFCURVE",
"335 90 CURVE",
"298 139 LINE",
"295 127 OFFCURVE",
"294 116 OFFCURVE",
"294 105 CURVE SMOOTH",
"294 33 OFFCURVE",
"346 -10 OFFCURVE",
"402 -10 CURVE SMOOTH",
"464 -10 OFFCURVE",
"510 40 OFFCURVE",
"510 111 CURVE SMOOTH",
"510 176 OFFCURVE",
"475 230 OFFCURVE",
"405 230 CURVE",
"418 203 LINE",
"466 214 OFFCURVE",
"466 255 OFFCURVE",
"466 293 CURVE SMOOTH",
"466 376 LINE SMOOTH",
"466 501 OFFCURVE",
"386 576 OFFCURVE",
"237 576 CURVE SMOOTH",
"155 576 OFFCURVE",
"89 555 OFFCURVE",
"37 529 CURVE",
"80 403 LINE",
"122 424 OFFCURVE",
"161 440 OFFCURVE",
"213 440 CURVE SMOOTH",
"276 440 OFFCURVE",
"310 413 OFFCURVE",
"310 341 CURVE SMOOTH",
"310 254 LINE SMOOTH",
"310 235 OFFCURVE",
"305 228 OFFCURVE",
"290 218 CURVE SMOOTH",
"264 200 OFFCURVE",
"229 171 OFFCURVE",
"203 122 CURVE",
"248 98 LINE"
);
},
{
closed = 1;
nodes = (
"96 217 OFFCURVE",
"82 234 OFFCURVE",
"82 263 CURVE SMOOTH",
"82 292 OFFCURVE",
"96 309 OFFCURVE",
"121 309 CURVE SMOOTH",
"146 309 OFFCURVE",
"160 292 OFFCURVE",
"160 263 CURVE SMOOTH",
"160 233 OFFCURVE",
"146 217 OFFCURVE",
"121 217 CURVE SMOOTH"
);
},
{
closed = 1;
nodes = (
"377 54 OFFCURVE",
"362 72 OFFCURVE",
"362 104 CURVE SMOOTH",
"362 120 OFFCURVE",
"365 133 OFFCURVE",
"371 146 CURVE",
"380 153 OFFCURVE",
"390 155 OFFCURVE",
"400 155 CURVE SMOOTH",
"427 155 OFFCURVE",
"440 136 OFFCURVE",
"440 104 CURVE SMOOTH",
"440 71 OFFCURVE",
"425 54 OFFCURVE",
"401 54 CURVE SMOOTH"
);
}
);
userData = {
com.schriftgestaltung.Glyphs.glyph.rightMetricsKey = "khoKhwai-thai";
};
width = 527;
},
{
anchors = (
{
name = bottom;
position = "{337, 0}";
},
{
name = bottomright;
position = "{513, 0}";
},
{
name = top;
position = "{286, 550}";
},
{
name = topright;
position = "{478, 550}";
}
);
layerId = "90A34054-68E4-499D-AE50-276C7B026D8B";
paths = (
{
closed = 1;
nodes = (
"208 42 LINE",
"224 42 LINE",
"224 49 LINE",
"208 49 LINE"
);
},
{
closed = 1;
nodes = (
"215 254 LINE",
"215 315 OFFCURVE",
"188 353 OFFCURVE",
"131 353 CURVE SMOOTH",
"79 353 OFFCURVE",
"50 316 OFFCURVE",
"50 273 CURVE SMOOTH",
"50 230 OFFCURVE",
"79 193 OFFCURVE",
"130 193 CURVE SMOOTH",
"184 193 OFFCURVE",
"208 231 OFFCURVE",
"208 273 CURVE",
"204 273 LINE",
"204 254 OFFCURVE",
"195 233 OFFCURVE",
"190 233 CURVE",
"190 0 LINE",
"215 0 LINE",
"255 81 OFFCURVE",
"321 115 OFFCURVE",
"398 136 CURVE",
"396 139 LINE",
"379 125 OFFCURVE",
"371 102 OFFCURVE",
"371 80 CURVE SMOOTH",
"371 28 OFFCURVE",
"406 -5 OFFCURVE",
"458 -5 CURVE SMOOTH",
"509 -5 OFFCURVE",
"543 28 OFFCURVE",
"543 80 CURVE SMOOTH",
"543 125 OFFCURVE",
"514 163 OFFCURVE",
"461 163 CURVE",
"461 161 LINE",
"471 163 OFFCURVE",
"483 181 OFFCURVE",
"483 202 CURVE SMOOTH",
"483 390 LINE SMOOTH",
"483 495 OFFCURVE",
"407 558 OFFCURVE",
"290 558 CURVE SMOOTH",
"210 558 OFFCURVE",
"143 539 OFFCURVE",
"88 515 CURVE",
"98 492 LINE",
"155 517 OFFCURVE",
"215 535 OFFCURVE",
"286 535 CURVE SMOOTH",
"388 535 OFFCURVE",
"458 486 OFFCURVE",
"458 385 CURVE SMOOTH",
"458 213 LINE SMOOTH",
"458 183 OFFCURVE",
"446 171 OFFCURVE",
"416 166 CURVE SMOOTH",
"351 155 OFFCURVE",
"261 121 OFFCURVE",
"210 39 CURVE",
"215 35 LINE"
);
},
{
closed = 1;
nodes = (
"96 216 OFFCURVE",
"75 239 OFFCURVE",
"75 273 CURVE SMOOTH",
"75 307 OFFCURVE",
"96 330 OFFCURVE",
"131 330 CURVE SMOOTH",
"168 330 OFFCURVE",
"187 307 OFFCURVE",
"187 273 CURVE SMOOTH",
"187 239 OFFCURVE",
"168 216 OFFCURVE",
"131 216 CURVE SMOOTH"
);
},
{
closed = 1;
nodes = (
"424 20 OFFCURVE",
"400 44 OFFCURVE",
"400 80 CURVE SMOOTH",
"400 107 OFFCURVE",
"409 125 OFFCURVE",
"423 138 CURVE",
"430 141 OFFCURVE",
"441 143 OFFCURVE",
"456 143 CURVE SMOOTH",
"493 143 OFFCURVE",
"516 115 OFFCURVE",
"516 80 CURVE SMOOTH",
"516 44 OFFCURVE",
"491 20 OFFCURVE",
"458 20 CURVE SMOOTH"
);
}
);
width = 585;
},
{
anchors = (
{
name = bottom;
position = "{239, 0}";
},
{
name = bottomright;
position = "{368, 0}";
},
{
name = top;
position = "{202, 548}";
},
{
name = topright;
position = "{339, 548}";
}
);
layerId = "31946225-6F4F-4A3A-A9E3-76FE8DE38A50";
paths = (
{
closed = 1;
nodes = (
"150 58 LINE",
"166 58 LINE",
"166 65 LINE",
"150 65 LINE"
);
},
{
closed = 1;
nodes = (
"157 269 LINE SMOOTH",
"157 319 OFFCURVE",
"133 351 OFFCURVE",
"96 351 CURVE SMOOTH",
"58 351 OFFCURVE",
"34 320 OFFCURVE",
"34 272 CURVE SMOOTH",
"34 224 OFFCURVE",
"58 193 OFFCURVE",
"92 193 CURVE SMOOTH",
"128 193 OFFCURVE",
"150 224 OFFCURVE",
"150 272 CURVE",
"145 272 LINE",
"145 253 OFFCURVE",
"138 232 OFFCURVE",
"133 232 CURVE",
"133 0 LINE",
"154 0 LINE",
"189 90 OFFCURVE",
"215 125 OFFCURVE",
"288 144 CURVE",
"286 147 LINE",
"270 130 OFFCURVE",
"263 103 OFFCURVE",
"263 78 CURVE SMOOTH",
"263 26 OFFCURVE",
"288 -5 OFFCURVE",
"326 -5 CURVE SMOOTH",
"363 -5 OFFCURVE",
"388 26 OFFCURVE",
"388 78 CURVE SMOOTH",
"388 123 OFFCURVE",
"365 163 OFFCURVE",
"324 163 CURVE",
"328 159 LINE",
"339 167 OFFCURVE",
"344 186 OFFCURVE",
"344 207 CURVE SMOOTH",
"344 399 LINE SMOOTH",
"344 503 OFFCURVE",
"290 556 OFFCURVE",
"203 556 CURVE SMOOTH",
"143 556 OFFCURVE",
"99 537 OFFCURVE",
"59 513 CURVE",
"67 490 LINE",
"108 515 OFFCURVE",
"150 533 OFFCURVE",
"202 533 CURVE SMOOTH",
"275 533 OFFCURVE",
"320 494 OFFCURVE",
"320 394 CURVE SMOOTH",
"320 212 LINE SMOOTH",
"320 183 OFFCURVE",
"313 173 OFFCURVE",
"292 168 CURVE SMOOTH",
"238 156 OFFCURVE",
"181 131 OFFCURVE",
"148 40 CURVE",
"157 38 LINE"
);
},
{
closed = 1;
nodes = (
"71 214 OFFCURVE",
"56 234 OFFCURVE",
"56 272 CURVE SMOOTH",
"56 310 OFFCURVE",
"71 330 OFFCURVE",
"95 330 CURVE SMOOTH",
"118 330 OFFCURVE",
"133 310 OFFCURVE",
"133 272 CURVE SMOOTH",
"133 234 OFFCURVE",
"118 214 OFFCURVE",
"94 214 CURVE SMOOTH"
);
},
{
closed = 1;
nodes = (
"299 16 OFFCURVE",
"285 38 OFFCURVE",
"285 78 CURVE SMOOTH",
"285 103 OFFCURVE",
"291 125 OFFCURVE",
"301 139 CURVE",
"307 142 OFFCURVE",
"315 143 OFFCURVE",
"324 143 CURVE SMOOTH",
"352 143 OFFCURVE",
"366 115 OFFCURVE",
"366 78 CURVE SMOOTH",
"366 38 OFFCURVE",
"351 16 OFFCURVE",
"326 16 CURVE SMOOTH"
);
}
);
width = 416;
},
{
anchors = (
{
name = bottom;
position = "{258, 0}";
},
{
name = bottomright;
position = "{411, 0}";
},
{
name = top;
position = "{226, 551}";
},
{
name = topright;
position = "{384, 551}";
}
);
layerId = "9F3C76A5-8ED6-4D1B-8CC9-A050DF474D58";
paths = (
{
closed = 1;
nodes = (
"196 151 LINE",
"212 151 LINE",
"212 158 LINE",
"196 158 LINE"
);
},
{
closed = 1;
nodes = (
"202 262 LINE SMOOTH",
"202 332 OFFCURVE",
"171 372 OFFCURVE",
"119 372 CURVE SMOOTH",
"68 372 OFFCURVE",
"39 334 OFFCURVE",
"39 272 CURVE SMOOTH",
"39 211 OFFCURVE",
"70 174 OFFCURVE",
"119 174 CURVE SMOOTH",
"171 174 OFFCURVE",
"188 221 OFFCURVE",
"188 272 CURVE",
"174 272 LINE",
"174 231 OFFCURVE",
"164 191 OFFCURVE",
"126 191 CURVE",
"126 0 LINE",
"191 0 LINE",
"213 87 OFFCURVE",
"245 133 OFFCURVE",
"302 146 CURVE",
"293 162 LINE",
"282 143 OFFCURVE",
"275 117 OFFCURVE",
"275 91 CURVE SMOOTH",
"275 30 OFFCURVE",
"306 -7 OFFCURVE",
"354 -7 CURVE SMOOTH",
"401 -7 OFFCURVE",
"432 30 OFFCURVE",
"432 91 CURVE SMOOTH",
"432 152 OFFCURVE",
"404 198 OFFCURVE",
"351 198 CURVE",
"362 179 LINE",
"382 189 OFFCURVE",
"389 218 OFFCURVE",
"389 246 CURVE SMOOTH",
"389 378 LINE SMOOTH",
"389 491 OFFCURVE",
"347 561 OFFCURVE",
"223 561 CURVE SMOOTH",
"166 561 OFFCURVE",
"106 543 OFFCURVE",
"63 514 CURVE",
"81 445 LINE",
"119 471 OFFCURVE",
"167 490 OFFCURVE",
"213 490 CURVE SMOOTH",
"304 490 OFFCURVE",
"313 434 OFFCURVE",
"313 369 CURVE SMOOTH",
"313 269 LINE SMOOTH",
"313 240 OFFCURVE",
"313 223 OFFCURVE",
"288 214 CURVE SMOOTH",
"229 194 OFFCURVE",
"196 163 OFFCURVE",
"169 94 CURVE",
"202 76 LINE"
);
},
{
closed = 1;
nodes = (
"95 218 OFFCURVE",
"85 241 OFFCURVE",
"85 273 CURVE SMOOTH",
"85 305 OFFCURVE",
"95 328 OFFCURVE",
"119 328 CURVE SMOOTH",
"143 328 OFFCURVE",
"154 305 OFFCURVE",
"154 273 CURVE SMOOTH",
"154 240 OFFCURVE",
"143 218 OFFCURVE",
"119 218 CURVE SMOOTH"
);
},
{
closed = 1;
nodes = (
"332 39 OFFCURVE",
"323 62 OFFCURVE",
"323 93 CURVE SMOOTH",
"323 110 OFFCURVE",
"327 131 OFFCURVE",
"335 147 CURVE",
"339 148 OFFCURVE",
"344 149 OFFCURVE",
"350 149 CURVE SMOOTH",
"375 149 OFFCURVE",
"384 122 OFFCURVE",
"384 92 CURVE SMOOTH",
"384 60 OFFCURVE",
"377 39 OFFCURVE",
"354 39 CURVE SMOOTH"
);
}
);
userData = {
com.schriftgestaltung.Glyphs.glyph.rightMetricsKey = "khoKhwai-thai";
};
width = 459;
}
);
leftKerningGroup = "boBaimai-thai";
unicode = 0E09;
},
{
glyphname = "choChang-thai";
lastChange = "2020-11-14 09:26:11 +0000";
layers = (
{
anchors = (
{
name = bottom;
position = "{316, 0}";
},
{
name = bottomright;
position = "{515, 0}";
},
{
name = top;
position = "{316, 553}";
},
{
name = topright;
position = "{513, 553}";
}
);
hints = (
{
horizontal = 1;
origin = "{0, 51}";
target = "{0, 24}";
type = Stem;
},
{
horizontal = 1;
origin = "{0, 12}";
target = down;
type = TopGhost;
},
{
origin = "{0, 21}";
target = "{0, 2}";
type = Stem;
},
{
horizontal = 1;
origin = "{0, 34}";
target = "{1, 5}";
type = Stem;
}
);
layerId = "59720D05-F04C-4F19-83A4-486FF5963186";
paths = (
{
closed = 1;
nodes = (
"443 -10 OFFCURVE",
"520 57 OFFCURVE",
"520 163 CURVE SMOOTH",
"520 269 LINE SMOOTH",
"520 342 OFFCURVE",
"479 397 OFFCURVE",
"389 397 CURVE",
"390 383 LINE",
"477 383 OFFCURVE",
"508 424 OFFCURVE",
"508 489 CURVE SMOOTH",
"508 553 LINE",
"429 553 LINE",
"429 496 LINE SMOOTH",
"429 452 OFFCURVE",
"420 420 OFFCURVE",
"354 420 CURVE",
"354 354 LINE",
"406 354 OFFCURVE",
"434 328 OFFCURVE",
"434 279 CURVE SMOOTH",
"434 170 LINE SMOOTH",
"434 105 OFFCURVE",
"394 62 OFFCURVE",
"316 62 CURVE SMOOTH",
"238 62 OFFCURVE",
"198 105 OFFCURVE",
"198 170 CURVE SMOOTH",
"198 200 LINE SMOOTH",
"198 303 OFFCURVE",
"295 322 OFFCURVE",
"295 449 CURVE SMOOTH",
"295 510 OFFCURVE",
"256 560 OFFCURVE",
"179 560 CURVE SMOOTH",
"111 560 OFFCURVE",
"67 518 OFFCURVE",
"67 459 CURVE SMOOTH",
"67 397 OFFCURVE",
"109 358 OFFCURVE",
"171 358 CURVE SMOOTH",
"226 358 OFFCURVE",
"281 382 OFFCURVE",
"281 459 CURVE",
"212 397 LINE",
"212 346 OFFCURVE",
"112 313 OFFCURVE",
"112 210 CURVE SMOOTH",
"112 162 LINE SMOOTH",
"112 56 OFFCURVE",
"189 -10 OFFCURVE",
"316 -10 CURVE SMOOTH"
);
},
{
closed = 1;
nodes = (
"141 406 OFFCURVE",
"118 425 OFFCURVE",
"118 459 CURVE SMOOTH",
"118 493 OFFCURVE",
"141 512 OFFCURVE",
"173 512 CURVE SMOOTH",
"205 512 OFFCURVE",
"228 493 OFFCURVE",
"228 459 CURVE SMOOTH",
"228 424 OFFCURVE",
"205 406 OFFCURVE",
"173 406 CURVE SMOOTH"
);
},
{
closed = 1;
nodes = (
"437 381 LINE",
"444 381 LINE",
"444 398 LINE",
"437 398 LINE"
);
}
);
userData = {
com.schriftgestaltung.Glyphs.glyph.leftMetricsKey = "khoKhai-thai";
};
width = 605;
},
{
anchors = (
{
name = bottom;
position = "{339, 0}";
},
{
name = bottomright;
position = "{592, 0}";
},
{
name = top;
position = "{339, 563}";
},
{
name = topright;
position = "{592, 563}";
}
);
layerId = "EB3A5D6C-8260-43A6-9EF2-63971FC08D48";
paths = (
{
closed = 1;
nodes = (
"504 -15 OFFCURVE",
"597 55 OFFCURVE",
"597 185 CURVE SMOOTH",
"597 269 LINE SMOOTH",
"597 330 OFFCURVE",
"562 399 OFFCURVE",
"500 399 CURVE",
"500 384 LINE",
"561 384 OFFCURVE",
"587 425 OFFCURVE",
"587 490 CURVE SMOOTH",
"587 563 LINE",
"408 563 LINE",
"408 493 LINE SMOOTH",
"408 458 OFFCURVE",
"399 445 OFFCURVE",
"364 445 CURVE",
"364 335 LINE",
"393 335 OFFCURVE",
"411 322 OFFCURVE",
"411 289 CURVE SMOOTH",
"411 202 LINE SMOOTH",
"411 147 OFFCURVE",
"389 124 OFFCURVE",
"340 124 CURVE SMOOTH",
"293 124 OFFCURVE",
"267 149 OFFCURVE",
"267 187 CURVE SMOOTH",
"267 220 LINE SMOOTH",
"267 303 OFFCURVE",
"324 306 OFFCURVE",
"324 439 CURVE SMOOTH",
"324 527 OFFCURVE",
"259 573 OFFCURVE",
"175 573 CURVE SMOOTH",
"95 573 OFFCURVE",
"49 525 OFFCURVE",
"49 466 CURVE SMOOTH",
"49 408 OFFCURVE",
"87 359 OFFCURVE",
"153 359 CURVE SMOOTH",
"225 359 OFFCURVE",
"288 403 OFFCURVE",
"288 466 CURVE",
"173 403 LINE",
"173 352 OFFCURVE",
"81 333 OFFCURVE",
"81 210 CURVE SMOOTH",
"81 175 LINE SMOOTH",
"81 48 OFFCURVE",
"184 -15 OFFCURVE",
"340 -15 CURVE SMOOTH"
);
},
{
closed = 1;
nodes = (
"141 421 OFFCURVE",
"121 437 OFFCURVE",
"121 466 CURVE SMOOTH",
"121 495 OFFCURVE",
"141 511 OFFCURVE",
"168 511 CURVE SMOOTH",
"195 511 OFFCURVE",
"215 495 OFFCURVE",
"215 466 CURVE SMOOTH",
"215 436 OFFCURVE",
"195 421 OFFCURVE",
"168 421 CURVE SMOOTH"
);
},
{
closed = 1;
nodes = (
"531 382 LINE",
"538 382 LINE",
"538 399 LINE",
"531 399 LINE"
);
}
);
userData = {
com.schriftgestaltung.Glyphs.glyph.leftMetricsKey = "khoKhai-thai";
};
width = 659;
},
{
anchors = (
{
name = bottom;
position = "{271, 0}";
},
{
name = bottomright;
position = "{478, 0}";
},
{
name = top;
position = "{271, 561}";
},
{
name = topright;
position = "{484, 561}";
}
);
layerId = "C987F20E-C470-4905-85F8-C37EA20127D7";
paths = (
{
closed = 1;
nodes = (
"407 -15 OFFCURVE",
"483 52 OFFCURVE",
"483 182 CURVE SMOOTH",
"483 271 LINE SMOOTH",
"483 331 OFFCURVE",
"454 398 OFFCURVE",
"403 398 CURVE",
"403 383 LINE",
"463 383 OFFCURVE",
"479 427 OFFCURVE",
"479 485 CURVE SMOOTH",
"479 561 LINE",
"329 561 LINE",
"329 488 LINE SMOOTH",
"329 459 OFFCURVE",
"327 444 OFFCURVE",
"291 444 CURVE",
"291 334 LINE",
"318 334 OFFCURVE",
"327 320 OFFCURVE",
"327 291 CURVE SMOOTH",
"327 198 LINE SMOOTH",
"327 148 OFFCURVE",
"315 123 OFFCURVE",
"272 123 CURVE SMOOTH",
"234 123 OFFCURVE",
"215 145 OFFCURVE",
"215 182 CURVE SMOOTH",
"215 232 LINE SMOOTH",
"215 315 OFFCURVE",
"261 339 OFFCURVE",
"261 438 CURVE SMOOTH",
"261 526 OFFCURVE",
"211 571 OFFCURVE",
"142 571 CURVE SMOOTH",
"72 571 OFFCURVE",
"33 523 OFFCURVE",
"33 464 CURVE SMOOTH",
"33 400 OFFCURVE",
"72 358 OFFCURVE",
"126 358 CURVE SMOOTH",
"186 358 OFFCURVE",
"233 397 OFFCURVE",
"233 464 CURVE",
"131 401 LINE",
"131 351 OFFCURVE",
"59 335 OFFCURVE",
"59 212 CURVE SMOOTH",
"59 172 LINE SMOOTH",
"59 45 OFFCURVE",
"144 -15 OFFCURVE",
"272 -15 CURVE SMOOTH"
);
},
{
closed = 1;
nodes = (
"112 419 OFFCURVE",
"96 436 OFFCURVE",
"96 464 CURVE SMOOTH",
"96 493 OFFCURVE",
"112 510 OFFCURVE",
"134 510 CURVE SMOOTH",
"157 510 OFFCURVE",
"173 493 OFFCURVE",
"173 464 CURVE SMOOTH",
"173 435 OFFCURVE",
"157 419 OFFCURVE",
"134 419 CURVE SMOOTH"
);
},
{
closed = 1;
nodes = (
"429 379 LINE",
"436 379 LINE",
"436 396 LINE",
"429 396 LINE"
);
}
);
userData = {
com.schriftgestaltung.Glyphs.glyph.leftMetricsKey = "khoKhai-thai";
};
width = 530;
},
{
anchors = (
{
name = bottom;
position = "{286, 0}";
},
{
name = bottomright;
position = "{460, 0}";
},
{
name = top;
position = "{286, 550}";
},
{
name = topright;
position = "{463, 550}";
}
);
layerId = "90A34054-68E4-499D-AE50-276C7B026D8B";
paths = (
{
closed = 1;
nodes = (
"392 -8 OFFCURVE",
"465 44 OFFCURVE",
"465 155 CURVE SMOOTH",
"465 268 LINE SMOOTH",
"465 347 OFFCURVE",
"425 387 OFFCURVE",
"348 387 CURVE",
"348 376 LINE",
"414 376 OFFCURVE",
"458 412 OFFCURVE",
"458 477 CURVE SMOOTH",
"458 550 LINE",
"433 550 LINE",
"433 481 LINE SMOOTH",
"433 432 OFFCURVE",
"413 393 OFFCURVE",
"330 393 CURVE",
"330 371 LINE",
"411 371 OFFCURVE",
"440 330 OFFCURVE",
"440 271 CURVE SMOOTH",
"440 160 LINE SMOOTH",
"440 53 OFFCURVE",
"371 15 OFFCURVE",
"286 15 CURVE SMOOTH",
"183 15 OFFCURVE",
"131 77 OFFCURVE",
"131 160 CURVE SMOOTH",
"131 207 LINE SMOOTH",
"131 324 OFFCURVE",
"236 333 OFFCURVE",
"236 457 CURVE SMOOTH",
"236 518 OFFCURVE",
"209 555 OFFCURVE",
"153 555 CURVE SMOOTH",
"101 555 OFFCURVE",
"72 518 OFFCURVE",
"72 475 CURVE SMOOTH",
"72 433 OFFCURVE",
"101 395 OFFCURVE",
"152 395 CURVE SMOOTH",
"193 395 OFFCURVE",
"230 420 OFFCURVE",
"230 475 CURVE",
"206 427 LINE",
"206 349 OFFCURVE",
"106 329 OFFCURVE",
"106 212 CURVE SMOOTH",
"106 154 LINE SMOOTH",
"106 63 OFFCURVE",
"168 -8 OFFCURVE",
"286 -8 CURVE SMOOTH"
);
},
{
closed = 1;
nodes = (
"118 418 OFFCURVE",
"97 441 OFFCURVE",
"97 475 CURVE SMOOTH",
"97 509 OFFCURVE",
"118 532 OFFCURVE",
"153 532 CURVE SMOOTH",
"189 532 OFFCURVE",
"209 509 OFFCURVE",
"209 475 CURVE SMOOTH",
"209 441 OFFCURVE",
"189 418 OFFCURVE",
"153 418 CURVE SMOOTH"
);
},
{
closed = 1;
nodes = (
"386 373 LINE",
"393 373 LINE",
"393 390 LINE",
"386 390 LINE"
);
}
);
width = 555;
},
{
anchors = (
{
name = bottom;
position = "{212, 0}";
},
{
name = bottomright;
position = "{337, 0}";
},
{
name = top;
position = "{212, 548}";
},
{
name = topright;
position = "{341, 548}";
}
);
layerId = "31946225-6F4F-4A3A-A9E3-76FE8DE38A50";
paths = (
{
closed = 1;
nodes = (
"298 -8 OFFCURVE",
"342 48 OFFCURVE",
"342 139 CURVE SMOOTH",
"342 277 LINE SMOOTH",
"342 348 OFFCURVE",
"318 386 OFFCURVE",
"257 386 CURVE",
"257 375 LINE",
"305 375 OFFCURVE",
"336 403 OFFCURVE",
"336 467 CURVE SMOOTH",
"336 548 LINE",
"312 548 LINE",
"312 471 LINE SMOOTH",
"312 428 OFFCURVE",
"302 392 OFFCURVE",
"244 392 CURVE",
"244 368 LINE",
"304 368 OFFCURVE",
"318 333 OFFCURVE",
"318 280 CURVE SMOOTH",
"318 145 LINE SMOOTH",
"318 62 OFFCURVE",
"284 15 OFFCURVE",
"212 15 CURVE SMOOTH",
"140 15 OFFCURVE",
"106 62 OFFCURVE",
"106 145 CURVE SMOOTH",
"106 218 LINE SMOOTH",
"106 335 OFFCURVE",
"179 333 OFFCURVE",
"179 456 CURVE SMOOTH",
"179 520 OFFCURVE",
"158 553 OFFCURVE",
"117 553 CURVE SMOOTH",
"79 553 OFFCURVE",
"55 519 OFFCURVE",
"55 473 CURVE SMOOTH",
"55 428 OFFCURVE",
"80 394 OFFCURVE",
"117 394 CURVE SMOOTH",
"154 394 OFFCURVE",
"175 431 OFFCURVE",
"175 473 CURVE",
"154 425 LINE",
"154 351 OFFCURVE",
"82 338 OFFCURVE",
"82 221 CURVE SMOOTH",
"82 139 LINE SMOOTH",
"82 48 OFFCURVE",
"126 -8 OFFCURVE",
"212 -8 CURVE SMOOTH"
);
},
{
closed = 1;
nodes = (
"93 414 OFFCURVE",
"77 438 OFFCURVE",
"77 473 CURVE SMOOTH",
"77 509 OFFCURVE",
"93 532 OFFCURVE",
"117 532 CURVE SMOOTH",
"142 532 OFFCURVE",
"155 509 OFFCURVE",
"155 473 CURVE SMOOTH",
"155 438 OFFCURVE",
"142 414 OFFCURVE",
"117 414 CURVE SMOOTH"
);
},
{
closed = 1;
nodes = (
"286 372 LINE",
"293 372 LINE",
"293 389 LINE",
"286 389 LINE"
);
}
);
width = 418;
},
{
anchors = (
{
name = bottom;
position = "{236, 0}";
},
{
name = bottomright;
position = "{384, 0}";
},
{
name = top;
position = "{237, 551}";
},
{
name = topright;
position = "{394, 551}";
}
);
layerId = "9F3C76A5-8ED6-4D1B-8CC9-A050DF474D58";
paths = (
{
closed = 1;
nodes = (
"331 -10 OFFCURVE",
"389 50 OFFCURVE",
"389 156 CURVE SMOOTH",
"389 275 LINE SMOOTH",
"389 347 OFFCURVE",
"366 396 OFFCURVE",
"299 396 CURVE",
"299 382 LINE",
"370 382 OFFCURVE",
"389 422 OFFCURVE",
"389 480 CURVE SMOOTH",
"389 551 LINE",
"314 551 LINE",
"314 487 LINE SMOOTH",
"314 446 OFFCURVE",
"314 418 OFFCURVE",
"263 418 CURVE",
"263 353 LINE",
"305 353 OFFCURVE",
"313 329 OFFCURVE",
"313 285 CURVE SMOOTH",
"313 163 LINE SMOOTH",
"313 104 OFFCURVE",
"298 61 OFFCURVE",
"236 61 CURVE SMOOTH",
"170 61 OFFCURVE",
"160 110 OFFCURVE",
"160 162 CURVE SMOOTH",
"160 206 LINE SMOOTH",
"160 309 OFFCURVE",
"228 314 OFFCURVE",
"228 447 CURVE SMOOTH",
"228 507 OFFCURVE",
"196 558 OFFCURVE",
"132 558 CURVE SMOOTH",
"81 558 OFFCURVE",
"46 516 OFFCURVE",
"46 457 CURVE SMOOTH",
"46 396 OFFCURVE",
"80 357 OFFCURVE",
"131 357 CURVE SMOOTH",
"180 357 OFFCURVE",
"206 392 OFFCURVE",
"206 457 CURVE",
"158 396 LINE",
"158 345 OFFCURVE",
"83 319 OFFCURVE",
"83 216 CURVE SMOOTH",
"83 154 LINE SMOOTH",
"83 49 OFFCURVE",
"141 -10 OFFCURVE",
"236 -10 CURVE SMOOTH"
);
},
{
closed = 1;
nodes = (
"105 401 OFFCURVE",
"92 424 OFFCURVE",
"92 457 CURVE SMOOTH",
"92 491 OFFCURVE",
"105 514 OFFCURVE",
"131 514 CURVE SMOOTH",
"157 514 OFFCURVE",
"170 491 OFFCURVE",
"170 457 CURVE SMOOTH",
"170 423 OFFCURVE",
"157 401 OFFCURVE",
"131 401 CURVE SMOOTH"
);
},
{
closed = 1;
nodes = (
"335 379 LINE",
"342 379 LINE",
"342 396 LINE",
"335 396 LINE"
);
}
);
userData = {
com.schriftgestaltung.Glyphs.glyph.leftMetricsKey = "khoKhai-thai";
};
width = 452;
}
);
leftKerningGroup = "khoKhai-thai";
leftMetricsKey = "khoKhai-thai";
unicode = 0E0A;
},
{
glyphname = "soSo-thai";
lastChange = "2020-11-13 21:26:41 +0000";
layers = (
{
anchors = (
{
name = bottom;
position = "{324, 0}";
},
{
name = bottomright;
position = "{527, 0}";
},
{
name = top;
position = "{324, 553}";
},
{
name = topright;
position = "{519, 553}";
}
);
hints = (
{
horizontal = 1;
origin = "{0, 65}";
target = "{0, 24}";
type = Stem;
},
{
horizontal = 1;
origin = "{0, 35}";
target = down;
type = TopGhost;
},
{
origin = "{0, 21}";
target = "{0, 2}";
type = Stem;
},
{
horizontal = 1;
origin = "{1, 5}";
target = "{0, 45}";
type = Stem;
}
);
layerId = "59720D05-F04C-4F19-83A4-486FF5963186";
paths = (
{
closed = 1;
nodes = (
"454 -10 OFFCURVE",
"532 56 OFFCURVE",
"532 163 CURVE SMOOTH",
"532 269 LINE SMOOTH",
"532 342 OFFCURVE",
"491 397 OFFCURVE",
"401 397 CURVE",
"402 383 LINE",
"489 383 OFFCURVE",
"520 424 OFFCURVE",
"520 489 CURVE SMOOTH",
"520 553 LINE",
"441 553 LINE",
"441 496 LINE SMOOTH",
"441 452 OFFCURVE",
"432 420 OFFCURVE",
"366 420 CURVE",
"366 354 LINE",
"418 354 OFFCURVE",
"446 328 OFFCURVE",
"446 279 CURVE SMOOTH",
"446 170 LINE SMOOTH",
"446 110 OFFCURVE",
"405 62 OFFCURVE",
"324 62 CURVE SMOOTH",
"243 62 OFFCURVE",
"202 110 OFFCURVE",
"202 170 CURVE SMOOTH",
"202 193 LINE SMOOTH",
"202 306 OFFCURVE",
"323 330 OFFCURVE",
"323 458 CURVE SMOOTH",
"323 493 OFFCURVE",
"319 520 OFFCURVE",
"312 553 CURVE",
"264 553 LINE",
"264 502 OFFCURVE",
"246 448 OFFCURVE",
"202 448 CURVE",
"226 426 LINE",
"233 438 OFFCURVE",
"236 451 OFFCURVE",
"236 466 CURVE SMOOTH",
"236 515 OFFCURVE",
"205 560 OFFCURVE",
"141 560 CURVE SMOOTH",
"81 560 OFFCURVE",
"43 519 OFFCURVE",
"43 466 CURVE SMOOTH",
"43 408 OFFCURVE",
"84 370 OFFCURVE",
"145 370 CURVE SMOOTH",
"211 370 OFFCURVE",
"283 423 OFFCURVE",
"283 477 CURVE",
"257 477 LINE",
"259 468 OFFCURVE",
"260 461 OFFCURVE",
"260 451 CURVE SMOOTH",
"260 366 OFFCURVE",
"116 334 OFFCURVE",
"116 196 CURVE SMOOTH",
"116 162 LINE SMOOTH",
"116 55 OFFCURVE",
"194 -10 OFFCURVE",
"324 -10 CURVE SMOOTH"
);
},
{
closed = 1;
nodes = (
"112 423 OFFCURVE",
"93 439 OFFCURVE",
"93 468 CURVE SMOOTH",
"93 498 OFFCURVE",
"112 514 OFFCURVE",
"139 514 CURVE SMOOTH",
"166 514 OFFCURVE",
"185 498 OFFCURVE",
"185 468 CURVE SMOOTH",
"185 438 OFFCURVE",
"166 423 OFFCURVE",
"139 423 CURVE SMOOTH"
);
},
{
closed = 1;
nodes = (
"449 380 LINE",
"456 380 LINE",
"456 397 LINE",
"449 397 LINE"
);
}
);
userData = {
com.schriftgestaltung.Glyphs.glyph.rightMetricsKey = "choChang-thai";
};
width = 617;
},
{
anchors = (
{
name = bottom;
position = "{363, 0}";
},
{
name = bottomright;
position = "{618, 0}";
},
{
name = top;
position = "{363, 563}";
},
{
name = topright;
position = "{613, 563}";
}
);
layerId = "EB3A5D6C-8260-43A6-9EF2-63971FC08D48";
paths = (
{
closed = 1;
nodes = (
"531 -15 OFFCURVE",
"623 60 OFFCURVE",
"623 190 CURVE SMOOTH",
"623 269 LINE SMOOTH",
"623 330 OFFCURVE",
"588 399 OFFCURVE",
"526 399 CURVE",
"526 384 LINE",
"587 384 OFFCURVE",
"613 425 OFFCURVE",
"613 490 CURVE SMOOTH",
"613 563 LINE",
"434 563 LINE",
"434 493 LINE SMOOTH",
"434 458 OFFCURVE",
"425 445 OFFCURVE",
"392 445 CURVE",
"392 335 LINE",
"421 335 OFFCURVE",
"437 322 OFFCURVE",
"437 289 CURVE SMOOTH",
"437 196 LINE SMOOTH",
"437 155 OFFCURVE",
"412 124 OFFCURVE",
"362 124 CURVE SMOOTH",
"312 124 OFFCURVE",
"288 158 OFFCURVE",
"288 196 CURVE SMOOTH",
"288 218 LINE SMOOTH",
"288 301 OFFCURVE",
"365 336 OFFCURVE",
"365 449 CURVE SMOOTH",
"365 488 OFFCURVE",
"362 525 OFFCURVE",
"355 563 CURVE",
"263 563 LINE",
"263 516 OFFCURVE",
"251 475 OFFCURVE",
"219 475 CURVE",
"237 446 LINE",
"242 454 OFFCURVE",
"245 463 OFFCURVE",
"245 473 CURVE SMOOTH",
"245 526 OFFCURVE",
"205 573 OFFCURVE",
"135 573 CURVE SMOOTH",
"65 573 OFFCURVE",
"22 527 OFFCURVE",
"22 470 CURVE SMOOTH",
"22 397 OFFCURVE",
"76 357 OFFCURVE",
"146 357 CURVE SMOOTH",
"207 357 OFFCURVE",
"243 405 OFFCURVE",
"243 442 CURVE",
"214 442 LINE",
"215 439 OFFCURVE",
"216 429 OFFCURVE",
"216 423 CURVE SMOOTH",
"216 372 OFFCURVE",
"102 341 OFFCURVE",
"102 210 CURVE SMOOTH",
"102 180 LINE SMOOTH",
"102 53 OFFCURVE",
"199 -15 OFFCURVE",
"361 -15 CURVE SMOOTH"
);
},
{
closed = 1;
nodes = (
"110 426 OFFCURVE",
"90 442 OFFCURVE",
"90 470 CURVE SMOOTH",
"90 498 OFFCURVE",
"110 514 OFFCURVE",
"136 514 CURVE SMOOTH",
"162 514 OFFCURVE",
"182 498 OFFCURVE",
"182 470 CURVE SMOOTH",
"182 441 OFFCURVE",
"162 426 OFFCURVE",
"136 426 CURVE SMOOTH"
);
},
{
closed = 1;
nodes = (
"558 382 LINE",
"565 382 LINE",
"565 399 LINE",
"558 399 LINE"
);
}
);
userData = {
com.schriftgestaltung.Glyphs.glyph.rightMetricsKey = "choChang-thai";
};
width = 685;
},
{
anchors = (
{
name = bottom;
position = "{294, 0}";
},
{
name = bottomright;
position = "{505, 0}";
},
{
name = top;
position = "{294, 561}";
},
{
name = topright;
position = "{511, 561}";
}
);
layerId = "C987F20E-C470-4905-85F8-C37EA20127D7";
paths = (
{
closed = 1;
nodes = (
"435 -15 OFFCURVE",
"510 60 OFFCURVE",
"510 190 CURVE SMOOTH",
"510 271 LINE SMOOTH",
"510 331 OFFCURVE",
"481 398 OFFCURVE",
"430 398 CURVE",
"430 383 LINE",
"490 383 OFFCURVE",
"506 427 OFFCURVE",
"506 485 CURVE SMOOTH",
"506 561 LINE",
"356 561 LINE",
"356 488 LINE SMOOTH",
"356 457 OFFCURVE",
"351 444 OFFCURVE",
"320 444 CURVE",
"320 334 LINE",
"344 334 OFFCURVE",
"354 320 OFFCURVE",
"354 291 CURVE SMOOTH",
"354 190 LINE SMOOTH",
"354 150 OFFCURVE",
"337 122 OFFCURVE",
"296 122 CURVE SMOOTH",
"255 122 OFFCURVE",
"234 153 OFFCURVE",
"234 190 CURVE SMOOTH",
"234 217 LINE SMOOTH",
"234 300 OFFCURVE",
"301 335 OFFCURVE",
"301 447 CURVE SMOOTH",
"301 486 OFFCURVE",
"298 523 OFFCURVE",
"292 561 CURVE",
"204 561 LINE",
"204 519 OFFCURVE",
"203 477 OFFCURVE",
"170 477 CURVE",
"190 448 LINE",
"193 456 OFFCURVE",
"194 463 OFFCURVE",
"194 471 CURVE SMOOTH",
"194 526 OFFCURVE",
"158 571 OFFCURVE",
"101 571 CURVE SMOOTH",
"44 571 OFFCURVE",
"6 529 OFFCURVE",
"6 467 CURVE SMOOTH",
"6 400 OFFCURVE",
"51 364 OFFCURVE",
"108 364 CURVE SMOOTH",
"153 364 OFFCURVE",
"186 406 OFFCURVE",
"186 440 CURVE",
"168 440 LINE",
"169 437 OFFCURVE",
"170 427 OFFCURVE",
"170 421 CURVE SMOOTH",
"170 371 OFFCURVE",
"78 340 OFFCURVE",
"78 209 CURVE SMOOTH",
"78 180 LINE SMOOTH",
"78 53 OFFCURVE",
"163 -15 OFFCURVE",
"295 -15 CURVE SMOOTH"
);
},
{
closed = 1;
nodes = (
"81 425 OFFCURVE",
"67 440 OFFCURVE",
"67 467 CURVE SMOOTH",
"67 495 OFFCURVE",
"81 510 OFFCURVE",
"102 510 CURVE SMOOTH",
"123 510 OFFCURVE",
"137 495 OFFCURVE",
"137 467 CURVE SMOOTH",
"137 439 OFFCURVE",
"123 425 OFFCURVE",
"102 425 CURVE SMOOTH"
);
},
{
closed = 1;
nodes = (
"457 380 LINE",
"464 380 LINE",
"464 397 LINE",
"457 397 LINE"
);
}
);
userData = {
com.schriftgestaltung.Glyphs.glyph.rightMetricsKey = "choChang-thai";
};
width = 557;
},
{
anchors = (
{
name = bottom;
position = "{304, 0}";
},
{
name = bottomright;
position = "{477, 0}";
},
{
name = top;
position = "{304, 550}";
},
{
name = topright;
position = "{480, 550}";
}
);
layerId = "90A34054-68E4-499D-AE50-276C7B026D8B";
paths = (
{
closed = 1;
nodes = (
"405 -8 OFFCURVE",
"482 40 OFFCURVE",
"482 153 CURVE SMOOTH",
"482 268 LINE SMOOTH",
"482 347 OFFCURVE",
"442 387 OFFCURVE",
"365 387 CURVE",
"365 376 LINE",
"431 376 OFFCURVE",
"475 412 OFFCURVE",
"475 477 CURVE SMOOTH",
"475 550 LINE",
"450 550 LINE",
"450 481 LINE SMOOTH",
"450 432 OFFCURVE",
"430 393 OFFCURVE",
"347 393 CURVE",
"347 371 LINE",
"428 371 OFFCURVE",
"457 330 OFFCURVE",
"457 271 CURVE SMOOTH",
"457 160 LINE SMOOTH",
"457 52 OFFCURVE",
"386 16 OFFCURVE",
"301 16 CURVE SMOOTH",
"197 16 OFFCURVE",
"150 80 OFFCURVE",
"150 155 CURVE SMOOTH",
"150 206 LINE SMOOTH",
"150 346 OFFCURVE",
"286 340 OFFCURVE",
"286 464 CURVE SMOOTH",
"286 495 OFFCURVE",
"281 526 OFFCURVE",
"276 550 CURVE",
"259 550 LINE",
"259 493 OFFCURVE",
"222 431 OFFCURVE",
"177 431 CURVE",
"183 413 LINE",
"205 428 OFFCURVE",
"216 446 OFFCURVE",
"216 477 CURVE SMOOTH",
"216 521 OFFCURVE",
"185 555 OFFCURVE",
"137 555 CURVE SMOOTH",
"84 555 OFFCURVE",
"54 522 OFFCURVE",
"54 476 CURVE SMOOTH",
"54 428 OFFCURVE",
"90 397 OFFCURVE",
"142 397 CURVE SMOOTH",
"203 397 OFFCURVE",
"265 449 OFFCURVE",
"265 493 CURVE",
"260 493 LINE",
"262 485 OFFCURVE",
"262 472 OFFCURVE",
"262 461 CURVE SMOOTH",
"262 360 OFFCURVE",
"125 352 OFFCURVE",
"125 212 CURVE SMOOTH",
"125 149 LINE SMOOTH",
"125 68 OFFCURVE",
"179 -8 OFFCURVE",
"301 -8 CURVE SMOOTH"
);
},
{
closed = 1;
nodes = (
"101 421 OFFCURVE",
"79 444 OFFCURVE",
"79 476 CURVE SMOOTH",
"79 509 OFFCURVE",
"101 532 OFFCURVE",
"135 532 CURVE SMOOTH",
"171 532 OFFCURVE",
"191 508 OFFCURVE",
"191 476 CURVE SMOOTH",
"191 442 OFFCURVE",
"167 421 OFFCURVE",
"135 421 CURVE SMOOTH"
);
},
{
closed = 1;
nodes = (
"404 373 LINE",
"411 373 LINE",
"411 390 LINE",
"404 390 LINE"
);
}
);
width = 572;
},
{
anchors = (
{
name = bottom;
position = "{212, 0}";
},
{
name = bottomright;
position = "{335, 0}";
},
{
name = top;
position = "{212, 548}";
},
{
name = topright;
position = "{334, 548}";
}
);
layerId = "31946225-6F4F-4A3A-A9E3-76FE8DE38A50";
paths = (
{
closed = 1;
nodes = (
"306 -8 OFFCURVE",
"340 58 OFFCURVE",
"340 139 CURVE SMOOTH",
"340 277 LINE SMOOTH",
"340 348 OFFCURVE",
"316 386 OFFCURVE",
"255 386 CURVE",
"255 375 LINE",
"303 375 OFFCURVE",
"334 403 OFFCURVE",
"334 467 CURVE SMOOTH",
"334 548 LINE",
"310 548 LINE",
"310 471 LINE SMOOTH",
"310 428 OFFCURVE",
"300 392 OFFCURVE",
"242 392 CURVE",
"242 368 LINE",
"302 368 OFFCURVE",
"316 333 OFFCURVE",
"316 280 CURVE SMOOTH",
"316 145 LINE SMOOTH",
"316 72 OFFCURVE",
"290 15 OFFCURVE",
"212 15 CURVE SMOOTH",
"134 15 OFFCURVE",
"108 72 OFFCURVE",
"108 145 CURVE SMOOTH",
"108 215 LINE SMOOTH",
"108 355 OFFCURVE",
"205 340 OFFCURVE",
"205 462 CURVE SMOOTH",
"205 491 OFFCURVE",
"200 524 OFFCURVE",
"196 548 CURVE",
"180 548 LINE",
"180 491 OFFCURVE",
"159 431 OFFCURVE",
"122 431 CURVE",
"131 418 LINE",
"145 431 OFFCURVE",
"149 452 OFFCURVE",
"149 475 CURVE SMOOTH",
"149 519 OFFCURVE",
"127 553 OFFCURVE",
"92 553 CURVE SMOOTH",
"53 553 OFFCURVE",
"33 520 OFFCURVE",
"33 474 CURVE SMOOTH",
"33 426 OFFCURVE",
"58 397 OFFCURVE",
"95 397 CURVE SMOOTH",
"141 397 OFFCURVE",
"188 442 OFFCURVE",
"188 495 CURVE",
"181 495 LINE",
"183 484 OFFCURVE",
"184 475 OFFCURVE",
"184 462 CURVE SMOOTH",
"184 360 OFFCURVE",
"84 361 OFFCURVE",
"84 221 CURVE SMOOTH",
"84 139 LINE SMOOTH",
"84 58 OFFCURVE",
"122 -8 OFFCURVE",
"212 -8 CURVE SMOOTH"
);
},
{
closed = 1;
nodes = (
"66 417 OFFCURVE",
"55 443 OFFCURVE",
"55 474 CURVE SMOOTH",
"55 507 OFFCURVE",
"66 532 OFFCURVE",
"90 532 CURVE SMOOTH",
"116 532 OFFCURVE",
"127 507 OFFCURVE",
"127 474 CURVE SMOOTH",
"127 441 OFFCURVE",
"114 417 OFFCURVE",
"90 417 CURVE SMOOTH"
);
},
{
closed = 1;
nodes = (
"284 372 LINE",
"291 372 LINE",
"291 389 LINE",
"284 389 LINE"
);
}
);
width = 416;
},
{
anchors = (
{
name = bottom;
position = "{241, 0}";
},
{
name = bottomright;
position = "{393, 0}";
},
{
name = top;
position = "{241, 551}";
},
{
name = topright;
position = "{403, 551}";
}
);
layerId = "9F3C76A5-8ED6-4D1B-8CC9-A050DF474D58";
paths = (
{
closed = 1;
nodes = (
"338 -10 OFFCURVE",
"398 50 OFFCURVE",
"398 156 CURVE SMOOTH",
"398 275 LINE SMOOTH",
"398 347 OFFCURVE",
"375 396 OFFCURVE",
"308 396 CURVE",
"308 382 LINE",
"379 382 OFFCURVE",
"398 422 OFFCURVE",
"398 480 CURVE SMOOTH",
"398 551 LINE",
"323 551 LINE",
"323 487 LINE SMOOTH",
"323 446 OFFCURVE",
"323 418 OFFCURVE",
"276 418 CURVE",
"276 353 LINE",
"315 353 OFFCURVE",
"322 329 OFFCURVE",
"322 287 CURVE SMOOTH",
"322 163 LINE SMOOTH",
"322 104 OFFCURVE",
"308 61 OFFCURVE",
"243 61 CURVE SMOOTH",
"183 61 OFFCURVE",
"159 103 OFFCURVE",
"159 163 CURVE SMOOTH",
"159 199 LINE SMOOTH",
"159 314 OFFCURVE",
"249 329 OFFCURVE",
"249 456 CURVE SMOOTH",
"249 491 OFFCURVE",
"246 518 OFFCURVE",
"241 551 CURVE",
"194 551 LINE",
"194 499 OFFCURVE",
"184 451 OFFCURVE",
"156 451 CURVE",
"169 425 LINE",
"174 437 OFFCURVE",
"176 449 OFFCURVE",
"176 464 CURVE SMOOTH",
"176 513 OFFCURVE",
"153 558 OFFCURVE",
"101 558 CURVE SMOOTH",
"52 558 OFFCURVE",
"23 517 OFFCURVE",
"23 464 CURVE SMOOTH",
"23 407 OFFCURVE",
"55 369 OFFCURVE",
"104 369 CURVE SMOOTH",
"163 369 OFFCURVE",
"208 425 OFFCURVE",
"208 472 CURVE",
"189 472 LINE",
"190 465 OFFCURVE",
"191 457 OFFCURVE",
"191 449 CURVE SMOOTH",
"191 365 OFFCURVE",
"83 340 OFFCURVE",
"83 202 CURVE SMOOTH",
"83 155 LINE SMOOTH",
"83 53 OFFCURVE",
"144 -10 OFFCURVE",
"243 -10 CURVE SMOOTH"
);
},
{
closed = 1;
nodes = (
"77 412 OFFCURVE",
"68 438 OFFCURVE",
"68 466 CURVE SMOOTH",
"68 496 OFFCURVE",
"77 516 OFFCURVE",
"100 516 CURVE SMOOTH",
"123 516 OFFCURVE",
"131 496 OFFCURVE",
"131 466 CURVE SMOOTH",
"131 437 OFFCURVE",
"123 412 OFFCURVE",
"100 412 CURVE SMOOTH"
);
},
{
closed = 1;
nodes = (
"344 379 LINE",
"351 379 LINE",
"351 396 LINE",
"344 396 LINE"
);
}
);
userData = {
com.schriftgestaltung.Glyphs.glyph.rightMetricsKey = "choChang-thai";
};
width = 461;
}
);
leftKerningGroup = "khoKhai-thai";
note = "\012uni0E0B\012";
rightMetricsKey = "choChang-thai";
unicode = 0E0B;
},
{
glyphname = "soSo-thai_macronbelowcomb";
lastChange = "2020-11-15 17:47:47 +0000";
layers = (
{
anchors = (
{
name = bottom;
position = "{279, -100}";
},
{
name = bottomright;
position = "{473, -100}";
}
);
components = (
{
name = "soSo-thai";
}
);
layerId = "90A34054-68E4-499D-AE50-276C7B026D8B";
paths = (
{
closed = 1;
nodes = (
"85 -77 LINE",
"85 -100 LINE",
"473 -100 LINE",
"473 -77 LINE"
);
}
);
width = 572;
},
{
anchors = (
{
name = bottom;
position = "{313, -149}";
},
{
name = bottomright;
position = "{532, -149}";
}
);
components = (
{
name = "soSo-thai";
}
);
hints = (
{
horizontal = 1;
origin = "{0, 1}";
target = "{0, 0}";
type = Stem;
}
);
layerId = "59720D05-F04C-4F19-83A4-486FF5963186";
paths = (
{
closed = 1;
nodes = (
"93 -77 LINE",
"93 -149 LINE",
"532 -149 LINE",
"532 -77 LINE"
);
}
);
width = 617;
},
{
anchors = (
{
name = bottom;
position = "{354, -219}";
},
{
name = bottomright;
position = "{623, -219}";
}
);
components = (
{
name = "soSo-thai";
}
);
layerId = "EB3A5D6C-8260-43A6-9EF2-63971FC08D48";
paths = (
{
closed = 1;
nodes = (
"84 -77 LINE",
"84 -219 LINE",
"623 -219 LINE",
"623 -77 LINE"
);
}
);
width = 685;
},
{
anchors = (
{
name = bottom;
position = "{212, -97}";
},
{
name = bottomright;
position = "{340, -97}";
}
);
components = (
{
name = "soSo-thai";
}
);
layerId = "31946225-6F4F-4A3A-A9E3-76FE8DE38A50";
paths = (
{
closed = 1;
nodes = (
"84 -77 LINE",
"84 -97 LINE",
"340 -97 LINE",
"340 -77 LINE"
);
}
);
width = 416;
},
{
anchors = (
{
name = bottom;
position = "{241, -148}";
},
{
name = bottomright;
position = "{398, -148}";
}
);
components = (
{
name = "soSo-thai";
}
);
layerId = "9F3C76A5-8ED6-4D1B-8CC9-A050DF474D58";
paths = (
{
closed = 1;
nodes = (
"83 -77 LINE",
"83 -148 LINE",
"398 -148 LINE",
"398 -77 LINE"
);
}
);
width = 461;
},
{
anchors = (
{
name = bottom;
position = "{295, -215}";
},
{
name = bottomright;
position = "{510, -215}";
}
);
components = (
{
name = "soSo-thai";
}
);
layerId = "C987F20E-C470-4905-85F8-C37EA20127D7";
paths = (
{
closed = 1;
nodes = (
"80 -76 LINE",
"80 -215 LINE",
"510 -215 LINE",
"510 -76 LINE"
);
}
);
width = 557;
}
);
leftKerningGroup = "khoKhai-thai";
},
{
glyphname = "choChoe-thai";
lastChange = "2020-11-15 18:52:39 +0000";
layers = (
{
anchors = (
{
name = bottom;
position = "{436, 0}";
},
{
name = bottomright;
position = "{783, 0}";
},
{
name = top;
position = "{421, 553}";
},
{
name = topright;
position = "{783, 553}";
}
);
hints = (
{
horizontal = 1;
origin = "{0, 65}";
target = "{0, 22}";
type = Stem;
},
{
horizontal = 1;
origin = "{0, 49}";
target = up;
type = BottomGhost;
},
{
horizontal = 1;
origin = "{0, 52}";
target = down;
type = TopGhost;
},
{
origin = "{0, 26}";
target = "{0, 61}";
type = Stem;
},
{
origin = "{0, 53}";
target = "{0, 50}";
type = Stem;
},
{
origin = "{0, 75}";
target = "{0, 12}";
type = Stem;
},
{
horizontal = 1;
origin = "{0, 78}";
target = "{1, 11}";
type = Stem;
}
);
layerId = "59720D05-F04C-4F19-83A4-486FF5963186";
paths = (
{
closed = 1;
nodes = (
"245 -5 OFFCURVE",
"285 33 OFFCURVE",
"285 95 CURVE SMOOTH",
"285 156 OFFCURVE",
"243 193 OFFCURVE",
"181 193 CURVE SMOOTH",
"116 193 OFFCURVE",
"83 151 OFFCURVE",
"83 94 CURVE",
"96 94 LINE",
"96 126 OFFCURVE",
"132 166 OFFCURVE",
"162 166 CURVE",
"162 209 LINE SMOOTH",
"162 270 OFFCURVE",
"201 291 OFFCURVE",
"254 291 CURVE",
"264 350 LINE",
"111 406 LINE",
"145 371 LINE",
"145 447 OFFCURVE",
"193 491 OFFCURVE",
"292 491 CURVE SMOOTH",
"380 491 OFFCURVE",
"439 452 OFFCURVE",
"439 363 CURVE SMOOTH",
"439 263 LINE SMOOTH",
"439 235 OFFCURVE",
"440 212 OFFCURVE",
"443 194 CURVE",
"480 210 LINE",
"464 213 OFFCURVE",
"449 215 OFFCURVE",
"433 215 CURVE SMOOTH",
"365 215 OFFCURVE",
"319 173 OFFCURVE",
"319 105 CURVE SMOOTH",
"319 32 OFFCURVE",
"367 -7 OFFCURVE",
"432 -7 CURVE SMOOTH",
"510 -7 OFFCURVE",
"545 42 OFFCURVE",
"545 102 CURVE SMOOTH",
"545 119 OFFCURVE",
"543 134 OFFCURVE",
"535 150 CURVE",
"521 133 LINE",
"587 109 OFFCURVE",
"642 67 OFFCURVE",
"687 0 CURVE",
"783 0 LINE",
"783 553 LINE",
"697 553 LINE",
"697 57 LINE",
"714 77 LINE",
"662 141 OFFCURVE",
"582 188 OFFCURVE",
"504 209 CURVE",
"533 182 LINE",
"528 198 OFFCURVE",
"525 218 OFFCURVE",
"525 244 CURVE SMOOTH",
"525 372 LINE SMOOTH",
"525 505 OFFCURVE",
"425 563 OFFCURVE",
"293 563 CURVE SMOOTH",
"147 563 OFFCURVE",
"59 488 OFFCURVE",
"59 398 CURVE SMOOTH",
"59 365 LINE",
"216 311 LINE",
"207 325 LINE",
"132 325 OFFCURVE",
"76 295 OFFCURVE",
"76 199 CURVE SMOOTH",
"76 105 LINE SMOOTH",
"76 35 OFFCURVE",
"116 -5 OFFCURVE",
"181 -5 CURVE SMOOTH"
);
},
{
closed = 1;
nodes = (
"149 43 OFFCURVE",
"131 62 OFFCURVE",
"131 94 CURVE SMOOTH",
"131 127 OFFCURVE",
"149 145 OFFCURVE",
"181 145 CURVE SMOOTH",
"213 145 OFFCURVE",
"231 126 OFFCURVE",
"231 94 CURVE SMOOTH",
"231 62 OFFCURVE",
"213 43 OFFCURVE",
"181 43 CURVE SMOOTH"
);
},
{
closed = 1;
nodes = (
"395 49 OFFCURVE",
"377 69 OFFCURVE",
"377 102 CURVE SMOOTH",
"377 136 OFFCURVE",
"396 159 OFFCURVE",
"430 159 CURVE SMOOTH",
"440 159 OFFCURVE",
"447 158 OFFCURVE",
"455 156 CURVE",
"458 143 OFFCURVE",
"462 124 OFFCURVE",
"462 105 CURVE SMOOTH",
"462 70 OFFCURVE",
"449 49 OFFCURVE",
"421 49 CURVE SMOOTH"
);
},
{
closed = 1;
nodes = (
"175 314 LINE",
"182 314 LINE",
"182 332 LINE",
"175 332 LINE"
);
}
);
userData = {
com.schriftgestaltung.Glyphs.glyph.leftMetricsKey = "thoThung-thai";
com.schriftgestaltung.Glyphs.glyph.rightMetricsKey = "boBaimai-thai";
};
width = 870;
},
{
anchors = (
{
name = bottom;
position = "{464, 0}";
},
{
name = bottomright;
position = "{874, 0}";
},
{
name = top;
position = "{458, 563}";
},
{
name = topright;
position = "{874, 563}";
}
);
layerId = "EB3A5D6C-8260-43A6-9EF2-63971FC08D48";
paths = (
{
closed = 1;
nodes = (
"288 -10 OFFCURVE",
"334 38 OFFCURVE",
"334 97 CURVE SMOOTH",
"334 155 OFFCURVE",
"301 204 OFFCURVE",
"235 204 CURVE SMOOTH",
"150 204 OFFCURVE",
"120 170 OFFCURVE",
"120 97 CURVE",
"134 97 LINE",
"134 153 OFFCURVE",
"172 192 OFFCURVE",
"245 192 CURVE",
"245 206 LINE SMOOTH",
"245 234 OFFCURVE",
"262 249 OFFCURVE",
"328 249 CURVE",
"336 347 LINE",
"141 418 LINE",
"217 343 LINE",
"217 402 OFFCURVE",
"245 437 OFFCURVE",
"319 437 CURVE SMOOTH",
"385 437 OFFCURVE",
"421 399 OFFCURVE",
"421 329 CURVE SMOOTH",
"421 295 LINE SMOOTH",
"421 253 OFFCURVE",
"425 219 OFFCURVE",
"441 201 CURVE",
"516 233 LINE",
"507 240 OFFCURVE",
"487 246 OFFCURVE",
"473 246 CURVE SMOOTH",
"391 246 OFFCURVE",
"347 187 OFFCURVE",
"347 118 CURVE SMOOTH",
"347 41 OFFCURVE",
"395 -10 OFFCURVE",
"477 -10 CURVE SMOOTH",
"569 -10 OFFCURVE",
"614 52 OFFCURVE",
"614 120 CURVE SMOOTH",
"614 137 OFFCURVE",
"610 151 OFFCURVE",
"603 166 CURVE",
"567 110 LINE",
"615 87 OFFCURVE",
"652 57 OFFCURVE",
"692 0 CURVE",
"874 0 LINE",
"874 563 LINE",
"688 563 LINE",
"688 101 LINE",
"730 142 LINE",
"680 203 OFFCURVE",
"623 240 OFFCURVE",
"550 256 CURVE",
"613 174 LINE",
"613 213 OFFCURVE",
"603 237 OFFCURVE",
"603 284 CURVE SMOOTH",
"603 364 LINE SMOOTH",
"603 497 OFFCURVE",
"495 578 OFFCURVE",
"319 578 CURVE SMOOTH",
"159 578 OFFCURVE",
"42 505 OFFCURVE",
"42 382 CURVE SMOOTH",
"42 342 LINE",
"229 283 LINE",
"217 316 LINE",
"111 316 OFFCURVE",
"59 264 OFFCURVE",
"59 180 CURVE SMOOTH",
"59 144 LINE SMOOTH",
"59 36 OFFCURVE",
"124 -10 OFFCURVE",
"208 -10 CURVE SMOOTH"
);
},
{
closed = 1;
nodes = (
"188 52 OFFCURVE",
"168 68 OFFCURVE",
"168 97 CURVE SMOOTH",
"168 127 OFFCURVE",
"188 142 OFFCURVE",
"215 142 CURVE SMOOTH",
"242 142 OFFCURVE",
"262 126 OFFCURVE",
"262 97 CURVE SMOOTH",
"262 68 OFFCURVE",
"242 52 OFFCURVE",
"215 52 CURVE SMOOTH"
);
},
{
closed = 1;
nodes = (
"446 66 OFFCURVE",
"432 85 OFFCURVE",
"432 118 CURVE SMOOTH",
"432 152 OFFCURVE",
"446 169 OFFCURVE",
"474 169 CURVE SMOOTH",
"484 169 OFFCURVE",
"491 168 OFFCURVE",
"499 165 CURVE",
"502 148 OFFCURVE",
"503 135 OFFCURVE",
"503 118 CURVE SMOOTH",
"503 84 OFFCURVE",
"493 66 OFFCURVE",
"469 66 CURVE SMOOTH"
);
},
{
closed = 1;
nodes = (
"146 298 LINE",
"153 298 LINE",
"153 316 LINE",
"146 316 LINE"
);
}
);
userData = {
com.schriftgestaltung.Glyphs.glyph.leftMetricsKey = "thoThung-thai";
com.schriftgestaltung.Glyphs.glyph.rightMetricsKey = "boBaimai-thai";
};
width = 943;
},
{
anchors = (
{
name = bottom;
position = "{375, 0}";
},
{
name = bottomright;
position = "{717, 0}";
},
{
name = top;
position = "{370, 561}";
},
{
name = topright;
position = "{717, 561}";
}
);
layerId = "C987F20E-C470-4905-85F8-C37EA20127D7";
paths = (
{
closed = 1;
nodes = (
"228 -10 OFFCURVE",
"266 38 OFFCURVE",
"266 97 CURVE SMOOTH",
"266 154 OFFCURVE",
"233 203 OFFCURVE",
"179 203 CURVE SMOOTH",
"112 203 OFFCURVE",
"72 173 OFFCURVE",
"72 97 CURVE",
"93 97 LINE",
"93 153 OFFCURVE",
"135 187 OFFCURVE",
"197 187 CURVE",
"197 191 LINE SMOOTH",
"197 228 OFFCURVE",
"208 252 OFFCURVE",
"261 252 CURVE",
"267 345 LINE",
"108 423 LINE",
"167 360 LINE",
"167 395 OFFCURVE",
"186 437 OFFCURVE",
"253 437 CURVE SMOOTH",
"332 437 OFFCURVE",
"343 387 OFFCURVE",
"343 337 CURVE SMOOTH",
"343 294 LINE SMOOTH",
"343 253 OFFCURVE",
"346 222 OFFCURVE",
"358 195 CURVE",
"415 227 LINE",
"408 234 OFFCURVE",
"397 240 OFFCURVE",
"384 240 CURVE SMOOTH",
"318 240 OFFCURVE",
"285 186 OFFCURVE",
"285 116 CURVE SMOOTH",
"285 36 OFFCURVE",
"324 -10 OFFCURVE",
"392 -10 CURVE SMOOTH",
"468 -10 OFFCURVE",
"504 54 OFFCURVE",
"504 121 CURVE SMOOTH",
"504 138 OFFCURVE",
"502 153 OFFCURVE",
"495 167 CURVE",
"468 104 LINE",
"504 86 OFFCURVE",
"534 60 OFFCURVE",
"568 0 CURVE",
"717 0 LINE",
"717 561 LINE",
"561 561 LINE",
"561 115 LINE",
"594 144 LINE",
"553 202 OFFCURVE",
"514 237 OFFCURVE",
"450 250 CURVE",
"501 187 LINE",
"501 217 OFFCURVE",
"495 234 OFFCURVE",
"495 280 CURVE SMOOTH",
"495 372 LINE SMOOTH",
"495 495 OFFCURVE",
"420 576 OFFCURVE",
"256 576 CURVE SMOOTH",
"121 576 OFFCURVE",
"23 503 OFFCURVE",
"23 383 CURVE SMOOTH",
"23 333 LINE",
"175 264 LINE",
"164 300 LINE",
"88 300 OFFCURVE",
"41 265 OFFCURVE",
"41 182 CURVE SMOOTH",
"41 144 LINE SMOOTH",
"41 36 OFFCURVE",
"89 -10 OFFCURVE",
"158 -10 CURVE SMOOTH"
);
},
{
closed = 1;
nodes = (
"141 51 OFFCURVE",
"129 68 OFFCURVE",
"129 97 CURVE SMOOTH",
"129 126 OFFCURVE",
"141 142 OFFCURVE",
"166 142 CURVE SMOOTH",
"191 142 OFFCURVE",
"203 125 OFFCURVE",
"203 97 CURVE SMOOTH",
"203 68 OFFCURVE",
"191 51 OFFCURVE",
"166 51 CURVE SMOOTH"
);
},
{
closed = 1;
nodes = (
"370 62 OFFCURVE",
"358 80 OFFCURVE",
"358 116 CURVE SMOOTH",
"358 149 OFFCURVE",
"370 168 OFFCURVE",
"393 168 CURVE SMOOTH",
"403 168 OFFCURVE",
"410 167 OFFCURVE",
"415 164 CURVE",
"417 147 OFFCURVE",
"418 133 OFFCURVE",
"418 116 CURVE SMOOTH",
"418 79 OFFCURVE",
"409 62 OFFCURVE",
"389 62 CURVE SMOOTH"
);
},
{
closed = 1;
nodes = (
"109 283 LINE",
"116 283 LINE",
"116 301 LINE",
"109 301 LINE"
);
}
);
userData = {
com.schriftgestaltung.Glyphs.glyph.leftMetricsKey = "thoThung-thai";
com.schriftgestaltung.Glyphs.glyph.rightMetricsKey = "boBaimai-thai";
};
width = 769;
},
{
anchors = (
{
name = bottom;
position = "{420, 0}";
},
{
name = bottomright;
position = "{746, 0}";
},
{
name = top;
position = "{407, 550}";
},
{
name = topright;
position = "{746, 550}";
}
);
layerId = "90A34054-68E4-499D-AE50-276C7B026D8B";
paths = (
{
closed = 1;
nodes = (
"222 -5 OFFCURVE",
"251 32 OFFCURVE",
"251 75 CURVE SMOOTH",
"251 118 OFFCURVE",
"222 155 OFFCURVE",
"171 155 CURVE SMOOTH",
"117 155 OFFCURVE",
"93 117 OFFCURVE",
"93 75 CURVE",
"97 75 LINE",
"97 94 OFFCURVE",
"106 115 OFFCURVE",
"111 115 CURVE",
"111 205 LINE SMOOTH",
"111 276 OFFCURVE",
"136 321 OFFCURVE",
"215 321 CURVE",
"221 343 LINE",
"82 393 LINE",
"93 384 LINE",
"93 478 OFFCURVE",
"165 535 OFFCURVE",
"282 535 CURVE SMOOTH",
"391 535 OFFCURVE",
"466 482 OFFCURVE",
"466 377 CURVE SMOOTH",
"466 232 LINE SMOOTH",
"466 200 OFFCURVE",
"467 180 OFFCURVE",
"470 165 CURVE",
"476 167 LINE",
"457 174 OFFCURVE",
"443 177 OFFCURVE",
"424 177 CURVE SMOOTH",
"373 177 OFFCURVE",
"334 149 OFFCURVE",
"334 85 CURVE SMOOTH",
"334 29 OFFCURVE",
"368 -5 OFFCURVE",
"420 -5 CURVE SMOOTH",
"469 -5 OFFCURVE",
"502 25 OFFCURVE",
"502 81 CURVE SMOOTH",
"502 105 OFFCURVE",
"499 129 OFFCURVE",
"496 144 CURVE",
"491 139 LINE",
"563 112 OFFCURVE",
"650 56 OFFCURVE",
"720 0 CURVE",
"746 0 LINE",
"746 550 LINE",
"721 550 LINE",
"721 19 LINE",
"726 26 LINE",
"656 80 OFFCURVE",
"564 134 OFFCURVE",
"488 163 CURVE",
"496 155 LINE",
"493 170 OFFCURVE",
"491 193 OFFCURVE",
"491 217 CURVE SMOOTH",
"491 382 LINE SMOOTH",
"491 496 OFFCURVE",
"409 558 OFFCURVE",
"282 558 CURVE SMOOTH",
"145 558 OFFCURVE",
"68 487 OFFCURVE",
"68 394 CURVE SMOOTH",
"68 373 LINE",
"188 331 LINE",
"187 336 LINE",
"122 336 OFFCURVE",
"86 286 OFFCURVE",
"86 209 CURVE SMOOTH",
"86 94 LINE SMOOTH",
"86 33 OFFCURVE",
"113 -5 OFFCURVE",
"170 -5 CURVE SMOOTH"
);
},
{
closed = 1;
nodes = (
"133 18 OFFCURVE",
"114 41 OFFCURVE",
"114 75 CURVE SMOOTH",
"114 109 OFFCURVE",
"133 132 OFFCURVE",
"170 132 CURVE SMOOTH",
"205 132 OFFCURVE",
"226 109 OFFCURVE",
"226 75 CURVE SMOOTH",
"226 41 OFFCURVE",
"205 18 OFFCURVE",
"170 18 CURVE SMOOTH"
);
},
{
closed = 1;
nodes = (
"384 18 OFFCURVE",
"359 42 OFFCURVE",
"359 85 CURVE SMOOTH",
"359 134 OFFCURVE",
"387 154 OFFCURVE",
"424 154 CURVE SMOOTH",
"444 154 OFFCURVE",
"455 150 OFFCURVE",
"471 144 CURVE",
"474 130 OFFCURVE",
"478 105 OFFCURVE",
"478 82 CURVE SMOOTH",
"478 42 OFFCURVE",
"457 18 OFFCURVE",
"420 18 CURVE SMOOTH"
);
},
{
closed = 1;
nodes = (
"173 327 LINE",
"180 327 LINE",
"180 345 LINE",
"173 345 LINE"
);
}
);
width = 836;
},
{
anchors = (
{
name = bottom;
position = "{297, 0}";
},
{
name = bottomright;
position = "{538, 0}";
},
{
name = top;
position = "{296, 548}";
},
{
name = topright;
position = "{538, 548}";
}
);
layerId = "31946225-6F4F-4A3A-A9E3-76FE8DE38A50";
paths = (
{
closed = 1;
nodes = (
"165 -5 OFFCURVE",
"189 26 OFFCURVE",
"189 74 CURVE SMOOTH",
"189 121 OFFCURVE",
"165 153 OFFCURVE",
"131 153 CURVE SMOOTH",
"96 153 OFFCURVE",
"73 122 OFFCURVE",
"73 74 CURVE",
"78 74 LINE",
"78 93 OFFCURVE",
"85 114 OFFCURVE",
"90 114 CURVE",
"90 212 LINE SMOOTH",
"90 282 OFFCURVE",
"112 327 OFFCURVE",
"166 327 CURVE",
"170 349 LINE",
"69 397 LINE",
"78 387 LINE",
"78 480 OFFCURVE",
"117 533 OFFCURVE",
"207 533 CURVE SMOOTH",
"287 533 OFFCURVE",
"333 488 OFFCURVE",
"333 384 CURVE SMOOTH",
"333 241 LINE SMOOTH",
"333 210 OFFCURVE",
"334 179 OFFCURVE",
"337 164 CURVE",
"342 167 LINE",
"327 175 OFFCURVE",
"316 176 OFFCURVE",
"304 176 CURVE SMOOTH",
"266 176 OFFCURVE",
"239 148 OFFCURVE",
"239 85 CURVE SMOOTH",
"239 29 OFFCURVE",
"263 -5 OFFCURVE",
"302 -5 CURVE SMOOTH",
"343 -5 OFFCURVE",
"365 25 OFFCURVE",
"365 81 CURVE SMOOTH",
"365 103 OFFCURVE",
"364 125 OFFCURVE",
"362 143 CURVE",
"352 140 LINE",
"407 115 OFFCURVE",
"470 62 OFFCURVE",
"517 0 CURVE",
"538 0 LINE",
"538 548 LINE",
"514 548 LINE",
"514 18 LINE",
"524 27 LINE",
"476 86 OFFCURVE",
"408 139 OFFCURVE",
"350 166 CURVE",
"361 154 LINE",
"359 173 OFFCURVE",
"357 208 OFFCURVE",
"357 231 CURVE SMOOTH",
"357 389 LINE SMOOTH",
"357 502 OFFCURVE",
"301 556 OFFCURVE",
"207 556 CURVE SMOOTH",
"107 556 OFFCURVE",
"54 493 OFFCURVE",
"54 401 CURVE SMOOTH",
"54 378 LINE",
"144 337 LINE",
"146 342 LINE",
"97 342 OFFCURVE",
"66 292 OFFCURVE",
"66 216 CURVE SMOOTH",
"66 77 LINE SMOOTH",
"66 27 OFFCURVE",
"90 -5 OFFCURVE",
"127 -5 CURVE SMOOTH"
);
},
{
closed = 1;
nodes = (
"105 16 OFFCURVE",
"90 36 OFFCURVE",
"90 74 CURVE SMOOTH",
"90 111 OFFCURVE",
"105 132 OFFCURVE",
"129 132 CURVE SMOOTH",
"152 132 OFFCURVE",
"167 111 OFFCURVE",
"167 74 CURVE SMOOTH",
"167 36 OFFCURVE",
"152 16 OFFCURVE",
"128 16 CURVE SMOOTH"
);
},
{
closed = 1;
nodes = (
"278 17 OFFCURVE",
"262 42 OFFCURVE",
"262 85 CURVE SMOOTH",
"262 133 OFFCURVE",
"280 154 OFFCURVE",
"304 154 CURVE SMOOTH",
"317 154 OFFCURVE",
"325 152 OFFCURVE",
"337 145 CURVE",
"339 128 OFFCURVE",
"341 104 OFFCURVE",
"341 82 CURVE SMOOTH",
"341 42 OFFCURVE",
"332 17 OFFCURVE",
"302 17 CURVE SMOOTH"
);
},
{
closed = 1;
nodes = (
"133 331 LINE",
"140 331 LINE",
"140 349 LINE",
"133 349 LINE"
);
}
);
width = 608;
},
{
anchors = (
{
name = bottom;
position = "{328, 0}";
},
{
name = bottomright;
position = "{588, 0}";
},
{
name = top;
position = "{316, 551}";
},
{
name = topright;
position = "{588, 551}";
}
);
layerId = "9F3C76A5-8ED6-4D1B-8CC9-A050DF474D58";
paths = (
{
closed = 1;
nodes = (
"185 -7 OFFCURVE",
"214 31 OFFCURVE",
"214 93 CURVE SMOOTH",
"214 153 OFFCURVE",
"183 190 OFFCURVE",
"134 190 CURVE SMOOTH",
"82 190 OFFCURVE",
"65 144 OFFCURVE",
"65 93 CURVE",
"79 93 LINE",
"79 134 OFFCURVE",
"89 173 OFFCURVE",
"127 173 CURVE",
"127 209 LINE SMOOTH",
"127 279 OFFCURVE",
"158 308 OFFCURVE",
"196 308 CURVE",
"202 364 LINE",
"91 430 LINE",
"118 390 LINE",
"118 457 OFFCURVE",
"155 490 OFFCURVE",
"220 490 CURVE SMOOTH",
"283 490 OFFCURVE",
"324 452 OFFCURVE",
"324 383 CURVE SMOOTH",
"324 261 LINE SMOOTH",
"324 234 OFFCURVE",
"326 211 OFFCURVE",
"329 193 CURVE",
"353 205 LINE",
"341 211 OFFCURVE",
"332 214 OFFCURVE",
"319 214 CURVE SMOOTH",
"268 214 OFFCURVE",
"234 171 OFFCURVE",
"234 104 CURVE SMOOTH",
"234 35 OFFCURVE",
"269 -7 OFFCURVE",
"322 -7 CURVE SMOOTH",
"385 -7 OFFCURVE",
"411 42 OFFCURVE",
"411 102 CURVE SMOOTH",
"411 117 OFFCURVE",
"410 138 OFFCURVE",
"402 155 CURVE",
"386 134 LINE",
"438 110 OFFCURVE",
"475 65 OFFCURVE",
"511 0 CURVE",
"588 0 LINE",
"588 551 LINE",
"512 551 LINE",
"512 52 LINE",
"535 74 LINE",
"492 143 OFFCURVE",
"431 189 OFFCURVE",
"373 211 CURVE",
"406 179 LINE",
"402 199 OFFCURVE",
"400 216 OFFCURVE",
"400 242 CURVE SMOOTH",
"400 392 LINE SMOOTH",
"400 505 OFFCURVE",
"317 561 OFFCURVE",
"221 561 CURVE SMOOTH",
"116 561 OFFCURVE",
"44 495 OFFCURVE",
"44 415 CURVE SMOOTH",
"44 384 LINE",
"159 323 LINE",
"148 339 LINE",
"102 339 OFFCURVE",
"51 304 OFFCURVE",
"51 209 CURVE SMOOTH",
"51 103 LINE SMOOTH",
"51 33 OFFCURVE",
"82 -7 OFFCURVE",
"134 -7 CURVE SMOOTH"
);
},
{
closed = 1;
nodes = (
"110 37 OFFCURVE",
"99 60 OFFCURVE",
"99 92 CURVE SMOOTH",
"99 124 OFFCURVE",
"110 146 OFFCURVE",
"134 146 CURVE SMOOTH",
"158 146 OFFCURVE",
"168 123 OFFCURVE",
"168 92 CURVE SMOOTH",
"168 60 OFFCURVE",
"158 37 OFFCURVE",
"134 37 CURVE SMOOTH"
);
},
{
closed = 1;
nodes = (
"295 42 OFFCURVE",
"285 67 OFFCURVE",
"285 104 CURVE SMOOTH",
"285 137 OFFCURVE",
"293 165 OFFCURVE",
"319 165 CURVE SMOOTH",
"325 165 OFFCURVE",
"332 164 OFFCURVE",
"338 161 CURVE",
"341 141 OFFCURVE",
"343 126 OFFCURVE",
"343 105 CURVE SMOOTH",
"343 70 OFFCURVE",
"339 42 OFFCURVE",
"316 42 CURVE SMOOTH"
);
},
{
closed = 1;
nodes = (
"130 330 LINE",
"137 330 LINE",
"137 348 LINE",
"130 348 LINE"
);
}
);
userData = {
com.schriftgestaltung.Glyphs.glyph.leftMetricsKey = "thoThung-thai";
com.schriftgestaltung.Glyphs.glyph.rightMetricsKey = "boBaimai-thai";
};
width = 658;
}
);
leftKerningGroup = "thoThung-thai";
leftMetricsKey = "thoThung-thai";
rightMetricsKey = "moMa-thai";
unicode = 0E0C;
},
{
glyphname = "choChoe-thai_macronbelowcomb";
lastChange = "2020-11-15 17:48:00 +0000";
layers = (
{
anchors = (
{
name = bottom;
position = "{416, -100}";
},
{
name = bottomright;
position = "{746, -100}";
}
);
components = (
{
name = "choChoe-thai";
}
);
layerId = "90A34054-68E4-499D-AE50-276C7B026D8B";
paths = (
{
closed = 1;
nodes = (
"86 -77 LINE",
"86 -100 LINE",
"746 -100 LINE",
"746 -77 LINE"
);
}
);
width = 836;
},
{
anchors = (
{
name = bottom;
position = "{430, -149}";
},
{
name = bottomright;
position = "{783, -149}";
}
);
components = (
{
name = "choChoe-thai";
}
);
hints = (
{
horizontal = 1;
origin = "{0, 1}";
target = "{0, 0}";
type = Stem;
}
);
layerId = "59720D05-F04C-4F19-83A4-486FF5963186";
paths = (
{
closed = 1;
nodes = (
"76 -77 LINE",
"76 -149 LINE",
"783 -149 LINE",
"783 -77 LINE"
);
}
);
width = 873;
},
{
anchors = (
{
name = bottom;
position = "{466, -219}";
},
{
name = bottomright;
position = "{873, -219}";
}
);
components = (
{
name = "choChoe-thai";
}
);
layerId = "EB3A5D6C-8260-43A6-9EF2-63971FC08D48";
paths = (
{
closed = 1;
nodes = (
"59 -77 LINE",
"59 -219 LINE",
"873 -219 LINE",
"873 -77 LINE"
);
}
);
width = 947;
},
{
anchors = (
{
name = bottom;
position = "{302, -97}";
},
{
name = bottomright;
position = "{538, -97}";
}
);
components = (
{
name = "choChoe-thai";
}
);
layerId = "31946225-6F4F-4A3A-A9E3-76FE8DE38A50";
paths = (
{
closed = 1;
nodes = (
"66 -77 LINE",
"66 -97 LINE",
"538 -97 LINE",
"538 -77 LINE"
);
}
);
width = 608;
},
{
anchors = (
{
name = bottom;
position = "{320, -148}";
},
{
name = bottomright;
position = "{588, -148}";
}
);
components = (
{
name = "choChoe-thai";
}
);
layerId = "9F3C76A5-8ED6-4D1B-8CC9-A050DF474D58";
paths = (
{
closed = 1;
nodes = (
"51 -77 LINE",
"51 -148 LINE",
"588 -148 LINE",
"588 -77 LINE"
);
}
);
width = 658;
},
{
anchors = (
{
name = bottom;
position = "{375, -215}";
},
{
name = bottomright;
position = "{708, -215}";
}
);
components = (
{
name = "choChoe-thai";
}
);
layerId = "C987F20E-C470-4905-85F8-C37EA20127D7";
paths = (
{
closed = 1;
nodes = (
"42 -76 LINE",
"42 -215 LINE",
"708 -215 LINE",
"708 -76 LINE"
);
}
);
width = 760;
}
);
leftKerningGroup = "thoThung-thai";
},
{
glyphname = "yoYing-thai";
lastChange = "2020-11-15 18:46:35 +0000";
layers = (
{
anchors = (
{
name = bottom;
position = "{447, -246}";
},
{
name = bottomright;
position = "{787, -246}";
}
);
components = (
{
name = "yoYing-thai.less";
}
);
hints = (
{
horizontal = 1;
place = "{-49, 72}";
type = Stem;
},
{
horizontal = 1;
place = "{563, 72}";
type = Stem;
},
{
horizontal = 1;
place = "{553, -20}";
target = down;
type = TopGhost;
},
{
horizontal = 1;
place = "{-49, 48}";
type = Stem;
}
);
layerId = "59720D05-F04C-4F19-83A4-486FF5963186";
paths = (
{
closed = 1;
nodes = (
"702 -246 OFFCURVE",
"780 -201 OFFCURVE",
"821 -117 CURVE",
"754 -81 LINE",
"715 -152 OFFCURVE",
"659 -183 OFFCURVE",
"596 -183 CURVE SMOOTH",
"581 -183 OFFCURVE",
"571 -181 OFFCURVE",
"560 -177 CURVE",
"567 -198 LINE",
"590 -177 OFFCURVE",
"600 -154 OFFCURVE",
"600 -131 CURVE SMOOTH",
"600 -80 OFFCURVE",
"562 -49 OFFCURVE",
"508 -49 CURVE SMOOTH",
"448 -49 OFFCURVE",
"414 -85 OFFCURVE",
"414 -134 CURVE SMOOTH",
"414 -212 OFFCURVE",
"486 -246 OFFCURVE",
"589 -246 CURVE SMOOTH"
);
},
{
closed = 1;
nodes = (
"482 -171 OFFCURVE",
"467 -157 OFFCURVE",
"467 -131 CURVE SMOOTH",
"467 -105 OFFCURVE",
"482 -90 OFFCURVE",
"508 -90 CURVE SMOOTH",
"534 -90 OFFCURVE",
"550 -105 OFFCURVE",
"550 -131 CURVE SMOOTH",
"550 -157 OFFCURVE",
"534 -171 OFFCURVE",
"508 -171 CURVE SMOOTH"
);
}
);
userData = {
com.schriftgestaltung.Glyphs.glyph.leftMetricsKey = "thoThung-thai";
com.schriftgestaltung.Glyphs.glyph.rightMetricsKey = "noNu-thai";
};
width = 879;
},
{
anchors = (
{
name = bottom;
position = "{486, -276}";
},
{
name = bottomright;
position = "{883, -270}";
}
);
background = {
anchors = (
{
name = bottom;
position = "{486, -276}";
},
{
name = bottomright;
position = "{883, -270}";
}
);
};
components = (
{
name = "yoYing-thai.less";
}
);
layerId = "EB3A5D6C-8260-43A6-9EF2-63971FC08D48";
paths = (
{
closed = 1;
nodes = (
"737 -266 OFFCURVE",
"842 -217 OFFCURVE",
"898 -122 CURVE",
"782 -45 LINE",
"751 -112 OFFCURVE",
"705 -156 OFFCURVE",
"653 -156 CURVE SMOOTH",
"632 -156 OFFCURVE",
"606 -154 OFFCURVE",
"594 -151 CURVE",
"598 -206 LINE",
"630 -199 OFFCURVE",
"653 -169 OFFCURVE",
"653 -132 CURVE SMOOTH",
"653 -75 OFFCURVE",
"608 -33 OFFCURVE",
"537 -33 CURVE SMOOTH",
"454 -33 OFFCURVE",
"414 -78 OFFCURVE",
"414 -135 CURVE SMOOTH",
"414 -225 OFFCURVE",
"499 -266 OFFCURVE",
"621 -266 CURVE SMOOTH"
);
},
{
closed = 1;
nodes = (
"514 -168 OFFCURVE",
"498 -155 OFFCURVE",
"498 -131 CURVE SMOOTH",
"498 -107 OFFCURVE",
"514 -93 OFFCURVE",
"538 -93 CURVE SMOOTH",
"563 -93 OFFCURVE",
"579 -106 OFFCURVE",
"579 -131 CURVE SMOOTH",
"579 -155 OFFCURVE",
"563 -168 OFFCURVE",
"538 -168 CURVE SMOOTH"
);
}
);
userData = {
com.schriftgestaltung.Glyphs.glyph.leftMetricsKey = "thoThung-thai";
com.schriftgestaltung.Glyphs.glyph.rightMetricsKey = "noNu-thai";
};
width = 948;
},
{
anchors = (
{
name = bottom;
position = "{357, -265}";
},
{
name = bottomright;
position = "{713, -265}";
}
);
components = (
{
name = "yoYing-thai.less";
}
);
layerId = "C987F20E-C470-4905-85F8-C37EA20127D7";
paths = (
{
closed = 1;
nodes = (
"593 -265 OFFCURVE",
"680 -216 OFFCURVE",
"725 -122 CURVE",
"627 -45 LINE",
"602 -111 OFFCURVE",
"568 -157 OFFCURVE",
"525 -157 CURVE SMOOTH",
"506 -157 OFFCURVE",
"485 -155 OFFCURVE",
"476 -152 CURVE",
"496 -200 LINE",
"514 -186 OFFCURVE",
"525 -163 OFFCURVE",
"525 -132 CURVE SMOOTH",
"525 -75 OFFCURVE",
"488 -33 OFFCURVE",
"429 -33 CURVE SMOOTH",
"363 -33 OFFCURVE",
"329 -78 OFFCURVE",
"329 -135 CURVE SMOOTH",
"329 -220 OFFCURVE",
"398 -265 OFFCURVE",
"498 -265 CURVE SMOOTH"
);
},
{
closed = 1;
nodes = (
"408 -169 OFFCURVE",
"395 -154 OFFCURVE",
"395 -131 CURVE SMOOTH",
"395 -107 OFFCURVE",
"408 -91 OFFCURVE",
"428 -91 CURVE SMOOTH",
"450 -91 OFFCURVE",
"462 -106 OFFCURVE",
"462 -131 CURVE SMOOTH",
"462 -154 OFFCURVE",
"450 -169 OFFCURVE",
"428 -169 CURVE SMOOTH"
);
}
);
userData = {
com.schriftgestaltung.Glyphs.glyph.leftMetricsKey = "thoThung-thai";
com.schriftgestaltung.Glyphs.glyph.rightMetricsKey = "noNu-thai";
};
width = 768;
},
{
anchors = (
{
name = bottom;
position = "{418, -221}";
},
{
name = bottomright;
position = "{748, -221}";
}
);
components = (
{
name = "yoYing-thai.less";
}
);
layerId = "90A34054-68E4-499D-AE50-276C7B026D8B";
paths = (
{
closed = 1;
nodes = (
"670 -221 OFFCURVE",
"728 -180 OFFCURVE",
"775 -106 CURVE",
"752 -94 LINE",
"709 -164 OFFCURVE",
"651 -200 OFFCURVE",
"573 -200 CURVE SMOOTH",
"556 -200 OFFCURVE",
"534 -198 OFFCURVE",
"514 -193 CURVE",
"517 -196 LINE",
"552 -191 OFFCURVE",
"573 -164 OFFCURVE",
"573 -131 CURVE SMOOTH",
"573 -89 OFFCURVE",
"544 -61 OFFCURVE",
"501 -61 CURVE SMOOTH",
"458 -61 OFFCURVE",
"429 -89 OFFCURVE",
"429 -131 CURVE SMOOTH",
"429 -188 OFFCURVE",
"482 -221 OFFCURVE",
"573 -221 CURVE SMOOTH"
);
},
{
closed = 1;
nodes = (
"472 -178 OFFCURVE",
"453 -159 OFFCURVE",
"453 -131 CURVE SMOOTH",
"453 -102 OFFCURVE",
"472 -82 OFFCURVE",
"501 -82 CURVE SMOOTH",
"530 -82 OFFCURVE",
"549 -102 OFFCURVE",
"549 -131 CURVE SMOOTH",
"549 -159 OFFCURVE",
"531 -178 OFFCURVE",
"501 -178 CURVE SMOOTH"
);
}
);
width = 838;
},
{
anchors = (
{
name = bottom;
position = "{323, -220}";
},
{
name = bottomright;
position = "{545, -220}";
}
);
components = (
{
name = "yoYing-thai.less";
}
);
layerId = "31946225-6F4F-4A3A-A9E3-76FE8DE38A50";
paths = (
{
closed = 1;
nodes = (
"492 -220 OFFCURVE",
"532 -179 OFFCURVE",
"564 -106 CURVE",
"545 -94 LINE",
"516 -163 OFFCURVE",
"479 -199 OFFCURVE",
"421 -199 CURVE SMOOTH",
"407 -199 OFFCURVE",
"389 -197 OFFCURVE",
"376 -192 CURVE",
"379 -196 LINE",
"409 -194 OFFCURVE",
"425 -163 OFFCURVE",
"425 -131 CURVE SMOOTH",
"425 -89 OFFCURVE",
"401 -61 OFFCURVE",
"370 -61 CURVE SMOOTH",
"339 -61 OFFCURVE",
"315 -87 OFFCURVE",
"315 -131 CURVE SMOOTH",
"315 -189 OFFCURVE",
"358 -220 OFFCURVE",
"421 -220 CURVE SMOOTH"
);
},
{
closed = 1;
nodes = (
"349 -178 OFFCURVE",
"337 -158 OFFCURVE",
"337 -131 CURVE SMOOTH",
"337 -102 OFFCURVE",
"349 -82 OFFCURVE",
"370 -82 CURVE SMOOTH",
"391 -82 OFFCURVE",
"403 -102 OFFCURVE",
"403 -131 CURVE SMOOTH",
"403 -158 OFFCURVE",
"391 -178 OFFCURVE",
"370 -178 CURVE SMOOTH"
);
}
);
width = 611;
},
{
anchors = (
{
name = bottom;
position = "{331, -245}";
},
{
name = bottomright;
position = "{593, -245}";
}
);
components = (
{
name = "yoYing-thai.less";
}
);
layerId = "9F3C76A5-8ED6-4D1B-8CC9-A050DF474D58";
paths = (
{
closed = 1;
nodes = (
"529 -245 OFFCURVE",
"587 -200 OFFCURVE",
"618 -117 CURVE",
"560 -81 LINE",
"531 -151 OFFCURVE",
"497 -184 OFFCURVE",
"449 -184 CURVE SMOOTH",
"437 -184 OFFCURVE",
"431 -182 OFFCURVE",
"422 -178 CURVE",
"430 -207 LINE",
"451 -185 OFFCURVE",
"459 -161 OFFCURVE",
"459 -134 CURVE SMOOTH",
"459 -84 OFFCURVE",
"433 -49 OFFCURVE",
"386 -49 CURVE SMOOTH",
"341 -49 OFFCURVE",
"313 -88 OFFCURVE",
"313 -136 CURVE SMOOTH",
"313 -209 OFFCURVE",
"367 -245 OFFCURVE",
"444 -245 CURVE SMOOTH"
);
},
{
closed = 1;
nodes = (
"369 -178 OFFCURVE",
"359 -162 OFFCURVE",
"359 -136 CURVE SMOOTH",
"359 -111 OFFCURVE",
"369 -94 OFFCURVE",
"386 -94 CURVE SMOOTH",
"404 -94 OFFCURVE",
"413 -111 OFFCURVE",
"413 -136 CURVE SMOOTH",
"413 -162 OFFCURVE",
"404 -178 OFFCURVE",
"386 -178 CURVE SMOOTH"
);
}
);
userData = {
com.schriftgestaltung.Glyphs.glyph.leftMetricsKey = "thoThung-thai";
com.schriftgestaltung.Glyphs.glyph.rightMetricsKey = "noNu-thai";
};
width = 661;
}
);
leftKerningGroup = "thoThung-thai";
leftMetricsKey = "=yoYing-thai";
widthMetricsKey = "=yoYing-thai";
unicode = 0E0D;
},
{
glyphname = "yoYing-thai.less";
lastChange = "2020-11-15 18:52:46 +0000";
layers = (
{
anchors = (
{
name = bottom;
position = "{425, 0}";
},
{
name = bottomright;
position = "{783, 0}";
},
{
name = top;
position = "{433, 553}";
},
{
name = topright;
position = "{788, 553}";
}
);
hints = (
{
horizontal = 1;
origin = "{0, 26}";
target = "{0, 36}";
type = Stem;
},
{
horizontal = 1;
origin = "{0, 42}";
target = "{0, 22}";
type = Stem;
},
{
horizontal = 1;
origin = "{0, 32}";
target = down;
type = TopGhost;
},
{
origin = "{0, 52}";
target = "{0, 12}";
type = Stem;
},
{
origin = "{0, 26}";
target = "{0, 38}";
type = Stem;
},
{
origin = "{0, 33}";
target = "{0, 30}";
type = Stem;
}
);
layerId = "59720D05-F04C-4F19-83A4-486FF5963186";
paths = (
{
closed = 1;
nodes = (
"245 -5 OFFCURVE",
"285 33 OFFCURVE",
"285 95 CURVE SMOOTH",
"285 156 OFFCURVE",
"243 193 OFFCURVE",
"181 193 CURVE SMOOTH",
"116 193 OFFCURVE",
"83 151 OFFCURVE",
"83 94 CURVE",
"96 94 LINE",
"96 126 OFFCURVE",
"132 166 OFFCURVE",
"162 166 CURVE",
"162 209 LINE SMOOTH",
"162 270 OFFCURVE",
"201 291 OFFCURVE",
"254 291 CURVE",
"264 350 LINE",
"111 406 LINE",
"145 371 LINE",
"145 447 OFFCURVE",
"191 491 OFFCURVE",
"283 491 CURVE SMOOTH",
"363 491 OFFCURVE",
"419 452 OFFCURVE",
"419 363 CURVE SMOOTH",
"419 0 LINE",
"620 0 LINE SMOOTH",
"740 0 OFFCURVE",
"788 44 OFFCURVE",
"788 154 CURVE SMOOTH",
"788 553 LINE",
"702 553 LINE",
"702 159 LINE SMOOTH",
"702 99 OFFCURVE",
"686 72 OFFCURVE",
"619 72 CURVE SMOOTH",
"466 72 LINE",
"505 32 LINE",
"505 372 LINE SMOOTH",
"505 505 OFFCURVE",
"407 563 OFFCURVE",
"283 563 CURVE SMOOTH",
"145 563 OFFCURVE",
"59 488 OFFCURVE",
"59 398 CURVE SMOOTH",
"59 365 LINE",
"216 311 LINE",
"207 325 LINE",
"132 325 OFFCURVE",
"76 295 OFFCURVE",
"76 199 CURVE SMOOTH",
"76 105 LINE SMOOTH",
"76 35 OFFCURVE",
"116 -5 OFFCURVE",
"181 -5 CURVE SMOOTH"
);
},
{
closed = 1;
nodes = (
"149 43 OFFCURVE",
"131 62 OFFCURVE",
"131 94 CURVE SMOOTH",
"131 127 OFFCURVE",
"149 145 OFFCURVE",
"181 145 CURVE SMOOTH",
"213 145 OFFCURVE",
"231 126 OFFCURVE",
"231 94 CURVE SMOOTH",
"231 62 OFFCURVE",
"213 43 OFFCURVE",
"181 43 CURVE SMOOTH"
);
},
{
closed = 1;
nodes = (
"175 314 LINE",
"182 314 LINE",
"182 332 LINE",
"175 332 LINE"
);
}
);
userData = {
com.schriftgestaltung.Glyphs.glyph.leftMetricsKey = "thoThung-thai";
com.schriftgestaltung.Glyphs.glyph.rightMetricsKey = "boBaimai-thai";
};
width = 874;
},
{
anchors = (
{
name = bottom;
position = "{475, 0}";
},
{
name = bottomright;
position = "{876, 0}";
},
{
name = top;
position = "{471, 563}";
},
{
name = topright;
position = "{881, 563}";
}
);
layerId = "EB3A5D6C-8260-43A6-9EF2-63971FC08D48";
paths = (
{
closed = 1;
nodes = (
"288 -10 OFFCURVE",
"334 38 OFFCURVE",
"334 97 CURVE SMOOTH",
"334 155 OFFCURVE",
"301 204 OFFCURVE",
"235 204 CURVE SMOOTH",
"150 204 OFFCURVE",
"120 170 OFFCURVE",
"120 97 CURVE",
"134 97 LINE",
"134 153 OFFCURVE",
"172 192 OFFCURVE",
"245 192 CURVE",
"245 206 LINE SMOOTH",
"245 234 OFFCURVE",
"262 249 OFFCURVE",
"328 249 CURVE",
"336 347 LINE",
"141 418 LINE",
"217 343 LINE",
"217 402 OFFCURVE",
"243 437 OFFCURVE",
"316 437 CURVE SMOOTH",
"380 437 OFFCURVE",
"415 399 OFFCURVE",
"415 329 CURVE SMOOTH",
"415 0 LINE",
"724 0 LINE SMOOTH",
"824 0 OFFCURVE",
"883 65 OFFCURVE",
"883 171 CURVE SMOOTH",
"883 563 LINE",
"697 563 LINE",
"697 192 LINE SMOOTH",
"697 156 OFFCURVE",
"686 142 OFFCURVE",
"648 142 CURVE SMOOTH",
"517 142 LINE",
"601 58 LINE",
"601 364 LINE SMOOTH",
"601 497 OFFCURVE",
"490 578 OFFCURVE",
"316 578 CURVE SMOOTH",
"155 578 OFFCURVE",
"42 505 OFFCURVE",
"42 382 CURVE SMOOTH",
"42 342 LINE",
"229 283 LINE",
"217 316 LINE",
"111 316 OFFCURVE",
"59 264 OFFCURVE",
"59 180 CURVE SMOOTH",
"59 144 LINE SMOOTH",
"59 36 OFFCURVE",
"124 -10 OFFCURVE",
"208 -10 CURVE SMOOTH"
);
},
{
closed = 1;
nodes = (
"188 52 OFFCURVE",
"168 68 OFFCURVE",
"168 97 CURVE SMOOTH",
"168 127 OFFCURVE",
"188 142 OFFCURVE",
"215 142 CURVE SMOOTH",
"242 142 OFFCURVE",
"262 126 OFFCURVE",
"262 97 CURVE SMOOTH",
"262 68 OFFCURVE",
"242 52 OFFCURVE",
"215 52 CURVE SMOOTH"
);
},
{
closed = 1;
nodes = (
"146 298 LINE",
"153 298 LINE",
"153 316 LINE",
"146 316 LINE"
);
}
);
userData = {
com.schriftgestaltung.Glyphs.glyph.leftMetricsKey = "thoThung-thai";
com.schriftgestaltung.Glyphs.glyph.rightMetricsKey = "boBaimai-thai";
};
width = 951;
},
{
anchors = (
{
name = bottom;
position = "{367, 0}";
},
{
name = bottomright;
position = "{709, 0}";
},
{
name = top;
position = "{378, 561}";
},
{
name = topright;
position = "{714, 561}";
}
);
layerId = "C987F20E-C470-4905-85F8-C37EA20127D7";
paths = (
{
closed = 1;
nodes = (
"230 -10 OFFCURVE",
"270 38 OFFCURVE",
"270 97 CURVE SMOOTH",
"270 154 OFFCURVE",
"235 203 OFFCURVE",
"181 203 CURVE SMOOTH",
"114 203 OFFCURVE",
"72 173 OFFCURVE",
"72 97 CURVE",
"93 97 LINE",
"93 153 OFFCURVE",
"135 187 OFFCURVE",
"197 187 CURVE",
"197 191 LINE SMOOTH",
"197 228 OFFCURVE",
"208 252 OFFCURVE",
"261 252 CURVE",
"267 345 LINE",
"108 423 LINE",
"167 360 LINE",
"167 395 OFFCURVE",
"186 437 OFFCURVE",
"248 437 CURVE SMOOTH",
"315 437 OFFCURVE",
"326 393 OFFCURVE",
"326 338 CURVE SMOOTH",
"326 0 LINE",
"584 0 LINE SMOOTH",
"666 0 OFFCURVE",
"714 65 OFFCURVE",
"714 171 CURVE SMOOTH",
"714 561 LINE",
"558 561 LINE",
"558 190 LINE SMOOTH",
"558 151 OFFCURVE",
"546 140 OFFCURVE",
"517 140 CURVE SMOOTH",
"412 140 LINE",
"482 70 LINE",
"482 373 LINE SMOOTH",
"482 495 OFFCURVE",
"408 576 OFFCURVE",
"251 576 CURVE SMOOTH",
"121 576 OFFCURVE",
"23 503 OFFCURVE",
"23 383 CURVE SMOOTH",
"23 333 LINE",
"175 264 LINE",
"164 300 LINE",
"88 300 OFFCURVE",
"41 265 OFFCURVE",
"41 182 CURVE SMOOTH",
"41 144 LINE SMOOTH",
"41 36 OFFCURVE",
"91 -10 OFFCURVE",
"160 -10 CURVE SMOOTH"
);
},
{
closed = 1;
nodes = (
"143 51 OFFCURVE",
"129 68 OFFCURVE",
"129 97 CURVE SMOOTH",
"129 126 OFFCURVE",
"143 142 OFFCURVE",
"168 142 CURVE SMOOTH",
"193 142 OFFCURVE",
"207 125 OFFCURVE",
"207 97 CURVE SMOOTH",
"207 68 OFFCURVE",
"193 51 OFFCURVE",
"168 51 CURVE SMOOTH"
);
},
{
closed = 1;
nodes = (
"109 283 LINE",
"116 283 LINE",
"116 301 LINE",
"109 301 LINE"
);
}
);
userData = {
com.schriftgestaltung.Glyphs.glyph.leftMetricsKey = "thoThung-thai";
com.schriftgestaltung.Glyphs.glyph.rightMetricsKey = "boBaimai-thai";
};
width = 768;
},
{
anchors = (
{
name = bottom;
position = "{437, 0}";
},
{
name = bottomright;
position = "{745, 0}";
},
{
name = top;
position = "{417, 550}";
},
{
name = topright;
position = "{748, 550}";
}
);
layerId = "90A34054-68E4-499D-AE50-276C7B026D8B";
paths = (
{
closed = 1;
nodes = (
"222 -5 OFFCURVE",
"251 32 OFFCURVE",
"251 75 CURVE SMOOTH",
"251 118 OFFCURVE",
"222 155 OFFCURVE",
"171 155 CURVE SMOOTH",
"117 155 OFFCURVE",
"93 117 OFFCURVE",
"93 75 CURVE",
"97 75 LINE",
"97 94 OFFCURVE",
"106 115 OFFCURVE",
"111 115 CURVE",
"111 205 LINE SMOOTH",
"111 276 OFFCURVE",
"136 321 OFFCURVE",
"215 321 CURVE",
"221 343 LINE",
"82 393 LINE",
"93 384 LINE",
"93 478 OFFCURVE",
"153 535 OFFCURVE",
"269 535 CURVE SMOOTH",
"375 535 OFFCURVE",
"440 483 OFFCURVE",
"440 377 CURVE SMOOTH",
"440 0 LINE",
"635 0 LINE SMOOTH",
"720 0 OFFCURVE",
"748 42 OFFCURVE",
"748 114 CURVE SMOOTH",
"748 550 LINE",
"723 550 LINE",
"723 119 LINE SMOOTH",
"723 58 OFFCURVE",
"698 23 OFFCURVE",
"637 23 CURVE SMOOTH",
"453 23 LINE",
"465 12 LINE",
"465 382 LINE SMOOTH",
"465 497 OFFCURVE",
"394 558 OFFCURVE",
"269 558 CURVE SMOOTH",
"133 558 OFFCURVE",
"68 487 OFFCURVE",
"68 394 CURVE SMOOTH",
"68 373 LINE",
"188 331 LINE",
"187 336 LINE",
"122 336 OFFCURVE",
"86 286 OFFCURVE",
"86 209 CURVE SMOOTH",
"86 94 LINE SMOOTH",
"86 33 OFFCURVE",
"113 -5 OFFCURVE",
"170 -5 CURVE SMOOTH"
);
},
{
closed = 1;
nodes = (
"133 18 OFFCURVE",
"114 41 OFFCURVE",
"114 75 CURVE SMOOTH",
"114 109 OFFCURVE",
"133 132 OFFCURVE",
"170 132 CURVE SMOOTH",
"205 132 OFFCURVE",
"226 109 OFFCURVE",
"226 75 CURVE SMOOTH",
"226 41 OFFCURVE",
"205 18 OFFCURVE",
"170 18 CURVE SMOOTH"
);
},
{
closed = 1;
nodes = (
"173 327 LINE",
"180 327 LINE",
"180 345 LINE",
"173 345 LINE"
);
}
);
width = 840;
},
{
anchors = (
{
name = bottom;
position = "{322, 0}";
},
{
name = bottomright;
position = "{542, 0}";
},
{
name = top;
position = "{306, 548}";
},
{
name = topright;
position = "{545, 548}";
}
);
layerId = "31946225-6F4F-4A3A-A9E3-76FE8DE38A50";
paths = (
{
closed = 1;
nodes = (
"165 -5 OFFCURVE",
"189 26 OFFCURVE",
"189 74 CURVE SMOOTH",
"189 121 OFFCURVE",
"165 153 OFFCURVE",
"131 153 CURVE SMOOTH",
"96 153 OFFCURVE",
"74 122 OFFCURVE",
"73 74 CURVE",
"78 74 LINE",
"78 93 OFFCURVE",
"85 114 OFFCURVE",
"90 114 CURVE",
"90 212 LINE SMOOTH",
"90 282 OFFCURVE",
"112 327 OFFCURVE",
"166 327 CURVE",
"170 349 LINE",
"69 397 LINE",
"78 387 LINE",
"78 480 OFFCURVE",
"113 533 OFFCURVE",
"200 533 CURVE SMOOTH",
"277 533 OFFCURVE",
"319 488 OFFCURVE",
"319 384 CURVE SMOOTH",
"319 0 LINE",
"462 0 LINE SMOOTH",
"529 0 OFFCURVE",
"545 33 OFFCURVE",
"545 97 CURVE SMOOTH",
"545 548 LINE",
"521 548 LINE",
"521 102 LINE SMOOTH",
"521 35 OFFCURVE",
"505 23 OFFCURVE",
"463 23 CURVE SMOOTH",
"336 23 LINE",
"343 13 LINE",
"343 389 LINE SMOOTH",
"343 502 OFFCURVE",
"291 556 OFFCURVE",
"200 556 CURVE SMOOTH",
"103 556 OFFCURVE",
"54 493 OFFCURVE",
"54 401 CURVE SMOOTH",
"54 378 LINE",
"144 337 LINE",
"146 342 LINE",
"97 342 OFFCURVE",
"66 292 OFFCURVE",
"66 216 CURVE SMOOTH",
"66 77 LINE SMOOTH",
"66 27 OFFCURVE",
"90 -5 OFFCURVE",
"127 -5 CURVE SMOOTH"
);
},
{
closed = 1;
nodes = (
"105 16 OFFCURVE",
"90 36 OFFCURVE",
"90 74 CURVE SMOOTH",
"90 111 OFFCURVE",
"105 132 OFFCURVE",
"129 132 CURVE SMOOTH",
"152 132 OFFCURVE",
"167 111 OFFCURVE",
"167 74 CURVE SMOOTH",
"167 36 OFFCURVE",
"152 16 OFFCURVE",
"128 16 CURVE SMOOTH"
);
},
{
closed = 1;
nodes = (
"133 331 LINE",
"140 331 LINE",
"140 349 LINE",
"133 349 LINE"
);
}
);
width = 623;
},
{
anchors = (
{
name = bottom;
position = "{340, 0}";
},
{
name = bottomright;
position = "{587, 0}";
},
{
name = top;
position = "{323, 551}";
},
{
name = topright;
position = "{596, 551}";
}
);
layerId = "9F3C76A5-8ED6-4D1B-8CC9-A050DF474D58";
paths = (
{
closed = 1;
nodes = (
"185 -7 OFFCURVE",
"214 31 OFFCURVE",
"214 93 CURVE SMOOTH",
"214 153 OFFCURVE",
"183 190 OFFCURVE",
"134 190 CURVE SMOOTH",
"82 190 OFFCURVE",
"65 144 OFFCURVE",
"65 93 CURVE",
"79 93 LINE",
"79 134 OFFCURVE",
"89 173 OFFCURVE",
"127 173 CURVE",
"127 209 LINE SMOOTH",
"127 279 OFFCURVE",
"158 308 OFFCURVE",
"196 308 CURVE",
"202 364 LINE",
"91 430 LINE",
"118 390 LINE",
"118 457 OFFCURVE",
"153 490 OFFCURVE",
"217 490 CURVE SMOOTH",
"279 490 OFFCURVE",
"318 452 OFFCURVE",
"318 383 CURVE SMOOTH",
"318 0 LINE",
"467 0 LINE SMOOTH",
"557 0 OFFCURVE",
"593 44 OFFCURVE",
"593 153 CURVE SMOOTH",
"593 551 LINE",
"517 551 LINE",
"517 157 LINE SMOOTH",
"517 91 OFFCURVE",
"501 71 OFFCURVE",
"455 71 CURVE SMOOTH",
"360 71 LINE",
"394 26 LINE",
"394 392 LINE SMOOTH",
"394 505 OFFCURVE",
"313 561 OFFCURVE",
"218 561 CURVE SMOOTH",
"114 561 OFFCURVE",
"44 495 OFFCURVE",
"44 415 CURVE SMOOTH",
"44 384 LINE",
"159 323 LINE",
"148 339 LINE",
"102 339 OFFCURVE",
"51 304 OFFCURVE",
"51 209 CURVE SMOOTH",
"51 103 LINE SMOOTH",
"51 33 OFFCURVE",
"82 -7 OFFCURVE",
"134 -7 CURVE SMOOTH"
);
},
{
closed = 1;
nodes = (
"110 37 OFFCURVE",
"99 60 OFFCURVE",
"99 92 CURVE SMOOTH",
"99 124 OFFCURVE",
"110 146 OFFCURVE",
"134 146 CURVE SMOOTH",
"158 146 OFFCURVE",
"168 123 OFFCURVE",
"168 92 CURVE SMOOTH",
"168 60 OFFCURVE",
"158 37 OFFCURVE",
"134 37 CURVE SMOOTH"
);
},
{
closed = 1;
nodes = (
"130 330 LINE",
"137 330 LINE",
"137 348 LINE",
"130 348 LINE"
);
}
);
userData = {
com.schriftgestaltung.Glyphs.glyph.leftMetricsKey = "thoThung-thai";
com.schriftgestaltung.Glyphs.glyph.rightMetricsKey = "boBaimai-thai";
};
width = 661;
}
);
leftKerningGroup = "thoThung-thai";
leftMetricsKey = "thoThung-thai";
rightMetricsKey = "boBaimai-thai";
},
{
glyphname = "yoYing-thai_macronbelowcomb";
lastChange = "2020-11-15 17:48:13 +0000";
layers = (
{
anchors = (
{
name = bottom;
position = "{417, -100}";
},
{
name = bottomright;
position = "{748, -100}";
}
);
components = (
{
name = "yoYing-thai.less";
}
);
layerId = "90A34054-68E4-499D-AE50-276C7B026D8B";
paths = (
{
closed = 1;
nodes = (
"86 -77 LINE",
"86 -100 LINE",
"748 -100 LINE",
"748 -77 LINE"
);
}
);
width = 840;
},
{
anchors = (
{
name = bottom;
position = "{430, -149}";
},
{
name = bottomright;
position = "{783, -149}";
}
);
components = (
{
name = "yoYing-thai.less";
}
);
hints = (
{
horizontal = 1;
origin = "{0, 1}";
target = "{0, 0}";
type = Stem;
}
);
layerId = "59720D05-F04C-4F19-83A4-486FF5963186";
paths = (
{
closed = 1;
nodes = (
"76 -77 LINE",
"76 -149 LINE",
"783 -149 LINE",
"783 -77 LINE"
);
}
);
width = 878;
},
{
anchors = (
{
name = bottom;
position = "{471, -219}";
},
{
name = bottomright;
position = "{881, -219}";
}
);
components = (
{
name = "yoYing-thai.less";
}
);
layerId = "EB3A5D6C-8260-43A6-9EF2-63971FC08D48";
paths = (
{
closed = 1;
nodes = (
"60 -77 LINE",
"60 -219 LINE",
"881 -219 LINE",
"881 -77 LINE"
);
}
);
width = 949;
},
{
anchors = (
{
name = bottom;
position = "{306, -97}";
},
{
name = bottomright;
position = "{545, -97}";
}
);
components = (
{
name = "yoYing-thai.less";
}
);
layerId = "31946225-6F4F-4A3A-A9E3-76FE8DE38A50";
paths = (
{
closed = 1;
nodes = (
"66 -77 LINE",
"66 -97 LINE",
"545 -97 LINE",
"545 -77 LINE"
);
}
);
width = 623;
},
{
anchors = (
{
name = bottom;
position = "{322, -148}";
},
{
name = bottomright;
position = "{593, -148}";
}
);
components = (
{
name = "yoYing-thai.less";
}
);
layerId = "9F3C76A5-8ED6-4D1B-8CC9-A050DF474D58";
paths = (
{
closed = 1;
nodes = (
"51 -77 LINE",
"51 -148 LINE",
"593 -148 LINE",
"593 -77 LINE"
);
}
);
width = 664;
},
{
anchors = (
{
name = bottom;
position = "{377, -215}";
},
{
name = bottomright;
position = "{713, -215}";
}
);
components = (
{
name = "yoYing-thai.less";
}
);
layerId = "C987F20E-C470-4905-85F8-C37EA20127D7";
paths = (
{
closed = 1;
nodes = (
"40 -76 LINE",
"40 -215 LINE",
"713 -215 LINE",
"713 -76 LINE"
);
}
);
width = 767;
}
);
leftKerningGroup = "thoThung-thai";
},
{
glyphname = "doChada-thai";
lastChange = "2020-11-15 17:48:22 +0000";
layers = (
{
anchors = (
{
name = bottom;
position = "{297, -275}";
},
{
name = bottomright;
position = "{561, -270}";
},
{
name = top;
position = "{338, 553}";
},
{
name = topright;
position = "{556, 553}";
}
);
hints = (
{
horizontal = 1;
origin = "{0, 14}";
target = "{0, 50}";
type = Stem;
},
{
horizontal = 1;
origin = "{0, 9}";
target = up;
type = BottomGhost;
},
{
origin = "{0, 24}";
target = "{0, 40}";
type = Stem;
},
{
origin = "{0, 54}";
target = "{0, 10}";
type = Stem;
},
{
horizontal = 1;
origin = "{0, 37}";
target = "{2, 11}";
type = Stem;
}
);
layerId = "59720D05-F04C-4F19-83A4-486FF5963186";
paths = (
{
closed = 1;
nodes = (
"337 -277 OFFCURVE",
"372 -213 OFFCURVE",
"372 -163 CURVE SMOOTH",
"372 -146 OFFCURVE",
"370 -128 OFFCURVE",
"365 -113 CURVE",
"325 -165 LINE",
"371 -177 OFFCURVE",
"439 -222 OFFCURVE",
"473 -270 CURVE",
"561 -270 LINE",
"561 372 LINE SMOOTH",
"561 505 OFFCURVE",
"455 563 OFFCURVE",
"335 563 CURVE SMOOTH",
"198 563 OFFCURVE",
"114 489 OFFCURVE",
"114 398 CURVE SMOOTH",
"114 365 LINE",
"274 309 LINE",
"271 325 LINE",
"194 325 OFFCURVE",
"155 281 OFFCURVE",
"155 200 CURVE SMOOTH",
"155 166 LINE",
"185 166 OFFCURVE",
"221 126 OFFCURVE",
"221 94 CURVE",
"234 94 LINE",
"234 151 OFFCURVE",
"201 193 OFFCURVE",
"136 193 CURVE SMOOTH",
"74 193 OFFCURVE",
"32 156 OFFCURVE",
"32 95 CURVE SMOOTH",
"32 33 OFFCURVE",
"72 -5 OFFCURVE",
"136 -5 CURVE SMOOTH",
"201 -5 OFFCURVE",
"241 35 OFFCURVE",
"241 105 CURVE SMOOTH",
"241 199 LINE SMOOTH",
"241 257 OFFCURVE",
"259 293 OFFCURVE",
"310 293 CURVE",
"320 349 LINE",
"166 405 LINE",
"201 373 LINE",
"201 443 OFFCURVE",
"245 491 OFFCURVE",
"334 491 CURVE SMOOTH",
"410 491 OFFCURVE",
"475 452 OFFCURVE",
"475 363 CURVE SMOOTH",
"475 -184 LINE",
"491 -188 LINE",
"432 -131 OFFCURVE",
"338 -76 OFFCURVE",
"258 -76 CURVE SMOOTH",
"181 -76 OFFCURVE",
"138 -111 OFFCURVE",
"138 -177 CURVE SMOOTH",
"138 -237 OFFCURVE",
"186 -277 OFFCURVE",
"251 -277 CURVE SMOOTH"
);
},
{
closed = 1;
nodes = (
"219 -223 OFFCURVE",
"199 -204 OFFCURVE",
"199 -176 CURVE SMOOTH",
"199 -147 OFFCURVE",
"216 -129 OFFCURVE",
"258 -129 CURVE SMOOTH",
"277 -129 OFFCURVE",
"294 -133 OFFCURVE",
"312 -142 CURVE",
"315 -184 OFFCURVE",
"295 -223 OFFCURVE",
"251 -223 CURVE SMOOTH"
);
},
{
closed = 1;
nodes = (
"104 43 OFFCURVE",
"86 62 OFFCURVE",
"86 94 CURVE SMOOTH",
"86 126 OFFCURVE",
"104 145 OFFCURVE",
"136 145 CURVE SMOOTH",
"168 145 OFFCURVE",
"186 127 OFFCURVE",
"186 94 CURVE SMOOTH",
"186 62 OFFCURVE",
"168 43 OFFCURVE",
"136 43 CURVE SMOOTH"
);
},
{
closed = 1;
nodes = (
"234 312 LINE",
"241 312 LINE",
"241 330 LINE",
"234 330 LINE"
);
}
);
userData = {
com.schriftgestaltung.Glyphs.glyph.leftMetricsKey = "phoSamphao-thai";
com.schriftgestaltung.Glyphs.glyph.rightMetricsKey = "khoKhwai-thai";
};
width = 647;
},
{
anchors = (
{
name = bottom;
position = "{323, -280}";
},
{
name = bottomright;
position = "{622, -270}";
},
{
name = top;
position = "{349, 563}";
},
{
name = topright;
position = "{617, 563}";
}
);
layerId = "EB3A5D6C-8260-43A6-9EF2-63971FC08D48";
paths = (
{
closed = 1;
nodes = (
"333 -280 OFFCURVE",
"380 -215 OFFCURVE",
"380 -156 CURVE SMOOTH",
"380 -141 OFFCURVE",
"378 -125 OFFCURVE",
"373 -107 CURVE",
"319 -192 LINE",
"371 -199 OFFCURVE",
"419 -228 OFFCURVE",
"454 -270 CURVE",
"622 -270 LINE",
"622 341 LINE SMOOTH",
"622 491 OFFCURVE",
"526 578 OFFCURVE",
"346 578 CURVE SMOOTH",
"181 578 OFFCURVE",
"75 501 OFFCURVE",
"75 377 CURVE SMOOTH",
"75 339 LINE",
"256 280 LINE",
"276 316 LINE",
"136 316 OFFCURVE",
"113 269 OFFCURVE",
"113 208 CURVE SMOOTH",
"113 192 LINE",
"186 192 OFFCURVE",
"224 153 OFFCURVE",
"224 97 CURVE",
"238 97 LINE",
"238 170 OFFCURVE",
"208 204 OFFCURVE",
"123 204 CURVE SMOOTH",
"57 204 OFFCURVE",
"24 155 OFFCURVE",
"24 97 CURVE SMOOTH",
"24 38 OFFCURVE",
"70 -10 OFFCURVE",
"150 -10 CURVE SMOOTH",
"234 -10 OFFCURVE",
"299 36 OFFCURVE",
"299 144 CURVE SMOOTH",
"299 208 LINE SMOOTH",
"299 235 OFFCURVE",
"309 256 OFFCURVE",
"356 256 CURVE",
"364 348 LINE",
"178 417 LINE",
"253 363 LINE",
"253 406 OFFCURVE",
"279 437 OFFCURVE",
"344 437 CURVE SMOOTH",
"410 437 OFFCURVE",
"436 393 OFFCURVE",
"436 306 CURVE SMOOTH",
"436 -157 LINE",
"460 -133 LINE",
"413 -82 OFFCURVE",
"342 -49 OFFCURVE",
"262 -49 CURVE SMOOTH",
"165 -49 OFFCURVE",
"122 -100 OFFCURVE",
"122 -168 CURVE SMOOTH",
"122 -238 OFFCURVE",
"174 -280 OFFCURVE",
"243 -280 CURVE SMOOTH"
);
},
{
closed = 1;
nodes = (
"220 -211 OFFCURVE",
"202 -196 OFFCURVE",
"202 -168 CURVE SMOOTH",
"202 -139 OFFCURVE",
"219 -121 OFFCURVE",
"258 -121 CURVE SMOOTH",
"274 -121 OFFCURVE",
"290 -124 OFFCURVE",
"306 -132 CURVE",
"308 -169 OFFCURVE",
"286 -211 OFFCURVE",
"246 -211 CURVE SMOOTH"
);
},
{
closed = 1;
nodes = (
"116 52 OFFCURVE",
"96 68 OFFCURVE",
"96 97 CURVE SMOOTH",
"96 126 OFFCURVE",
"116 142 OFFCURVE",
"143 142 CURVE SMOOTH",
"170 142 OFFCURVE",
"190 127 OFFCURVE",
"190 97 CURVE SMOOTH",
"190 68 OFFCURVE",
"170 52 OFFCURVE",
"143 52 CURVE SMOOTH"
);
},
{
closed = 1;
nodes = (
"178 295 LINE",
"185 295 LINE",
"185 313 LINE",
"178 313 LINE"
);
}
);
userData = {
com.schriftgestaltung.Glyphs.glyph.leftMetricsKey = "phoSamphao-thai";
com.schriftgestaltung.Glyphs.glyph.rightMetricsKey = "khoKhwai-thai";
};
width = 688;
},
{
anchors = (
{
name = bottom;
position = "{260, -280}";
},
{
name = bottomright;
position = "{506, -270}";
},
{
name = top;
position = "{281, 561}";
},
{
name = topright;
position = "{499, 561}";
}
);
layerId = "C987F20E-C470-4905-85F8-C37EA20127D7";
paths = (
{
closed = 1;
nodes = (
"267 -280 OFFCURVE",
"307 -219 OFFCURVE",
"307 -156 CURVE SMOOTH",
"307 -139 OFFCURVE",
"305 -125 OFFCURVE",
"300 -109 CURVE",
"252 -188 LINE",
"297 -197 OFFCURVE",
"339 -228 OFFCURVE",
"368 -270 CURVE",
"506 -270 LINE",
"506 350 LINE SMOOTH",
"506 492 OFFCURVE",
"420 576 OFFCURVE",
"275 576 CURVE SMOOTH",
"143 576 OFFCURVE",
"56 499 OFFCURVE",
"56 385 CURVE SMOOTH",
"56 336 LINE",
"208 265 LINE",
"193 303 LINE",
"135 303 OFFCURVE",
"87 275 OFFCURVE",
"87 205 CURVE SMOOTH",
"87 187 LINE",
"149 187 OFFCURVE",
"191 153 OFFCURVE",
"191 97 CURVE",
"212 97 LINE",
"212 173 OFFCURVE",
"170 203 OFFCURVE",
"103 203 CURVE SMOOTH",
"49 203 OFFCURVE",
"14 154 OFFCURVE",
"14 97 CURVE SMOOTH",
"14 38 OFFCURVE",
"54 -10 OFFCURVE",
"124 -10 CURVE SMOOTH",
"193 -10 OFFCURVE",
"243 36 OFFCURVE",
"243 144 CURVE SMOOTH",
"243 187 LINE SMOOTH",
"243 227 OFFCURVE",
"253 250 OFFCURVE",
"289 250 CURVE",
"296 347 LINE",
"141 425 LINE",
"197 351 LINE",
"197 400 OFFCURVE",
"217 437 OFFCURVE",
"275 437 CURVE SMOOTH",
"332 437 OFFCURVE",
"350 386 OFFCURVE",
"350 314 CURVE SMOOTH",
"350 -157 LINE",
"373 -135 LINE",
"334 -84 OFFCURVE",
"273 -54 OFFCURVE",
"209 -54 CURVE SMOOTH",
"129 -54 OFFCURVE",
"92 -103 OFFCURVE",
"92 -170 CURVE SMOOTH",
"92 -240 OFFCURVE",
"136 -280 OFFCURVE",
"193 -280 CURVE SMOOTH"
);
},
{
closed = 1;
nodes = (
"176 -213 OFFCURVE",
"161 -198 OFFCURVE",
"161 -170 CURVE SMOOTH",
"161 -142 OFFCURVE",
"175 -124 OFFCURVE",
"207 -124 CURVE SMOOTH",
"221 -124 OFFCURVE",
"234 -127 OFFCURVE",
"246 -134 CURVE",
"248 -171 OFFCURVE",
"230 -213 OFFCURVE",
"197 -213 CURVE SMOOTH"
);
},
{
closed = 1;
nodes = (
"91 51 OFFCURVE",
"77 68 OFFCURVE",
"77 97 CURVE SMOOTH",
"77 125 OFFCURVE",
"91 142 OFFCURVE",
"116 142 CURVE SMOOTH",
"141 142 OFFCURVE",
"155 126 OFFCURVE",
"155 97 CURVE SMOOTH",
"155 68 OFFCURVE",
"141 51 OFFCURVE",
"116 51 CURVE SMOOTH"
);
},
{
closed = 1;
nodes = (
"141 286 LINE",
"148 286 LINE",
"148 304 LINE",
"141 304 LINE"
);
}
);
userData = {
com.schriftgestaltung.Glyphs.glyph.leftMetricsKey = "phoSamphao-thai";
com.schriftgestaltung.Glyphs.glyph.rightMetricsKey = "khoKhwai-thai";
};
width = 558;
},
{
anchors = (
{
name = bottom;
position = "{284, -275}";
},
{
name = bottomright;
position = "{528, -270}";
},
{
name = top;
position = "{332, 550}";
},
{
name = topright;
position = "{523, 550}";
}
);
layerId = "90A34054-68E4-499D-AE50-276C7B026D8B";
paths = (
{
closed = 1;
nodes = (
"310 -275 OFFCURVE",
"344 -214 OFFCURVE",
"344 -155 CURVE SMOOTH",
"344 -147 OFFCURVE",
"343 -138 OFFCURVE",
"342 -130 CURVE",
"334 -144 LINE",
"387 -166 OFFCURVE",
"456 -213 OFFCURVE",
"503 -270 CURVE",
"528 -270 LINE",
"528 382 LINE SMOOTH",
"528 497 OFFCURVE",
"452 558 OFFCURVE",
"330 558 CURVE SMOOTH",
"202 558 OFFCURVE",
"135 487 OFFCURVE",
"135 393 CURVE SMOOTH",
"135 373 LINE",
"275 324 LINE",
"273 328 LINE",
"209 328 OFFCURVE",
"179 288 OFFCURVE",
"179 211 CURVE SMOOTH",
"179 115 LINE",
"184 115 OFFCURVE",
"193 94 OFFCURVE",
"193 75 CURVE",
"197 75 LINE",
"197 117 OFFCURVE",
"173 155 OFFCURVE",
"119 155 CURVE SMOOTH",
"68 155 OFFCURVE",
"39 118 OFFCURVE",
"39 75 CURVE SMOOTH",
"39 32 OFFCURVE",
"68 -5 OFFCURVE",
"120 -5 CURVE SMOOTH",
"177 -5 OFFCURVE",
"204 33 OFFCURVE",
"204 94 CURVE SMOOTH",
"204 207 LINE SMOOTH",
"204 278 OFFCURVE",
"222 312 OFFCURVE",
"302 312 CURVE",
"308 335 LINE",
"149 392 LINE",
"159 385 LINE",
"159 477 OFFCURVE",
"223 535 OFFCURVE",
"330 535 CURVE SMOOTH",
"433 535 OFFCURVE",
"503 483 OFFCURVE",
"503 377 CURVE SMOOTH",
"503 -256 LINE",
"520 -250 LINE",
"455 -180 OFFCURVE",
"342 -101 OFFCURVE",
"246 -101 CURVE SMOOTH",
"180 -101 OFFCURVE",
"143 -135 OFFCURVE",
"143 -188 CURVE SMOOTH",
"143 -240 OFFCURVE",
"178 -275 OFFCURVE",
"238 -275 CURVE SMOOTH"
);
},
{
closed = 1;
nodes = (
"194 -251 OFFCURVE",
"170 -227 OFFCURVE",
"170 -188 CURVE SMOOTH",
"170 -148 OFFCURVE",
"199 -124 OFFCURVE",
"246 -124 CURVE SMOOTH",
"272 -124 OFFCURVE",
"293 -128 OFFCURVE",
"320 -140 CURVE",
"320 -198 OFFCURVE",
"295 -251 OFFCURVE",
"238 -251 CURVE SMOOTH"
);
},
{
closed = 1;
nodes = (
"85 18 OFFCURVE",
"64 41 OFFCURVE",
"64 75 CURVE SMOOTH",
"64 109 OFFCURVE",
"85 132 OFFCURVE",
"120 132 CURVE SMOOTH",
"157 132 OFFCURVE",
"176 109 OFFCURVE",
"176 75 CURVE SMOOTH",
"176 41 OFFCURVE",
"157 18 OFFCURVE",
"120 18 CURVE SMOOTH"
);
},
{
closed = 1;
nodes = (
"262 319 LINE",
"269 319 LINE",
"269 337 LINE",
"262 337 LINE"
);
}
);
width = 618;
},
{
anchors = (
{
name = bottom;
position = "{203, -275}";
},
{
name = bottomright;
position = "{381, -269}";
},
{
name = top;
position = "{239, 548}";
},
{
name = topright;
position = "{376, 548}";
}
);
layerId = "31946225-6F4F-4A3A-A9E3-76FE8DE38A50";
paths = (
{
closed = 1;
nodes = (
"228 -275 OFFCURVE",
"249 -217 OFFCURVE",
"249 -160 CURVE SMOOTH",
"249 -151 OFFCURVE",
"248 -140 OFFCURVE",
"247 -130 CURVE",
"241 -143 LINE",
"279 -165 OFFCURVE",
"325 -216 OFFCURVE",
"359 -270 CURVE",
"381 -270 LINE",
"381 389 LINE SMOOTH",
"381 502 OFFCURVE",
"323 556 OFFCURVE",
"236 556 CURVE SMOOTH",
"145 556 OFFCURVE",
"96 493 OFFCURVE",
"96 401 CURVE SMOOTH",
"96 380 LINE",
"192 337 LINE",
"189 343 LINE",
"141 331 OFFCURVE",
"124 292 OFFCURVE",
"124 216 CURVE SMOOTH",
"124 114 LINE",
"129 114 OFFCURVE",
"136 93 OFFCURVE",
"136 74 CURVE",
"141 74 LINE",
"141 122 OFFCURVE",
"118 153 OFFCURVE",
"83 153 CURVE SMOOTH",
"49 153 OFFCURVE",
"25 121 OFFCURVE",
"25 74 CURVE SMOOTH",
"25 26 OFFCURVE",
"49 -5 OFFCURVE",
"87 -5 CURVE SMOOTH",
"124 -5 OFFCURVE",
"148 27 OFFCURVE",
"148 77 CURVE SMOOTH",
"148 212 LINE SMOOTH",
"148 282 OFFCURVE",
"157 315 OFFCURVE",
"214 327 CURVE",
"218 349 LINE",
"111 399 LINE",
"118 384 LINE",
"118 478 OFFCURVE",
"154 533 OFFCURVE",
"236 533 CURVE SMOOTH",
"309 533 OFFCURVE",
"357 488 OFFCURVE",
"357 384 CURVE SMOOTH",
"357 -258 LINE",
"375 -248 LINE",
"328 -179 OFFCURVE",
"247 -100 OFFCURVE",
"182 -100 CURVE SMOOTH",
"131 -100 OFFCURVE",
"104 -137 OFFCURVE",
"104 -189 CURVE SMOOTH",
"104 -241 OFFCURVE",
"132 -275 OFFCURVE",
"175 -275 CURVE SMOOTH"
);
},
{
closed = 1;
nodes = (
"146 -253 OFFCURVE",
"127 -231 OFFCURVE",
"127 -189 CURVE SMOOTH",
"127 -150 OFFCURVE",
"147 -123 OFFCURVE",
"178 -123 CURVE SMOOTH",
"194 -123 OFFCURVE",
"206 -125 OFFCURVE",
"226 -135 CURVE",
"228 -195 OFFCURVE",
"217 -253 OFFCURVE",
"175 -253 CURVE SMOOTH"
);
},
{
closed = 1;
nodes = (
"62 16 OFFCURVE",
"47 36 OFFCURVE",
"47 74 CURVE SMOOTH",
"47 111 OFFCURVE",
"62 132 OFFCURVE",
"85 132 CURVE SMOOTH",
"109 132 OFFCURVE",
"124 111 OFFCURVE",
"124 74 CURVE SMOOTH",
"124 36 OFFCURVE",
"109 16 OFFCURVE",
"86 16 CURVE SMOOTH"
);
},
{
closed = 1;
nodes = (
"181 332 LINE",
"188 332 LINE",
"188 350 LINE",
"181 350 LINE"
);
}
);
width = 457;
},
{
anchors = (
{
name = bottom;
position = "{222, -277}";
},
{
name = bottomright;
position = "{419, -270}";
},
{
name = top;
position = "{252, 551}";
},
{
name = topright;
position = "{414, 551}";
}
);
layerId = "9F3C76A5-8ED6-4D1B-8CC9-A050DF474D58";
paths = (
{
closed = 1;
nodes = (
"254 -277 OFFCURVE",
"277 -216 OFFCURVE",
"277 -153 CURVE SMOOTH",
"277 -141 OFFCURVE",
"276 -129 OFFCURVE",
"273 -115 CURVE",
"242 -164 LINE",
"276 -176 OFFCURVE",
"322 -223 OFFCURVE",
"347 -270 CURVE",
"419 -270 LINE",
"419 389 LINE SMOOTH",
"419 508 OFFCURVE",
"337 561 OFFCURVE",
"251 561 CURVE SMOOTH",
"150 561 OFFCURVE",
"85 495 OFFCURVE",
"85 415 CURVE SMOOTH",
"85 384 LINE",
"200 323 LINE",
"198 342 LINE",
"132 339 OFFCURVE",
"112 298 OFFCURVE",
"112 239 CURVE SMOOTH",
"112 173 LINE",
"150 173 OFFCURVE",
"160 134 OFFCURVE",
"160 93 CURVE",
"174 93 LINE",
"174 144 OFFCURVE",
"157 190 OFFCURVE",
"105 190 CURVE SMOOTH",
"56 190 OFFCURVE",
"25 153 OFFCURVE",
"25 93 CURVE SMOOTH",
"25 31 OFFCURVE",
"54 -7 OFFCURVE",
"105 -7 CURVE SMOOTH",
"157 -7 OFFCURVE",
"188 33 OFFCURVE",
"188 103 CURVE SMOOTH",
"188 239 LINE SMOOTH",
"188 272 OFFCURVE",
"199 308 OFFCURVE",
"237 308 CURVE",
"243 364 LINE",
"132 430 LINE",
"159 389 LINE",
"159 456 OFFCURVE",
"190 490 OFFCURVE",
"250 490 CURVE SMOOTH",
"303 490 OFFCURVE",
"343 455 OFFCURVE",
"343 380 CURVE SMOOTH",
"343 -184 LINE",
"354 -177 LINE",
"310 -122 OFFCURVE",
"249 -77 OFFCURVE",
"195 -77 CURVE SMOOTH",
"137 -77 OFFCURVE",
"102 -110 OFFCURVE",
"102 -175 CURVE SMOOTH",
"102 -235 OFFCURVE",
"139 -277 OFFCURVE",
"188 -277 CURVE SMOOTH"
);
},
{
closed = 1;
nodes = (
"165 -228 OFFCURVE",
"152 -204 OFFCURVE",
"152 -176 CURVE SMOOTH",
"152 -148 OFFCURVE",
"163 -125 OFFCURVE",
"192 -125 CURVE SMOOTH",
"204 -125 OFFCURVE",
"215 -128 OFFCURVE",
"227 -136 CURVE",
"231 -185 OFFCURVE",
"223 -228 OFFCURVE",
"188 -228 CURVE SMOOTH"
);
},
{
closed = 1;
nodes = (
"81 37 OFFCURVE",
"71 60 OFFCURVE",
"71 92 CURVE SMOOTH",
"71 123 OFFCURVE",
"81 146 OFFCURVE",
"105 146 CURVE SMOOTH",
"129 146 OFFCURVE",
"140 124 OFFCURVE",
"140 92 CURVE SMOOTH",
"140 60 OFFCURVE",
"129 37 OFFCURVE",
"105 37 CURVE SMOOTH"
);
},
{
closed = 1;
nodes = (
"169 329 LINE",
"176 329 LINE",
"176 347 LINE",
"169 347 LINE"
);
}
);
userData = {
com.schriftgestaltung.Glyphs.glyph.leftMetricsKey = "phoSamphao-thai";
com.schriftgestaltung.Glyphs.glyph.rightMetricsKey = "khoKhwai-thai";
};
width = 487;
}
);
leftKerningGroup = "phoSamphao-thai";
leftMetricsKey = "phoSamphao-thai";
rightKerningGroup = "koKai-thai";
rightMetricsKey = "phoSamphao-thai";
unicode = 0E0E;
},
{
glyphname = "doChada-thai.short";
lastChange = "2020-11-15 17:48:29 +0000";
layers = (
{
anchors = (
{
name = bottom;
position = "{297, -275}";
},
{
name = bottomright;
position = "{561, -270}";
},
{
name = top;
position = "{338, 553}";
},
{
name = topright;
position = "{556, 553}";
}
);
hints = (
{
horizontal = 1;
origin = "{0, 14}";
target = "{0, 50}";
type = Stem;
},
{
origin = "{0, 24}";
target = "{0, 40}";
type = Stem;
},
{
origin = "{0, 54}";
target = "{0, 10}";
type = Stem;
},
{
horizontal = 1;
origin = "{0, 37}";
target = "{2, 11}";
type = Stem;
}
);
layerId = "59720D05-F04C-4F19-83A4-486FF5963186";
paths = (
{
closed = 1;
nodes = (
"346 -237 OFFCURVE",
"381 -173 OFFCURVE",
"381 -123 CURVE SMOOTH",
"381 -106 OFFCURVE",
"379 -88 OFFCURVE",
"374 -73 CURVE",
"334 -125 LINE",
"380 -137 OFFCURVE",
"439 -182 OFFCURVE",
"473 -230 CURVE",
"561 -230 LINE",
"561 372 LINE SMOOTH",
"561 505 OFFCURVE",
"456 563 OFFCURVE",
"336 563 CURVE SMOOTH",
"199 563 OFFCURVE",
"114 489 OFFCURVE",
"114 398 CURVE SMOOTH",
"114 365 LINE",
"274 309 LINE",
"271 325 LINE",
"194 325 OFFCURVE",
"155 281 OFFCURVE",
"155 200 CURVE SMOOTH",
"155 166 LINE",
"185 166 OFFCURVE",
"221 126 OFFCURVE",
"221 94 CURVE",
"234 94 LINE",
"234 151 OFFCURVE",
"201 192 OFFCURVE",
"136 193 CURVE SMOOTH",
"74 194 OFFCURVE",
"32 156 OFFCURVE",
"32 95 CURVE SMOOTH",
"32 33 OFFCURVE",
"72 -5 OFFCURVE",
"136 -5 CURVE SMOOTH",
"201 -5 OFFCURVE",
"241 35 OFFCURVE",
"241 105 CURVE SMOOTH",
"241 199 LINE SMOOTH",
"241 257 OFFCURVE",
"259 293 OFFCURVE",
"310 293 CURVE",
"320 349 LINE",
"166 405 LINE",
"201 373 LINE",
"201 443 OFFCURVE",
"246 491 OFFCURVE",
"335 491 CURVE SMOOTH",
"411 491 OFFCURVE",
"475 452 OFFCURVE",
"475 363 CURVE SMOOTH",
"475 -144 LINE",
"491 -148 LINE",
"432 -91 OFFCURVE",
"347 -36 OFFCURVE",
"267 -36 CURVE SMOOTH",
"190 -36 OFFCURVE",
"147 -71 OFFCURVE",
"147 -137 CURVE SMOOTH",
"147 -197 OFFCURVE",
"195 -237 OFFCURVE",
"260 -237 CURVE SMOOTH"
);
},
{
closed = 1;
nodes = (
"228 -183 OFFCURVE",
"208 -164 OFFCURVE",
"208 -136 CURVE SMOOTH",
"208 -107 OFFCURVE",
"225 -89 OFFCURVE",
"267 -89 CURVE SMOOTH",
"286 -89 OFFCURVE",
"303 -93 OFFCURVE",
"321 -102 CURVE",
"324 -144 OFFCURVE",
"304 -183 OFFCURVE",
"260 -183 CURVE SMOOTH"
);
},
{
closed = 1;
nodes = (
"104 43 OFFCURVE",
"86 62 OFFCURVE",
"86 94 CURVE SMOOTH",
"86 126 OFFCURVE",
"104 145 OFFCURVE",
"136 145 CURVE SMOOTH",
"168 145 OFFCURVE",
"186 127 OFFCURVE",
"186 94 CURVE SMOOTH",
"186 62 OFFCURVE",
"168 43 OFFCURVE",
"136 43 CURVE SMOOTH"
);
},
{
closed = 1;
nodes = (
"234 312 LINE",
"241 312 LINE",
"241 330 LINE",
"234 330 LINE"
);
}
);
userData = {
com.schriftgestaltung.Glyphs.glyph.rightMetricsKey = "khoKhwai-thai";
};
width = 647;
},
{
anchors = (
{
name = bottom;
position = "{323, -250}";
},
{
name = bottomright;
position = "{622, -240}";
},
{
name = top;
position = "{349, 563}";
},
{
name = topright;
position = "{616, 563}";
}
);
layerId = "EB3A5D6C-8260-43A6-9EF2-63971FC08D48";
paths = (
{
closed = 1;
nodes = (
"341 -250 OFFCURVE",
"388 -185 OFFCURVE",
"388 -126 CURVE SMOOTH",
"388 -111 OFFCURVE",
"386 -95 OFFCURVE",
"381 -77 CURVE",
"327 -162 LINE",
"379 -169 OFFCURVE",
"419 -198 OFFCURVE",
"454 -240 CURVE",
"622 -240 LINE",
"622 341 LINE SMOOTH",
"622 491 OFFCURVE",
"526 578 OFFCURVE",
"346 578 CURVE SMOOTH",
"181 578 OFFCURVE",
"75 501 OFFCURVE",
"75 377 CURVE SMOOTH",
"75 339 LINE",
"256 280 LINE",
"276 316 LINE",
"136 316 OFFCURVE",
"113 269 OFFCURVE",
"113 208 CURVE SMOOTH",
"113 192 LINE",
"186 192 OFFCURVE",
"224 153 OFFCURVE",
"224 97 CURVE",
"238 97 LINE",
"238 170 OFFCURVE",
"208 204 OFFCURVE",
"123 204 CURVE SMOOTH",
"57 204 OFFCURVE",
"24 155 OFFCURVE",
"24 97 CURVE SMOOTH",
"24 38 OFFCURVE",
"70 -10 OFFCURVE",
"150 -10 CURVE SMOOTH",
"234 -10 OFFCURVE",
"299 36 OFFCURVE",
"299 144 CURVE SMOOTH",
"299 208 LINE SMOOTH",
"299 235 OFFCURVE",
"309 256 OFFCURVE",
"356 256 CURVE",
"364 348 LINE",
"178 417 LINE",
"253 363 LINE",
"253 406 OFFCURVE",
"279 437 OFFCURVE",
"344 437 CURVE SMOOTH",
"410 437 OFFCURVE",
"436 393 OFFCURVE",
"436 306 CURVE SMOOTH",
"436 -127 LINE",
"460 -111 LINE",
"415 -62 OFFCURVE",
"350 -27 OFFCURVE",
"270 -27 CURVE SMOOTH",
"173 -27 OFFCURVE",
"130 -80 OFFCURVE",
"130 -145 CURVE SMOOTH",
"130 -212 OFFCURVE",
"182 -250 OFFCURVE",
"251 -250 CURVE SMOOTH"
);
},
{
closed = 1;
nodes = (
"228 -184 OFFCURVE",
"210 -168 OFFCURVE",
"210 -143 CURVE SMOOTH",
"210 -117 OFFCURVE",
"227 -97 OFFCURVE",
"266 -97 CURVE SMOOTH",
"282 -97 OFFCURVE",
"299 -100 OFFCURVE",
"314 -107 CURVE",
"316 -144 OFFCURVE",
"294 -184 OFFCURVE",
"254 -184 CURVE SMOOTH"
);
},
{
closed = 1;
nodes = (
"116 52 OFFCURVE",
"96 68 OFFCURVE",
"96 97 CURVE SMOOTH",
"96 126 OFFCURVE",
"116 142 OFFCURVE",
"143 142 CURVE SMOOTH",
"170 142 OFFCURVE",
"190 127 OFFCURVE",
"190 97 CURVE SMOOTH",
"190 68 OFFCURVE",
"170 52 OFFCURVE",
"143 52 CURVE SMOOTH"
);
},
{
closed = 1;
nodes = (
"178 295 LINE",
"185 295 LINE",
"185 313 LINE",
"178 313 LINE"
);
}
);
userData = {
com.schriftgestaltung.Glyphs.glyph.rightMetricsKey = "khoKhwai-thai";
};
width = 688;
},
{
anchors = (
{
name = bottom;
position = "{260, -249}";
},
{
name = bottomright;
position = "{506, -239}";
},
{
name = top;
position = "{281, 561}";
},
{
name = topright;
position = "{499, 561}";
}
);
layerId = "C987F20E-C470-4905-85F8-C37EA20127D7";
paths = (
{
closed = 1;
nodes = (
"267 -249 OFFCURVE",
"307 -188 OFFCURVE",
"307 -126 CURVE SMOOTH",
"307 -108 OFFCURVE",
"305 -94 OFFCURVE",
"300 -78 CURVE",
"252 -158 LINE",
"297 -167 OFFCURVE",
"338 -195 OFFCURVE",
"368 -239 CURVE",
"506 -239 LINE",
"506 350 LINE SMOOTH",
"506 492 OFFCURVE",
"420 576 OFFCURVE",
"275 576 CURVE SMOOTH",
"143 576 OFFCURVE",
"56 499 OFFCURVE",
"56 385 CURVE SMOOTH",
"56 336 LINE",
"208 265 LINE",
"193 303 LINE",
"135 303 OFFCURVE",
"87 275 OFFCURVE",
"87 205 CURVE SMOOTH",
"87 187 LINE",
"149 187 OFFCURVE",
"191 153 OFFCURVE",
"191 97 CURVE",
"212 97 LINE",
"212 173 OFFCURVE",
"170 203 OFFCURVE",
"103 203 CURVE SMOOTH",
"49 203 OFFCURVE",
"14 154 OFFCURVE",
"14 97 CURVE SMOOTH",
"14 38 OFFCURVE",
"54 -10 OFFCURVE",
"124 -10 CURVE SMOOTH",
"193 -10 OFFCURVE",
"243 36 OFFCURVE",
"243 144 CURVE SMOOTH",
"243 187 LINE SMOOTH",
"243 227 OFFCURVE",
"253 250 OFFCURVE",
"289 250 CURVE",
"296 347 LINE",
"141 425 LINE",
"197 351 LINE",
"197 400 OFFCURVE",
"217 437 OFFCURVE",
"275 437 CURVE SMOOTH",
"332 437 OFFCURVE",
"350 386 OFFCURVE",
"350 314 CURVE SMOOTH",
"350 -126 LINE",
"373 -111 LINE",
"332 -58 OFFCURVE",
"271 -31 OFFCURVE",
"209 -31 CURVE SMOOTH",
"129 -31 OFFCURVE",
"92 -80 OFFCURVE",
"92 -143 CURVE SMOOTH",
"92 -209 OFFCURVE",
"136 -249 OFFCURVE",
"193 -249 CURVE SMOOTH"
);
},
{
closed = 1;
nodes = (
"176 -183 OFFCURVE",
"161 -167 OFFCURVE",
"161 -143 CURVE SMOOTH",
"161 -119 OFFCURVE",
"175 -101 OFFCURVE",
"207 -101 CURVE SMOOTH",
"221 -101 OFFCURVE",
"233 -104 OFFCURVE",
"246 -112 CURVE",
"248 -150 OFFCURVE",
"229 -183 OFFCURVE",
"197 -183 CURVE SMOOTH"
);
},
{
closed = 1;
nodes = (
"91 51 OFFCURVE",
"77 68 OFFCURVE",
"77 97 CURVE SMOOTH",
"77 125 OFFCURVE",
"91 142 OFFCURVE",
"116 142 CURVE SMOOTH",
"141 142 OFFCURVE",
"155 126 OFFCURVE",
"155 97 CURVE SMOOTH",
"155 68 OFFCURVE",
"141 51 OFFCURVE",
"116 51 CURVE SMOOTH"
);
},
{
closed = 1;
nodes = (
"141 286 LINE",
"148 286 LINE",
"148 304 LINE",
"141 304 LINE"
);
}
);
userData = {
com.schriftgestaltung.Glyphs.glyph.rightMetricsKey = "khoKhwai-thai";
};
width = 558;
},
{
anchors = (
{
name = bottom;
position = "{284, -233}";
},
{
name = bottomright;
position = "{532, -225}";
},
{
name = top;
position = "{332, 550}";
},
{
name = topright;
position = "{527, 550}";
}
);
layerId = "90A34054-68E4-499D-AE50-276C7B026D8B";
paths = (
{
closed = 1;
nodes = (
"310 -230 OFFCURVE",
"344 -169 OFFCURVE",
"344 -110 CURVE SMOOTH",
"344 -102 OFFCURVE",
"343 -93 OFFCURVE",
"342 -85 CURVE",
"334 -99 LINE",
"387 -121 OFFCURVE",
"456 -168 OFFCURVE",
"503 -225 CURVE",
"528 -225 LINE",
"528 382 LINE SMOOTH",
"528 497 OFFCURVE",
"452 558 OFFCURVE",
"330 558 CURVE SMOOTH",
"202 558 OFFCURVE",
"135 487 OFFCURVE",
"135 393 CURVE SMOOTH",
"135 373 LINE",
"275 324 LINE",
"273 328 LINE",
"209 328 OFFCURVE",
"179 288 OFFCURVE",
"179 211 CURVE SMOOTH",
"179 115 LINE",
"184 115 OFFCURVE",
"193 94 OFFCURVE",
"193 75 CURVE",
"197 75 LINE",
"197 117 OFFCURVE",
"173 155 OFFCURVE",
"119 155 CURVE SMOOTH",
"68 155 OFFCURVE",
"39 118 OFFCURVE",
"39 75 CURVE SMOOTH",
"39 32 OFFCURVE",
"68 -5 OFFCURVE",
"120 -5 CURVE SMOOTH",
"177 -5 OFFCURVE",
"204 33 OFFCURVE",
"204 94 CURVE SMOOTH",
"204 207 LINE SMOOTH",
"204 278 OFFCURVE",
"222 312 OFFCURVE",
"302 312 CURVE",
"308 335 LINE",
"149 392 LINE",
"159 385 LINE",
"159 477 OFFCURVE",
"223 535 OFFCURVE",
"330 535 CURVE SMOOTH",
"433 535 OFFCURVE",
"503 483 OFFCURVE",
"503 377 CURVE SMOOTH",
"503 -211 LINE",
"520 -205 LINE",
"455 -135 OFFCURVE",
"342 -56 OFFCURVE",
"246 -56 CURVE SMOOTH",
"180 -56 OFFCURVE",
"143 -90 OFFCURVE",
"143 -143 CURVE SMOOTH",
"143 -195 OFFCURVE",
"178 -230 OFFCURVE",
"238 -230 CURVE SMOOTH"
);
},
{
closed = 1;
nodes = (
"194 -206 OFFCURVE",
"170 -182 OFFCURVE",
"170 -143 CURVE SMOOTH",
"170 -103 OFFCURVE",
"199 -79 OFFCURVE",
"246 -79 CURVE SMOOTH",
"272 -79 OFFCURVE",
"293 -83 OFFCURVE",
"320 -95 CURVE",
"320 -153 OFFCURVE",
"295 -206 OFFCURVE",
"238 -206 CURVE SMOOTH"
);
},
{
closed = 1;
nodes = (
"85 18 OFFCURVE",
"64 41 OFFCURVE",
"64 75 CURVE SMOOTH",
"64 109 OFFCURVE",
"85 132 OFFCURVE",
"120 132 CURVE SMOOTH",
"157 132 OFFCURVE",
"176 109 OFFCURVE",
"176 75 CURVE SMOOTH",
"176 41 OFFCURVE",
"157 18 OFFCURVE",
"120 18 CURVE SMOOTH"
);
},
{
closed = 1;
nodes = (
"262 319 LINE",
"269 319 LINE",
"269 337 LINE",
"262 337 LINE"
);
}
);
width = 618;
},
{
anchors = (
{
name = bottom;
position = "{203, -232}";
},
{
name = bottomright;
position = "{381, -224}";
},
{
name = top;
position = "{239, 548}";
},
{
name = topright;
position = "{376, 548}";
}
);
layerId = "31946225-6F4F-4A3A-A9E3-76FE8DE38A50";
paths = (
{
closed = 1;
nodes = (
"228 -229 OFFCURVE",
"249 -171 OFFCURVE",
"249 -115 CURVE SMOOTH",
"249 -105 OFFCURVE",
"248 -95 OFFCURVE",
"247 -85 CURVE",
"241 -97 LINE",
"279 -120 OFFCURVE",
"324 -167 OFFCURVE",
"359 -224 CURVE",
"381 -224 LINE",
"381 389 LINE SMOOTH",
"381 502 OFFCURVE",
"323 556 OFFCURVE",
"236 556 CURVE SMOOTH",
"145 556 OFFCURVE",
"96 493 OFFCURVE",
"96 401 CURVE SMOOTH",
"96 380 LINE",
"192 337 LINE",
"189 343 LINE",
"141 331 OFFCURVE",
"124 292 OFFCURVE",
"124 216 CURVE SMOOTH",
"124 114 LINE",
"129 114 OFFCURVE",
"136 93 OFFCURVE",
"136 74 CURVE",
"141 74 LINE",
"141 122 OFFCURVE",
"118 153 OFFCURVE",
"83 153 CURVE SMOOTH",
"49 153 OFFCURVE",
"25 121 OFFCURVE",
"25 74 CURVE SMOOTH",
"25 26 OFFCURVE",
"49 -5 OFFCURVE",
"87 -5 CURVE SMOOTH",
"124 -5 OFFCURVE",
"148 27 OFFCURVE",
"148 77 CURVE SMOOTH",
"148 212 LINE SMOOTH",
"148 282 OFFCURVE",
"157 315 OFFCURVE",
"214 327 CURVE",
"218 349 LINE",
"111 399 LINE",
"118 384 LINE",
"118 478 OFFCURVE",
"154 533 OFFCURVE",
"236 533 CURVE SMOOTH",
"309 533 OFFCURVE",
"357 488 OFFCURVE",
"357 384 CURVE SMOOTH",
"357 -212 LINE",
"375 -202 LINE",
"328 -133 OFFCURVE",
"247 -54 OFFCURVE",
"182 -54 CURVE SMOOTH",
"131 -54 OFFCURVE",
"104 -91 OFFCURVE",
"104 -143 CURVE SMOOTH",
"104 -195 OFFCURVE",
"132 -229 OFFCURVE",
"175 -229 CURVE SMOOTH"
);
},
{
closed = 1;
nodes = (
"146 -207 OFFCURVE",
"127 -185 OFFCURVE",
"127 -143 CURVE SMOOTH",
"127 -104 OFFCURVE",
"147 -77 OFFCURVE",
"178 -77 CURVE SMOOTH",
"198 -77 OFFCURVE",
"209 -81 OFFCURVE",
"226 -90 CURVE",
"228 -149 OFFCURVE",
"217 -207 OFFCURVE",
"175 -207 CURVE SMOOTH"
);
},
{
closed = 1;
nodes = (
"62 16 OFFCURVE",
"47 36 OFFCURVE",
"47 74 CURVE SMOOTH",
"47 111 OFFCURVE",
"62 132 OFFCURVE",
"85 132 CURVE SMOOTH",
"109 132 OFFCURVE",
"124 111 OFFCURVE",
"124 74 CURVE SMOOTH",
"124 36 OFFCURVE",
"109 16 OFFCURVE",
"86 16 CURVE SMOOTH"
);
},
{
closed = 1;
nodes = (
"181 332 LINE",
"188 332 LINE",
"188 350 LINE",
"181 350 LINE"
);
}
);
width = 457;
},
{
anchors = (
{
name = bottom;
position = "{222, -236}";
},
{
name = bottomright;
position = "{419, -229}";
},
{
name = top;
position = "{252, 551}";
},
{
name = topright;
position = "{414, 551}";
}
);
layerId = "9F3C76A5-8ED6-4D1B-8CC9-A050DF474D58";
paths = (
{
closed = 1;
nodes = (
"262 -236 OFFCURVE",
"285 -175 OFFCURVE",
"285 -113 CURVE SMOOTH",
"285 -101 OFFCURVE",
"284 -88 OFFCURVE",
"281 -74 CURVE",
"250 -124 LINE",
"284 -136 OFFCURVE",
"320 -181 OFFCURVE",
"347 -229 CURVE",
"419 -229 LINE",
"419 389 LINE SMOOTH",
"419 508 OFFCURVE",
"337 561 OFFCURVE",
"251 561 CURVE SMOOTH",
"150 561 OFFCURVE",
"85 495 OFFCURVE",
"85 415 CURVE SMOOTH",
"85 384 LINE",
"200 323 LINE",
"198 342 LINE",
"132 339 OFFCURVE",
"112 298 OFFCURVE",
"112 239 CURVE SMOOTH",
"112 173 LINE",
"150 173 OFFCURVE",
"160 134 OFFCURVE",
"160 93 CURVE",
"174 93 LINE",
"174 144 OFFCURVE",
"157 190 OFFCURVE",
"105 190 CURVE SMOOTH",
"56 190 OFFCURVE",
"25 153 OFFCURVE",
"25 93 CURVE SMOOTH",
"25 31 OFFCURVE",
"54 -7 OFFCURVE",
"105 -7 CURVE SMOOTH",
"157 -7 OFFCURVE",
"188 33 OFFCURVE",
"188 103 CURVE SMOOTH",
"188 239 LINE SMOOTH",
"188 272 OFFCURVE",
"199 308 OFFCURVE",
"237 308 CURVE",
"243 364 LINE",
"132 430 LINE",
"159 389 LINE",
"159 456 OFFCURVE",
"190 490 OFFCURVE",
"250 490 CURVE SMOOTH",
"303 490 OFFCURVE",
"343 455 OFFCURVE",
"343 380 CURVE SMOOTH",
"343 -143 LINE",
"354 -136 LINE",
"310 -82 OFFCURVE",
"258 -36 OFFCURVE",
"203 -36 CURVE SMOOTH",
"145 -36 OFFCURVE",
"110 -71 OFFCURVE",
"110 -137 CURVE SMOOTH",
"110 -196 OFFCURVE",
"147 -236 OFFCURVE",
"196 -236 CURVE SMOOTH"
);
},
{
closed = 1;
nodes = (
"173 -187 OFFCURVE",
"160 -163 OFFCURVE",
"160 -136 CURVE SMOOTH",
"160 -107 OFFCURVE",
"171 -84 OFFCURVE",
"200 -84 CURVE SMOOTH",
"214 -84 OFFCURVE",
"224 -88 OFFCURVE",
"235 -96 CURVE",
"239 -144 OFFCURVE",
"231 -187 OFFCURVE",
"196 -187 CURVE SMOOTH"
);
},
{
closed = 1;
nodes = (
"81 37 OFFCURVE",
"71 60 OFFCURVE",
"71 92 CURVE SMOOTH",
"71 123 OFFCURVE",
"81 146 OFFCURVE",
"105 146 CURVE SMOOTH",
"129 146 OFFCURVE",
"140 124 OFFCURVE",
"140 92 CURVE SMOOTH",
"140 60 OFFCURVE",
"129 37 OFFCURVE",
"105 37 CURVE SMOOTH"
);
},
{
closed = 1;
nodes = (
"169 329 LINE",
"176 329 LINE",
"176 347 LINE",
"169 347 LINE"
);
}
);
userData = {
com.schriftgestaltung.Glyphs.glyph.rightMetricsKey = "khoKhwai-thai";
};
width = 487;
}
);
leftKerningGroup = "phoSamphao-thai";
leftMetricsKey = "phoSamphao-thai";
rightKerningGroup = "koKai-thai";
rightMetricsKey = "phoSamphao-thai";
},
